{
copyright = "Copyright (c) 2015, Cadson Demak (info@cadsondemak.com)";
customParameters = (
{
name = vendorID;
value = CDK;
},
{
name = description;
value = "Copyright (c) 2015, Cadson Demak (info@cadsondemak.com)";
},
{
name = license;

glyphs = (
{
glyphname = A;
lastChange = "2015-11-24 05:27:21 +0000";
layers = (
{
layerId = "5F179057-6D0F-420F-80EA-7F467AAFD28D";
name = Regular;
paths = (
{
closed = 1;
nodes = (
"277 0 LINE",
"277 87 LINE",
"231 87 LINE",
"268 197 LINE",
"450 197 LINE",
"486 87 LINE",
"440 87 LINE",
"440 0 LINE",
"690 0 LINE",
"690 87 LINE",
"662 87 LINE SMOOTH",
"630 87 OFFCURVE",
"615 94 OFFCURVE",
"605 123 CURVE SMOOTH",
"423 647 LINE",
"296 647 LINE",
"111 123 LINE SMOOTH",
"101 94 OFFCURVE",
"87 87 OFFCURVE",
"56 87 CURVE SMOOTH",
"27 87 LINE",
"27 0 LINE"
);
},
{
closed = 1;
nodes = (
"360 476 LINE",
"428 269 LINE",
"290 269 LINE"
);
}
);
width = 717;
}
);
leftKerningGroup = A;
note = A;
rightKerningGroup = A;
unicode = 0041;
},
{
glyphname = Aacute;
lastChange = "2015-11-24 05:27:21 +0000";
layers = (
{
layerId = "5F179057-6D0F-420F-80EA-7F467AAFD28D";
name = Regular;
paths = (
{
closed = 1;
nodes = (
"277 0 LINE",
"277 87 LINE",
"231 87 LINE",
"268 197 LINE",
"450 197 LINE",
"486 87 LINE",
"440 87 LINE",
"440 0 LINE",
"690 0 LINE",
"690 87 LINE",
"662 87 LINE SMOOTH",
"630 87 OFFCURVE",
"615 94 OFFCURVE",
"605 123 CURVE SMOOTH",
"423 647 LINE",
"296 647 LINE",
"111 123 LINE SMOOTH",
"101 94 OFFCURVE",
"87 87 OFFCURVE",
"56 87 CURVE SMOOTH",
"27 87 LINE",
"27 0 LINE"
);
},
{
closed = 1;
nodes = (
"360 476 LINE",
"428 269 LINE",
"290 269 LINE"
);
},
{
closed = 1;
nodes = (
"414 699 LINE",
"527 879 LINE",
"379 879 LINE",
"302 699 LINE"
);
}
);
width = 717;
}
);
leftKerningGroup = A;
note = Aacute;
rightKerningGroup = A;
unicode = 00C1;
},
{
glyphname = Abreve;
lastChange = "2015-11-24 05:27:18 +0000";
layers = (
{
layerId = "5F179057-6D0F-420F-80EA-7F467AAFD28D";
name = Regular;
paths = (
{
closed = 1;
nodes = (
"277 0 LINE",
"277 87 LINE",
"231 87 LINE",
"268 197 LINE",
"450 197 LINE",
"486 87 LINE",
"440 87 LINE",
"440 0 LINE",
"690 0 LINE",
"690 87 LINE",
"662 87 LINE SMOOTH",
"630 87 OFFCURVE",
"615 94 OFFCURVE",
"605 123 CURVE SMOOTH",
"423 647 LINE",
"296 647 LINE",
"111 123 LINE SMOOTH",
"101 94 OFFCURVE",
"87 87 OFFCURVE",
"56 87 CURVE SMOOTH",
"27 87 LINE",
"27 0 LINE"
);
},
{
closed = 1;
nodes = (
"360 476 LINE",
"428 269 LINE",
"290 269 LINE"
);
},
{
closed = 1;
nodes = (
"466 699 OFFCURVE",
"529 759 OFFCURVE",
"529 849 CURVE",
"420 849 LINE",
"420 806 OFFCURVE",
"402 780 OFFCURVE",
"360 780 CURVE SMOOTH",
"321 780 OFFCURVE",
"300 806 OFFCURVE",
"300 849 CURVE",
"191 849 LINE",
"191 759 OFFCURVE",
"254 699 OFFCURVE",
"360 699 CURVE SMOOTH"
);
}
);
width = 717;
}
);
leftKerningGroup = A;
note = Abreve;
rightKerningGroup = A;
unicode = 0102;
},
{
glyphname = Abreveacute;
lastChange = "2015-11-24 05:27:20 +0000";
layers = (
{
layerId = "5F179057-6D0F-420F-80EA-7F467AAFD28D";
name = Regular;
paths = (
{
closed = 1;
nodes = (
"277 0 LINE",
"277 87 LINE",
"231 87 LINE",
"268 197 LINE",
"450 197 LINE",
"486 87 LINE",
"440 87 LINE",
"440 0 LINE",
"690 0 LINE",
"690 87 LINE",
"662 87 LINE SMOOTH",
"630 87 OFFCURVE",
"615 94 OFFCURVE",
"605 123 CURVE SMOOTH",
"423 647 LINE",
"296 647 LINE",
"111 123 LINE SMOOTH",
"101 94 OFFCURVE",
"87 87 OFFCURVE",
"56 87 CURVE SMOOTH",
"27 87 LINE",
"27 0 LINE"
);
},
{
closed = 1;
nodes = (
"360 476 LINE",
"428 269 LINE",
"290 269 LINE"
);
},
{
closed = 1;
nodes = (
"457 699 OFFCURVE",
"535 757 OFFCURVE",
"535 858 CURVE",
"444 858 LINE",
"444 807 OFFCURVE",
"419 776 OFFCURVE",
"359 776 CURVE SMOOTH",
"303 776 OFFCURVE",
"276 807 OFFCURVE",
"276 858 CURVE",
"184 858 LINE",
"184 757 OFFCURVE",
"263 699 OFFCURVE",
"359 699 CURVE SMOOTH"
);
},
{
closed = 1;
nodes = (
"395 854 LINE",
"495 996 LINE",
"370 996 LINE",
"308 854 LINE"
);
}
);
width = 717;
}
);
leftKerningGroup = A;
note = Abreveacute;
rightKerningGroup = A;
unicode = 1EAE;
},
{
glyphname = Abrevedotbelow;
lastChange = "2015-11-24 05:27:21 +0000";
layers = (
{
layerId = "5F179057-6D0F-420F-80EA-7F467AAFD28D";
name = Regular;
paths = (
{
closed = 1;
nodes = (
"277 0 LINE",
"277 87 LINE",
"231 87 LINE",
"268 197 LINE",
"450 197 LINE",
"486 87 LINE",
"440 87 LINE",
"440 0 LINE",
"690 0 LINE",
"690 87 LINE",
"662 87 LINE SMOOTH",
"630 87 OFFCURVE",
"615 94 OFFCURVE",
"605 123 CURVE SMOOTH",
"423 647 LINE",
"296 647 LINE",
"111 123 LINE SMOOTH",
"101 94 OFFCURVE",
"87 87 OFFCURVE",
"56 87 CURVE SMOOTH",
"27 87 LINE",
"27 0 LINE"
);
},
{
closed = 1;
nodes = (
"412 -171 LINE",
"412 -61 LINE",
"308 -61 LINE",
"308 -171 LINE"
);
},
{
closed = 1;
nodes = (
"360 476 LINE",
"428 269 LINE",
"290 269 LINE"
);
},
{
closed = 1;
nodes = (
"466 699 OFFCURVE",
"529 759 OFFCURVE",
"529 849 CURVE",
"420 849 LINE",
"420 806 OFFCURVE",
"402 780 OFFCURVE",
"360 780 CURVE SMOOTH",
"321 780 OFFCURVE",
"300 806 OFFCURVE",
"300 849 CURVE",
"191 849 LINE",
"191 759 OFFCURVE",
"254 699 OFFCURVE",
"360 699 CURVE SMOOTH"
);
}
);
width = 717;
}
);
leftKerningGroup = A;
note = Abrevedotbelow;
rightKerningGroup = A;
unicode = 1EB6;
},
{
glyphname = Abrevegrave;
lastChange = "2015-11-24 05:27:21 +0000";
layers = (
{
layerId = "5F179057-6D0F-420F-80EA-7F467AAFD28D";
name = Regular;
paths = (
{
closed = 1;
nodes = (
"277 0 LINE",
"277 87 LINE",
"231 87 LINE",
"268 197 LINE",
"450 197 LINE",
"486 87 LINE",
"440 87 LINE",
"440 0 LINE",
"690 0 LINE",
"690 87 LINE",
"662 87 LINE SMOOTH",
"630 87 OFFCURVE",
"615 94 OFFCURVE",
"605 123 CURVE SMOOTH",
"423 647 LINE",
"296 647 LINE",
"111 123 LINE SMOOTH",
"101 94 OFFCURVE",
"87 87 OFFCURVE",
"56 87 CURVE SMOOTH",
"27 87 LINE",
"27 0 LINE"
);
},
{
closed = 1;
nodes = (
"360 476 LINE",
"428 269 LINE",
"290 269 LINE"
);
},
{
closed = 1;
nodes = (
"458 699 OFFCURVE",
"536 757 OFFCURVE",
"536 858 CURVE",
"445 858 LINE",
"445 807 OFFCURVE",
"417 776 OFFCURVE",
"361 776 CURVE SMOOTH",
"301 776 OFFCURVE",
"277 807 OFFCURVE",
"277 858 CURVE",
"185 858 LINE",
"185 757 OFFCURVE",
"264 699 OFFCURVE",
"361 699 CURVE SMOOTH"
);
},
{
closed = 1;
nodes = (
"413 854 LINE",
"351 996 LINE",
"226 996 LINE",
"325 854 LINE"
);
}
);
width = 717;
}
);
leftKerningGroup = A;
note = Abrevegrave;
rightKerningGroup = A;
unicode = 1EB0;
},
{
glyphname = Abrevehookabove;
lastChange = "2015-11-24 05:27:18 +0000";
layers = (
{
layerId = "5F179057-6D0F-420F-80EA-7F467AAFD28D";
name = Regular;
paths = (
{
closed = 1;
nodes = (
"277 0 LINE",
"277 87 LINE",
"231 87 LINE",
"268 197 LINE",
"450 197 LINE",
"486 87 LINE",
"440 87 LINE",
"440 0 LINE",
"690 0 LINE",
"690 87 LINE",
"662 87 LINE SMOOTH",
"630 87 OFFCURVE",
"615 94 OFFCURVE",
"605 123 CURVE SMOOTH",
"423 647 LINE",
"296 647 LINE",
"111 123 LINE SMOOTH",
"101 94 OFFCURVE",
"87 87 OFFCURVE",
"56 87 CURVE SMOOTH",
"27 87 LINE",
"27 0 LINE"
);
},
{
closed = 1;
nodes = (
"360 476 LINE",
"428 269 LINE",
"290 269 LINE"
);
},
{
closed = 1;
nodes = (
"457 699 OFFCURVE",
"535 757 OFFCURVE",
"535 858 CURVE",
"444 858 LINE",
"444 807 OFFCURVE",
"419 776 OFFCURVE",
"359 776 CURVE SMOOTH",
"303 776 OFFCURVE",
"276 807 OFFCURVE",
"276 858 CURVE",
"184 858 LINE",
"184 757 OFFCURVE",
"263 699 OFFCURVE",
"359 699 CURVE SMOOTH"
);
},
{
closed = 1;
nodes = (
"398 846 LINE",
"398 869 LINE",
"435 878 OFFCURVE",
"451 898 OFFCURVE",
"451 931 CURVE SMOOTH",
"451 977 OFFCURVE",
"420 1000 OFFCURVE",
"360 1000 CURVE SMOOTH",
"332 1000 OFFCURVE",
"309 996 OFFCURVE",
"294 991 CURVE",
"294 935 LINE",
"305 939 OFFCURVE",
"318 943 OFFCURVE",
"332 943 CURVE SMOOTH",
"352 943 OFFCURVE",
"363 935 OFFCURVE",
"363 919 CURVE SMOOTH",
"363 899 OFFCURVE",
"352 889 OFFCURVE",
"313 889 CURVE",
"313 846 LINE"
);
}
);
width = 717;
}
);
leftKerningGroup = A;
note = Abrevehookabove;
rightKerningGroup = A;
unicode = 1EB2;
},
{
glyphname = Abrevetilde;
lastChange = "2015-11-24 05:27:20 +0000";
layers = (
{
layerId = "5F179057-6D0F-420F-80EA-7F467AAFD28D";
name = Regular;
paths = (
{
closed = 1;
nodes = (
"277 0 LINE",
"277 87 LINE",
"231 87 LINE",
"268 197 LINE",
"450 197 LINE",
"486 87 LINE",
"440 87 LINE",
"440 0 LINE",
"690 0 LINE",
"690 87 LINE",
"662 87 LINE SMOOTH",
"630 87 OFFCURVE",
"615 94 OFFCURVE",
"605 123 CURVE SMOOTH",
"423 647 LINE",
"296 647 LINE",
"111 123 LINE SMOOTH",
"101 94 OFFCURVE",
"87 87 OFFCURVE",
"56 87 CURVE SMOOTH",
"27 87 LINE",
"27 0 LINE"
);
},
{
closed = 1;
nodes = (
"360 476 LINE",
"428 269 LINE",
"290 269 LINE"
);
},
{
closed = 1;
nodes = (
"458 699 OFFCURVE",
"536 757 OFFCURVE",
"536 858 CURVE",
"445 858 LINE",
"445 807 OFFCURVE",
"419 776 OFFCURVE",
"360 776 CURVE SMOOTH",
"304 776 OFFCURVE",
"277 807 OFFCURVE",
"277 858 CURVE",
"185 858 LINE",
"185 757 OFFCURVE",
"264 699 OFFCURVE",
"360 699 CURVE SMOOTH"
);
},
{
closed = 1;
nodes = (
"488 886 OFFCURVE",
"511 918 OFFCURVE",
"511 986 CURVE",
"446 986 LINE",
"446 963 OFFCURVE",
"439 951 OFFCURVE",
"416 951 CURVE SMOOTH",
"383 951 OFFCURVE",
"349 989 OFFCURVE",
"296 989 CURVE SMOOTH",
"236 989 OFFCURVE",
"209 959 OFFCURVE",
"209 889 CURVE",
"274 889 LINE",
"274 913 OFFCURVE",
"283 925 OFFCURVE",
"305 925 CURVE SMOOTH",
"338 925 OFFCURVE",
"382 886 OFFCURVE",
"429 886 CURVE SMOOTH"
);
}
);
width = 717;
}
);
leftKerningGroup = A;
note = Abrevetilde;
rightKerningGroup = A;
unicode = 1EB4;
},
{
glyphname = Acaron;
lastChange = "2015-11-24 05:27:18 +0000";
layers = (
{
layerId = "5F179057-6D0F-420F-80EA-7F467AAFD28D";
name = Regular;
paths = (
{
closed = 1;
nodes = (
"277 0 LINE",
"277 87 LINE",
"231 87 LINE",
"268 197 LINE",
"450 197 LINE",
"486 87 LINE",
"440 87 LINE",
"440 0 LINE",
"690 0 LINE",
"690 87 LINE",
"662 87 LINE SMOOTH",
"630 87 OFFCURVE",
"615 94 OFFCURVE",
"605 123 CURVE SMOOTH",
"423 647 LINE",
"296 647 LINE",
"111 123 LINE SMOOTH",
"101 94 OFFCURVE",
"87 87 OFFCURVE",
"56 87 CURVE SMOOTH",
"27 87 LINE",
"27 0 LINE"
);
},
{
closed = 1;
nodes = (
"360 476 LINE",
"428 269 LINE",
"290 269 LINE"
);
},
{
closed = 1;
nodes = (
"421 699 LINE",
"551 892 LINE",
"430 892 LINE",
"360 772 LINE",
"290 892 LINE",
"170 892 LINE",
"301 699 LINE"
);
}
);
width = 717;
}
);
leftKerningGroup = A;
note = Acaron;
rightKerningGroup = A;
unicode = 01CD;
},
{
glyphname = Acircumflex;
lastChange = "2015-11-24 05:27:21 +0000";
layers = (
{
layerId = "5F179057-6D0F-420F-80EA-7F467AAFD28D";
name = Regular;
paths = (
{
closed = 1;
nodes = (
"277 0 LINE",
"277 87 LINE",
"231 87 LINE",
"268 197 LINE",
"450 197 LINE",
"486 87 LINE",
"440 87 LINE",
"440 0 LINE",
"690 0 LINE",
"690 87 LINE",
"662 87 LINE SMOOTH",
"630 87 OFFCURVE",
"615 94 OFFCURVE",
"605 123 CURVE SMOOTH",
"423 647 LINE",
"296 647 LINE",
"111 123 LINE SMOOTH",
"101 94 OFFCURVE",
"87 87 OFFCURVE",
"56 87 CURVE SMOOTH",
"27 87 LINE",
"27 0 LINE"
);
},
{
closed = 1;
nodes = (
"360 476 LINE",
"428 269 LINE",
"290 269 LINE"
);
},
{
closed = 1;
nodes = (
"290 700 LINE",
"360 820 LINE",
"430 700 LINE",
"551 700 LINE",
"421 893 LINE",
"301 893 LINE",
"170 700 LINE"
);
}
);
width = 717;
}
);
leftKerningGroup = A;
note = Acircumflex;
rightKerningGroup = A;
unicode = 00C2;
},
{
glyphname = Acircumflexacute;
lastChange = "2015-11-24 05:27:18 +0000";
layers = (
{
layerId = "5F179057-6D0F-420F-80EA-7F467AAFD28D";
name = Regular;
paths = (
{
closed = 1;
nodes = (
"277 0 LINE",
"277 87 LINE",
"231 87 LINE",
"268 197 LINE",
"450 197 LINE",
"486 87 LINE",
"440 87 LINE",
"440 0 LINE",
"690 0 LINE",
"690 87 LINE",
"662 87 LINE SMOOTH",
"630 87 OFFCURVE",
"615 94 OFFCURVE",
"605 123 CURVE SMOOTH",
"423 647 LINE",
"296 647 LINE",
"111 123 LINE SMOOTH",
"101 94 OFFCURVE",
"87 87 OFFCURVE",
"56 87 CURVE SMOOTH",
"27 87 LINE",
"27 0 LINE"
);
},
{
closed = 1;
nodes = (
"360 476 LINE",
"428 269 LINE",
"290 269 LINE"
);
},
{
closed = 1;
nodes = (
"299 703 LINE",
"357 781 LINE",
"412 703 LINE",
"525 703 LINE",
"415 841 LINE",
"299 841 LINE",
"188 703 LINE"
);
},
{
closed = 1;
nodes = (
"554 814 LINE",
"654 947 LINE",
"523 947 LINE",
"460 814 LINE"
);
}
);
width = 717;
}
);
leftKerningGroup = A;
note = Acircumflexacute;
rightKerningGroup = A;
unicode = 1EA4;
},
{
glyphname = Acircumflexdotbelow;
lastChange = "2015-11-24 05:27:17 +0000";
layers = (
{
layerId = "5F179057-6D0F-420F-80EA-7F467AAFD28D";
name = Regular;
paths = (
{
closed = 1;
nodes = (
"277 0 LINE",
"277 87 LINE",
"231 87 LINE",
"268 197 LINE",
"450 197 LINE",
"486 87 LINE",
"440 87 LINE",
"440 0 LINE",
"690 0 LINE",
"690 87 LINE",
"662 87 LINE SMOOTH",
"630 87 OFFCURVE",
"615 94 OFFCURVE",
"605 123 CURVE SMOOTH",
"423 647 LINE",
"296 647 LINE",
"111 123 LINE SMOOTH",
"101 94 OFFCURVE",
"87 87 OFFCURVE",
"56 87 CURVE SMOOTH",
"27 87 LINE",
"27 0 LINE"
);
},
{
closed = 1;
nodes = (
"412 -171 LINE",
"412 -61 LINE",
"308 -61 LINE",
"308 -171 LINE"
);
},
{
closed = 1;
nodes = (
"360 476 LINE",
"428 269 LINE",
"290 269 LINE"
);
},
{
closed = 1;
nodes = (
"290 700 LINE",
"360 820 LINE",
"430 700 LINE",
"551 700 LINE",
"421 893 LINE",
"301 893 LINE",
"170 700 LINE"
);
}
);
width = 717;
}
);
leftKerningGroup = A;
note = Acircumflexdotbelow;
rightKerningGroup = A;
unicode = 1EAC;
},
{
glyphname = Acircumflexgrave;
lastChange = "2015-11-24 05:27:22 +0000";
layers = (
{
layerId = "5F179057-6D0F-420F-80EA-7F467AAFD28D";
name = Regular;
paths = (
{
closed = 1;
nodes = (
"277 0 LINE",
"277 87 LINE",
"231 87 LINE",
"268 197 LINE",
"450 197 LINE",
"486 87 LINE",
"440 87 LINE",
"440 0 LINE",
"690 0 LINE",
"690 87 LINE",
"662 87 LINE SMOOTH",
"630 87 OFFCURVE",
"615 94 OFFCURVE",
"605 123 CURVE SMOOTH",
"423 647 LINE",
"296 647 LINE",
"111 123 LINE SMOOTH",
"101 94 OFFCURVE",
"87 87 OFFCURVE",
"56 87 CURVE SMOOTH",
"27 87 LINE",
"27 0 LINE"
);
},
{
closed = 1;
nodes = (
"360 476 LINE",
"428 269 LINE",
"290 269 LINE"
);
},
{
closed = 1;
nodes = (
"255 814 LINE",
"192 947 LINE",
"61 947 LINE",
"161 814 LINE"
);
},
{
closed = 1;
nodes = (
"303 703 LINE",
"358 781 LINE",
"416 703 LINE",
"527 703 LINE",
"416 841 LINE",
"300 841 LINE",
"190 703 LINE"
);
}
);
width = 717;
}
);
leftKerningGroup = A;
note = Acircumflexgrave;
rightKerningGroup = A;
unicode = 1EA6;
},
{
glyphname = Acircumflexhookabove;
lastChange = "2015-11-24 05:27:20 +0000";
layers = (
{
layerId = "5F179057-6D0F-420F-80EA-7F467AAFD28D";
name = Regular;
paths = (
{
closed = 1;
nodes = (
"277 0 LINE",
"277 87 LINE",
"231 87 LINE",
"268 197 LINE",
"450 197 LINE",
"486 87 LINE",
"440 87 LINE",
"440 0 LINE",
"690 0 LINE",
"690 87 LINE",
"662 87 LINE SMOOTH",
"630 87 OFFCURVE",
"615 94 OFFCURVE",
"605 123 CURVE SMOOTH",
"423 647 LINE",
"296 647 LINE",
"111 123 LINE SMOOTH",
"101 94 OFFCURVE",
"87 87 OFFCURVE",
"56 87 CURVE SMOOTH",
"27 87 LINE",
"27 0 LINE"
);
},
{
closed = 1;
nodes = (
"360 476 LINE",
"428 269 LINE",
"290 269 LINE"
);
},
{
closed = 1;
nodes = (
"302 700 LINE",
"357 778 LINE",
"415 700 LINE",
"526 700 LINE",
"416 838 LINE",
"299 838 LINE",
"190 700 LINE"
);
},
{
closed = 1;
nodes = (
"523 832 LINE",
"523 855 LINE",
"560 864 OFFCURVE",
"576 884 OFFCURVE",
"576 917 CURVE SMOOTH",
"576 963 OFFCURVE",
"546 986 OFFCURVE",
"484 986 CURVE SMOOTH",
"458 986 OFFCURVE",
"434 982 OFFCURVE",
"420 977 CURVE",
"420 921 LINE",
"430 925 OFFCURVE",
"444 929 OFFCURVE",
"457 929 CURVE SMOOTH",
"476 929 OFFCURVE",
"489 921 OFFCURVE",
"489 905 CURVE SMOOTH",
"489 885 OFFCURVE",
"478 875 OFFCURVE",
"439 875 CURVE",
"439 832 LINE"
);
}
);
width = 717;
}
);
leftKerningGroup = A;
note = Acircumflexhookabove;
rightKerningGroup = A;
unicode = 1EA8;
},
{
glyphname = Acircumflextilde;
lastChange = "2015-11-24 05:27:17 +0000";
layers = (
{
layerId = "5F179057-6D0F-420F-80EA-7F467AAFD28D";
name = Regular;
paths = (
{
closed = 1;
nodes = (
"277 0 LINE",
"277 87 LINE",
"231 87 LINE",
"268 197 LINE",
"450 197 LINE",
"486 87 LINE",
"440 87 LINE",
"440 0 LINE",
"690 0 LINE",
"690 87 LINE",
"662 87 LINE SMOOTH",
"630 87 OFFCURVE",
"615 94 OFFCURVE",
"605 123 CURVE SMOOTH",
"423 647 LINE",
"296 647 LINE",
"111 123 LINE SMOOTH",
"101 94 OFFCURVE",
"87 87 OFFCURVE",
"56 87 CURVE SMOOTH",
"27 87 LINE",
"27 0 LINE"
);
},
{
closed = 1;
nodes = (
"360 476 LINE",
"428 269 LINE",
"290 269 LINE"
);
},
{
closed = 1;
nodes = (
"304 700 LINE",
"359 778 LINE",
"417 700 LINE",
"528 700 LINE",
"418 838 LINE",
"301 838 LINE",
"192 700 LINE"
);
},
{
closed = 1;
nodes = (
"489 854 OFFCURVE",
"512 886 OFFCURVE",
"512 954 CURVE",
"447 954 LINE",
"447 931 OFFCURVE",
"438 919 OFFCURVE",
"416 919 CURVE SMOOTH",
"382 919 OFFCURVE",
"348 957 OFFCURVE",
"295 957 CURVE SMOOTH",
"236 957 OFFCURVE",
"208 927 OFFCURVE",
"208 857 CURVE",
"273 857 LINE",
"273 881 OFFCURVE",
"282 893 OFFCURVE",
"304 893 CURVE SMOOTH",
"337 893 OFFCURVE",
"381 854 OFFCURVE",
"429 854 CURVE SMOOTH"
);
}
);
width = 717;
}
);
leftKerningGroup = A;
note = Acircumflextilde;
rightKerningGroup = A;
unicode = 1EAA;
},
{
glyphname = Adieresis;
lastChange = "2015-11-24 05:27:20 +0000";
layers = (
{
layerId = "5F179057-6D0F-420F-80EA-7F467AAFD28D";
name = Regular;
paths = (
{
closed = 1;
nodes = (
"277 0 LINE",
"277 87 LINE",
"231 87 LINE",
"268 197 LINE",
"450 197 LINE",
"486 87 LINE",
"440 87 LINE",
"440 0 LINE",
"690 0 LINE",
"690 87 LINE",
"662 87 LINE SMOOTH",
"630 87 OFFCURVE",
"615 94 OFFCURVE",
"605 123 CURVE SMOOTH",
"423 647 LINE",
"296 647 LINE",
"111 123 LINE SMOOTH",
"101 94 OFFCURVE",
"87 87 OFFCURVE",
"56 87 CURVE SMOOTH",
"27 87 LINE",
"27 0 LINE"
);
},
{
closed = 1;
nodes = (
"360 476 LINE",
"428 269 LINE",
"290 269 LINE"
);
},
{
closed = 1;
nodes = (
"299 719 LINE",
"299 828 LINE",
"195 828 LINE",
"195 719 LINE"
);
},
{
closed = 1;
nodes = (
"525 719 LINE",
"525 828 LINE",
"420 828 LINE",
"420 719 LINE"
);
}
);
width = 717;
}
);
leftKerningGroup = A;
note = Adieresis;
rightKerningGroup = A;
unicode = 00C4;
},
{
glyphname = Adotbelow;
lastChange = "2015-11-24 05:27:19 +0000";
layers = (
{
layerId = "5F179057-6D0F-420F-80EA-7F467AAFD28D";
name = Regular;
paths = (
{
closed = 1;
nodes = (
"277 0 LINE",
"277 87 LINE",
"231 87 LINE",
"268 197 LINE",
"450 197 LINE",
"486 87 LINE",
"440 87 LINE",
"440 0 LINE",
"690 0 LINE",
"690 87 LINE",
"662 87 LINE SMOOTH",
"630 87 OFFCURVE",
"615 94 OFFCURVE",
"605 123 CURVE SMOOTH",
"423 647 LINE",
"296 647 LINE",
"111 123 LINE SMOOTH",
"101 94 OFFCURVE",
"87 87 OFFCURVE",
"56 87 CURVE SMOOTH",
"27 87 LINE",
"27 0 LINE"
);
},
{
closed = 1;
nodes = (
"400 -171 LINE",
"400 -61 LINE",
"296 -61 LINE",
"296 -171 LINE"
);
},
{
closed = 1;
nodes = (
"360 476 LINE",
"428 269 LINE",
"290 269 LINE"
);
}
);
width = 717;
}
);
leftKerningGroup = A;
note = Adotbelow;
rightKerningGroup = A;
unicode = 1EA0;
},
{
glyphname = Agrave;
lastChange = "2015-11-24 05:27:18 +0000";
layers = (
{
layerId = "5F179057-6D0F-420F-80EA-7F467AAFD28D";
name = Regular;
paths = (
{
closed = 1;
nodes = (
"277 0 LINE",
"277 87 LINE",
"231 87 LINE",
"268 197 LINE",
"450 197 LINE",
"486 87 LINE",
"440 87 LINE",
"440 0 LINE",
"690 0 LINE",
"690 87 LINE",
"662 87 LINE SMOOTH",
"630 87 OFFCURVE",
"615 94 OFFCURVE",
"605 123 CURVE SMOOTH",
"423 647 LINE",
"296 647 LINE",
"111 123 LINE SMOOTH",
"101 94 OFFCURVE",
"87 87 OFFCURVE",
"56 87 CURVE SMOOTH",
"27 87 LINE",
"27 0 LINE"
);
},
{
closed = 1;
nodes = (
"360 476 LINE",
"428 269 LINE",
"290 269 LINE"
);
},
{
closed = 1;
nodes = (
"420 699 LINE",
"342 879 LINE",
"193 879 LINE",
"306 699 LINE"
);
}
);
width = 717;
}
);
leftKerningGroup = A;
note = Agrave;
rightKerningGroup = A;
unicode = 00C0;
},
{
glyphname = Ahookabove;
lastChange = "2015-11-24 05:27:18 +0000";
layers = (
{
layerId = "5F179057-6D0F-420F-80EA-7F467AAFD28D";
name = Regular;
paths = (
{
closed = 1;
nodes = (
"277 0 LINE",
"277 87 LINE",
"231 87 LINE",
"268 197 LINE",
"450 197 LINE",
"486 87 LINE",
"440 87 LINE",
"440 0 LINE",
"690 0 LINE",
"690 87 LINE",
"662 87 LINE SMOOTH",
"630 87 OFFCURVE",
"615 94 OFFCURVE",
"605 123 CURVE SMOOTH",
"423 647 LINE",
"296 647 LINE",
"111 123 LINE SMOOTH",
"101 94 OFFCURVE",
"87 87 OFFCURVE",
"56 87 CURVE SMOOTH",
"27 87 LINE",
"27 0 LINE"
);
},
{
closed = 1;
nodes = (
"360 476 LINE",
"428 269 LINE",
"290 269 LINE"
);
},
{
closed = 1;
nodes = (
"412 697 LINE",
"412 738 LINE",
"454 751 OFFCURVE",
"474 777 OFFCURVE",
"474 819 CURVE SMOOTH",
"474 880 OFFCURVE",
"428 904 OFFCURVE",
"352 904 CURVE SMOOTH",
"318 904 OFFCURVE",
"289 899 OFFCURVE",
"271 892 CURVE",
"271 824 LINE",
"284 830 OFFCURVE",
"302 833 OFFCURVE",
"318 833 CURVE SMOOTH",
"350 833 OFFCURVE",
"362 824 OFFCURVE",
"362 801 CURVE SMOOTH",
"362 779 OFFCURVE",
"350 762 OFFCURVE",
"305 762 CURVE",
"305 697 LINE"
);
}
);
width = 717;
}
);
leftKerningGroup = A;
note = Ahookabove;
rightKerningGroup = A;
unicode = 1EA2;
},
{
glyphname = Amacron;
lastChange = "2015-11-24 05:27:20 +0000";
layers = (
{
layerId = "5F179057-6D0F-420F-80EA-7F467AAFD28D";
name = Regular;
paths = (
{
closed = 1;
nodes = (
"277 0 LINE",
"277 87 LINE",
"231 87 LINE",
"268 197 LINE",
"450 197 LINE",
"486 87 LINE",
"440 87 LINE",
"440 0 LINE",
"690 0 LINE",
"690 87 LINE",
"662 87 LINE SMOOTH",
"630 87 OFFCURVE",
"615 94 OFFCURVE",
"605 123 CURVE SMOOTH",
"423 647 LINE",
"296 647 LINE",
"111 123 LINE SMOOTH",
"101 94 OFFCURVE",
"87 87 OFFCURVE",
"56 87 CURVE SMOOTH",
"27 87 LINE",
"27 0 LINE"
);
},
{
closed = 1;
nodes = (
"360 476 LINE",
"428 269 LINE",
"290 269 LINE"
);
},
{
closed = 1;
nodes = (
"510 720 LINE",
"510 801 LINE",
"211 801 LINE",
"211 720 LINE"
);
}
);
width = 717;
}
);
leftKerningGroup = A;
note = Amacron;
rightKerningGroup = A;
unicode = 0100;
},
{
glyphname = Aogonek;
lastChange = "2015-11-24 05:27:18 +0000";
layers = (
{
layerId = "5F179057-6D0F-420F-80EA-7F467AAFD28D";
name = Regular;
paths = (
{
closed = 1;
nodes = (
"277 0 LINE",
"277 87 LINE",
"231 87 LINE",
"268 197 LINE",
"450 197 LINE",
"486 87 LINE",
"440 87 LINE",
"440 0 LINE",
"690 0 LINE",
"690 87 LINE",
"662 87 LINE SMOOTH",
"630 87 OFFCURVE",
"615 94 OFFCURVE",
"605 123 CURVE SMOOTH",
"423 647 LINE",
"296 647 LINE",
"111 123 LINE SMOOTH",
"101 94 OFFCURVE",
"87 87 OFFCURVE",
"56 87 CURVE SMOOTH",
"27 87 LINE",
"27 0 LINE"
);
},
{
closed = 1;
nodes = (
"579 -213 OFFCURVE",
"605 -206 OFFCURVE",
"626 -191 CURVE",
"626 -117 LINE",
"613 -122 OFFCURVE",
"599 -125 OFFCURVE",
"587 -125 CURVE SMOOTH",
"564 -125 OFFCURVE",
"553 -110 OFFCURVE",
"553 -83 CURVE SMOOTH",
"553 -50 OFFCURVE",
"569 -26 OFFCURVE",
"602 0 CURVE",
"493 0 LINE",
"462 -26 OFFCURVE",
"441 -69 OFFCURVE",
"441 -113 CURVE SMOOTH",
"441 -184 OFFCURVE",
"489 -213 OFFCURVE",
"546 -213 CURVE SMOOTH"
);
},
{
closed = 1;
nodes = (
"360 476 LINE",
"428 269 LINE",
"290 269 LINE"
);
}
);
width = 717;
}
);
leftKerningGroup = A;
note = Aogonek;
rightKerningGroup = A;
unicode = 0104;
},
{
glyphname = Aring;
lastChange = "2015-11-24 05:27:21 +0000";
layers = (
{
layerId = "5F179057-6D0F-420F-80EA-7F467AAFD28D";
name = Regular;
paths = (
{
closed = 1;
nodes = (
"277 0 LINE",
"277 87 LINE",
"231 87 LINE",
"268 197 LINE",
"450 197 LINE",
"486 87 LINE",
"440 87 LINE",
"440 0 LINE",
"690 0 LINE",
"690 87 LINE",
"662 87 LINE SMOOTH",
"630 87 OFFCURVE",
"615 94 OFFCURVE",
"605 123 CURVE SMOOTH",
"423 647 LINE",
"296 647 LINE",
"111 123 LINE SMOOTH",
"101 94 OFFCURVE",
"87 87 OFFCURVE",
"56 87 CURVE SMOOTH",
"27 87 LINE",
"27 0 LINE"
);
},
{
closed = 1;
nodes = (
"360 476 LINE",
"428 269 LINE",
"290 269 LINE"
);
},
{
closed = 1;
nodes = (
"425 600 OFFCURVE",
"477 651 OFFCURVE",
"477 716 CURVE SMOOTH",
"477 780 OFFCURVE",
"425 832 OFFCURVE",
"360 832 CURVE SMOOTH",
"295 832 OFFCURVE",
"244 780 OFFCURVE",
"244 716 CURVE SMOOTH",
"244 651 OFFCURVE",
"295 600 OFFCURVE",
"360 600 CURVE SMOOTH"
);
},
{
closed = 1;
nodes = (
"333 668 OFFCURVE",
"313 689 OFFCURVE",
"313 716 CURVE SMOOTH",
"313 742 OFFCURVE",
"333 764 OFFCURVE",
"360 764 CURVE SMOOTH",
"387 764 OFFCURVE",
"407 742 OFFCURVE",
"407 716 CURVE SMOOTH",
"407 689 OFFCURVE",
"387 668 OFFCURVE",
"360 668 CURVE SMOOTH"
);
}
);
width = 717;
}
);
leftKerningGroup = A;
note = Aring;
rightKerningGroup = A;
unicode = 00C5;
},
{
glyphname = Aringacute;
lastChange = "2015-11-24 05:27:21 +0000";
layers = (
{
layerId = "5F179057-6D0F-420F-80EA-7F467AAFD28D";
name = Regular;
paths = (
{
closed = 1;
nodes = (
"277 0 LINE",
"277 87 LINE",
"231 87 LINE",
"268 197 LINE",
"450 197 LINE",
"486 87 LINE",
"440 87 LINE",
"440 0 LINE",
"690 0 LINE",
"690 87 LINE",
"662 87 LINE SMOOTH",
"630 87 OFFCURVE",
"615 94 OFFCURVE",
"605 123 CURVE SMOOTH",
"423 647 LINE",
"296 647 LINE",
"111 123 LINE SMOOTH",
"101 94 OFFCURVE",
"87 87 OFFCURVE",
"56 87 CURVE SMOOTH",
"27 87 LINE",
"27 0 LINE"
);
},
{
closed = 1;
nodes = (
"360 476 LINE",
"428 269 LINE",
"290 269 LINE"
);
},
{
closed = 1;
nodes = (
"425 603 OFFCURVE",
"477 654 OFFCURVE",
"477 719 CURVE SMOOTH",
"477 783 OFFCURVE",
"425 835 OFFCURVE",
"360 835 CURVE SMOOTH",
"295 835 OFFCURVE",
"244 783 OFFCURVE",
"244 719 CURVE SMOOTH",
"244 654 OFFCURVE",
"295 603 OFFCURVE",
"360 603 CURVE SMOOTH"
);
},
{
closed = 1;
nodes = (
"333 671 OFFCURVE",
"313 692 OFFCURVE",
"313 719 CURVE SMOOTH",
"313 745 OFFCURVE",
"333 767 OFFCURVE",
"360 767 CURVE SMOOTH",
"387 767 OFFCURVE",
"407 745 OFFCURVE",
"407 719 CURVE SMOOTH",
"407 692 OFFCURVE",
"387 671 OFFCURVE",
"360 671 CURVE SMOOTH"
);
},
{
closed = 1;
nodes = (
"403 861 LINE",
"516 1041 LINE",
"368 1041 LINE",
"291 861 LINE"
);
}
);
width = 717;
}
);
leftKerningGroup = A;
note = Aringacute;
rightKerningGroup = A;
unicode = 01FA;
},
{
glyphname = Atilde;
lastChange = "2015-11-24 05:27:21 +0000";
layers = (
{
layerId = "5F179057-6D0F-420F-80EA-7F467AAFD28D";
name = Regular;
paths = (
{
closed = 1;
nodes = (
"277 0 LINE",
"277 87 LINE",
"231 87 LINE",
"268 197 LINE",
"450 197 LINE",
"486 87 LINE",
"440 87 LINE",
"440 0 LINE",
"690 0 LINE",
"690 87 LINE",
"662 87 LINE SMOOTH",
"630 87 OFFCURVE",
"615 94 OFFCURVE",
"605 123 CURVE SMOOTH",
"423 647 LINE",
"296 647 LINE",
"111 123 LINE SMOOTH",
"101 94 OFFCURVE",
"87 87 OFFCURVE",
"56 87 CURVE SMOOTH",
"27 87 LINE",
"27 0 LINE"
);
},
{
closed = 1;
nodes = (
"360 476 LINE",
"428 269 LINE",
"290 269 LINE"
);
},
{
closed = 1;
nodes = (
"249 700 LINE",
"249 737 OFFCURVE",
"265 750 OFFCURVE",
"294 750 CURVE SMOOTH",
"342 750 OFFCURVE",
"377 700 OFFCURVE",
"451 700 CURVE SMOOTH",
"531 700 OFFCURVE",
"565 746 OFFCURVE",
"565 853 CURVE",
"472 853 LINE",
"472 816 OFFCURVE",
"457 801 OFFCURVE",
"428 801 CURVE SMOOTH",
"381 801 OFFCURVE",
"346 853 OFFCURVE",
"273 853 CURVE SMOOTH",
"191 853 OFFCURVE",
"155 804 OFFCURVE",
"155 700 CURVE"
);
}
);
width = 717;
}
);
leftKerningGroup = A;
note = Atilde;
rightKerningGroup = A;
unicode = 00C3;
},
{
glyphname = AE;
lastChange = "2015-11-24 05:27:18 +0000";
layers = (
{
layerId = "5F179057-6D0F-420F-80EA-7F467AAFD28D";
name = Regular;
paths = (
{
closed = 1;
nodes = (
"277 0 LINE",
"277 87 LINE",
"231 87 LINE",
"270 197 LINE",
"388 197 LINE",
"388 126 LINE SMOOTH",
"388 99 OFFCURVE",
"384 87 OFFCURVE",
"356 87 CURVE SMOOTH",
"341 87 LINE",
"341 0 LINE",
"805 0 LINE",
"805 143 LINE",
"685 143 LINE",
"685 125 LINE SMOOTH",
"685 99 OFFCURVE",
"673 87 OFFCURVE",
"646 87 CURVE SMOOTH",
"520 87 LINE",
"520 280 LINE",
"664 280 LINE",
"664 368 LINE",
"520 368 LINE",
"520 560 LINE",
"618 560 LINE SMOOTH",
"663 560 OFFCURVE",
"685 558 OFFCURVE",
"685 522 CURVE SMOOTH",
"685 505 LINE",
"805 505 LINE",
"805 647 LINE",
"304 647 LINE",
"111 123 LINE SMOOTH",
"100 94 OFFCURVE",
"87 87 OFFCURVE",
"56 87 CURVE SMOOTH",
"27 87 LINE",
"27 0 LINE"
);
},
{
closed = 1;
nodes = (
"385 560 LINE",
"388 560 LINE",
"388 276 LINE",
"294 276 LINE"
);
}
);
width = 832;
}
);
leftKerningGroup = A;
note = AE;
unicode = 00C6;
},
{
glyphname = AEacute;
lastChange = "2015-11-24 05:27:21 +0000";
layers = (
{
layerId = "5F179057-6D0F-420F-80EA-7F467AAFD28D";
name = Regular;
paths = (
{
closed = 1;
nodes = (
"277 0 LINE",
"277 87 LINE",
"231 87 LINE",
"270 197 LINE",
"388 197 LINE",
"388 126 LINE SMOOTH",
"388 99 OFFCURVE",
"384 87 OFFCURVE",
"356 87 CURVE SMOOTH",
"341 87 LINE",
"341 0 LINE",
"805 0 LINE",
"805 143 LINE",
"685 143 LINE",
"685 125 LINE SMOOTH",
"685 99 OFFCURVE",
"673 87 OFFCURVE",
"646 87 CURVE SMOOTH",
"520 87 LINE",
"520 280 LINE",
"664 280 LINE",
"664 368 LINE",
"520 368 LINE",
"520 560 LINE",
"618 560 LINE SMOOTH",
"663 560 OFFCURVE",
"685 558 OFFCURVE",
"685 522 CURVE SMOOTH",
"685 505 LINE",
"805 505 LINE",
"805 647 LINE",
"304 647 LINE",
"111 123 LINE SMOOTH",
"100 94 OFFCURVE",
"87 87 OFFCURVE",
"56 87 CURVE SMOOTH",
"27 87 LINE",
"27 0 LINE"
);
},
{
closed = 1;
nodes = (
"385 560 LINE",
"388 560 LINE",
"388 276 LINE",
"294 276 LINE"
);
},
{
closed = 1;
nodes = (
"507 699 LINE",
"620 879 LINE",
"472 879 LINE",
"395 699 LINE"
);
}
);
width = 832;
}
);
leftKerningGroup = A;
note = AEacute;
unicode = 01FC;
},
{
glyphname = B;
lastChange = "2015-11-24 05:27:20 +0000";
layers = (
{
layerId = "5F179057-6D0F-420F-80EA-7F467AAFD28D";
name = Regular;
paths = (
{
closed = 1;
nodes = (
"393 0 LINE SMOOTH",
"504 0 OFFCURVE",
"572 75 OFFCURVE",
"572 181 CURVE SMOOTH",
"572 256 OFFCURVE",
"536 304 OFFCURVE",
"471 329 CURVE",
"530 357 OFFCURVE",
"561 412 OFFCURVE",
"561 473 CURVE SMOOTH",
"561 586 OFFCURVE",
"494 647 OFFCURVE",
"381 647 CURVE SMOOTH",
"27 647 LINE",
"27 560 LINE",
"55 560 LINE SMOOTH",
"83 560 OFFCURVE",
"93 548 OFFCURVE",
"93 523 CURVE SMOOTH",
"93 126 LINE SMOOTH",
"93 99 OFFCURVE",
"83 87 OFFCURVE",
"55 87 CURVE SMOOTH",
"27 87 LINE",
"27 0 LINE"
);
},
{
closed = 1;
nodes = (
"224 280 LINE",
"340 280 LINE SMOOTH",
"402 280 OFFCURVE",
"442 256 OFFCURVE",
"442 185 CURVE SMOOTH",
"442 118 OFFCURVE",
"404 87 OFFCURVE",
"352 87 CURVE SMOOTH",
"224 87 LINE"
);
},
{
closed = 1;
nodes = (
"224 560 LINE",
"338 560 LINE SMOOTH",
"402 560 OFFCURVE",
"431 527 OFFCURVE",
"431 466 CURVE SMOOTH",
"431 402 OFFCURVE",
"391 370 OFFCURVE",
"335 370 CURVE SMOOTH",
"224 370 LINE"
);
}
);
width = 599;
}
);
note = B;
unicode = 0042;
},
{
glyphname = C;
lastChange = "2015-11-24 05:27:11 +0000";
layers = (
{
layerId = "5F179057-6D0F-420F-80EA-7F467AAFD28D";
name = Regular;
paths = (
{
closed = 1;
nodes = (
"454 -15 OFFCURVE",
"510 -2 OFFCURVE",
"576 42 CURVE",
"529 116 LINE",
"478 87 OFFCURVE",
"432 74 OFFCURVE",
"371 74 CURVE SMOOTH",
"233 74 OFFCURVE",
"157 164 OFFCURVE",
"157 319 CURVE SMOOTH",
"157 478 OFFCURVE",
"227 573 OFFCURVE",
"357 573 CURVE SMOOTH",
"396 573 OFFCURVE",
"418 569 OFFCURVE",
"443 558 CURVE",
"443 489 LINE",
"574 489 LINE",
"574 603 LINE",
"511 643 OFFCURVE",
"450 662 OFFCURVE",
"350 662 CURVE SMOOTH",
"127 662 OFFCURVE",
"27 514 OFFCURVE",
"27 319 CURVE SMOOTH",
"27 124 OFFCURVE",
"141 -15 OFFCURVE",
"365 -15 CURVE SMOOTH"
);
}
);
width = 603;
}
);
leftKerningGroup = C;
note = C;
unicode = 0043;
},
{
glyphname = Cacute;
lastChange = "2015-11-24 05:27:19 +0000";
layers = (
{
layerId = "5F179057-6D0F-420F-80EA-7F467AAFD28D";
name = Regular;
paths = (
{
closed = 1;
nodes = (
"454 -15 OFFCURVE",
"510 -2 OFFCURVE",
"576 42 CURVE",
"529 116 LINE",
"478 87 OFFCURVE",
"432 74 OFFCURVE",
"371 74 CURVE SMOOTH",
"233 74 OFFCURVE",
"157 164 OFFCURVE",
"157 319 CURVE SMOOTH",
"157 478 OFFCURVE",
"227 573 OFFCURVE",
"357 573 CURVE SMOOTH",
"396 573 OFFCURVE",
"418 569 OFFCURVE",
"443 558 CURVE",
"443 489 LINE",
"574 489 LINE",
"574 603 LINE",
"511 643 OFFCURVE",
"450 662 OFFCURVE",
"350 662 CURVE SMOOTH",
"127 662 OFFCURVE",
"27 514 OFFCURVE",
"27 319 CURVE SMOOTH",
"27 124 OFFCURVE",
"141 -15 OFFCURVE",
"365 -15 CURVE SMOOTH"
);
},
{
closed = 1;
nodes = (
"409 699 LINE",
"522 879 LINE",
"374 879 LINE",
"297 699 LINE"
);
}
);
width = 603;
}
);
leftKerningGroup = C;
note = Cacute;
unicode = 0106;
},
{
glyphname = Ccaron;
lastChange = "2015-11-24 05:27:20 +0000";
layers = (
{
layerId = "5F179057-6D0F-420F-80EA-7F467AAFD28D";
name = Regular;
paths = (
{
closed = 1;
nodes = (
"454 -15 OFFCURVE",
"510 -2 OFFCURVE",
"576 42 CURVE",
"529 116 LINE",
"478 87 OFFCURVE",
"432 74 OFFCURVE",
"371 74 CURVE SMOOTH",
"233 74 OFFCURVE",
"157 164 OFFCURVE",
"157 319 CURVE SMOOTH",
"157 478 OFFCURVE",
"227 573 OFFCURVE",
"357 573 CURVE SMOOTH",
"396 573 OFFCURVE",
"418 569 OFFCURVE",
"443 558 CURVE",
"443 489 LINE",
"574 489 LINE",
"574 603 LINE",
"511 643 OFFCURVE",
"450 662 OFFCURVE",
"350 662 CURVE SMOOTH",
"127 662 OFFCURVE",
"27 514 OFFCURVE",
"27 319 CURVE SMOOTH",
"27 124 OFFCURVE",
"141 -15 OFFCURVE",
"365 -15 CURVE SMOOTH"
);
},
{
closed = 1;
nodes = (
"407 700 LINE",
"537 893 LINE",
"416 893 LINE",
"346 773 LINE",
"276 893 LINE",
"156 893 LINE",
"287 700 LINE"
);
}
);
width = 603;
}
);
leftKerningGroup = C;
note = Ccaron;
unicode = 010C;
},
{
glyphname = Ccedilla;
lastChange = "2015-11-24 05:27:11 +0000";
layers = (
{
layerId = "5F179057-6D0F-420F-80EA-7F467AAFD28D";
name = Regular;
paths = (
{
closed = 1;
nodes = (
"434 -228 OFFCURVE",
"479 -192 OFFCURVE",
"479 -130 CURVE SMOOTH",
"479 -82 OFFCURVE",
"456 -53 OFFCURVE",
"400 -43 CURVE",
"405 -14 LINE",
"494 -5 OFFCURVE",
"515 2 OFFCURVE",
"576 42 CURVE",
"529 116 LINE",
"478 87 OFFCURVE",
"432 74 OFFCURVE",
"371 74 CURVE SMOOTH",
"233 74 OFFCURVE",
"157 164 OFFCURVE",
"157 319 CURVE SMOOTH",
"157 478 OFFCURVE",
"227 573 OFFCURVE",
"357 573 CURVE SMOOTH",
"396 573 OFFCURVE",
"418 569 OFFCURVE",
"443 558 CURVE",
"443 489 LINE",
"574 489 LINE",
"574 603 LINE",
"511 643 OFFCURVE",
"450 662 OFFCURVE",
"350 662 CURVE SMOOTH",
"127 662 OFFCURVE",
"27 514 OFFCURVE",
"27 319 CURVE SMOOTH",
"27 148.46 OFFCURVE",
"114.195 20.752 OFFCURVE",
"285.908 -8.603 CURVE",
"275 -80 LINE",
"351 -80 OFFCURVE",
"367 -95 OFFCURVE",
"367 -125 CURVE SMOOTH",
"367 -144 OFFCURVE",
"353 -155 OFFCURVE",
"319 -155 CURVE SMOOTH",
"297 -155 OFFCURVE",
"269 -150 OFFCURVE",
"247 -140 CURVE",
"247 -213 LINE",
"274 -224 OFFCURVE",
"300 -228 OFFCURVE",
"333 -228 CURVE SMOOTH"
);
}
);
width = 603;
}
);
leftKerningGroup = C;
note = Ccedilla;
unicode = 00C7;
},
{
glyphname = Ccircumflex;
lastChange = "2015-11-24 05:27:18 +0000";
layers = (
{
layerId = "5F179057-6D0F-420F-80EA-7F467AAFD28D";
name = Regular;
paths = (
{
closed = 1;
nodes = (
"454 -15 OFFCURVE",
"510 -2 OFFCURVE",
"576 42 CURVE",
"529 116 LINE",
"478 87 OFFCURVE",
"432 74 OFFCURVE",
"371 74 CURVE SMOOTH",
"233 74 OFFCURVE",
"157 164 OFFCURVE",
"157 319 CURVE SMOOTH",
"157 478 OFFCURVE",
"227 573 OFFCURVE",
"357 573 CURVE SMOOTH",
"396 573 OFFCURVE",
"418 569 OFFCURVE",
"443 558 CURVE",
"443 489 LINE",
"574 489 LINE",
"574 603 LINE",
"511 643 OFFCURVE",
"450 662 OFFCURVE",
"350 662 CURVE SMOOTH",
"127 662 OFFCURVE",
"27 514 OFFCURVE",
"27 319 CURVE SMOOTH",
"27 124 OFFCURVE",
"141 -15 OFFCURVE",
"365 -15 CURVE SMOOTH"
);
},
{
closed = 1;
nodes = (
"282 700 LINE",
"352 820 LINE",
"422 700 LINE",
"543 700 LINE",
"413 893 LINE",
"293 893 LINE",
"162 700 LINE"
);
}
);
width = 603;
}
);
leftKerningGroup = C;
note = Ccircumflex;
unicode = 0108;
},
{
glyphname = Cdotaccent;
lastChange = "2015-11-24 05:27:19 +0000";
layers = (
{
layerId = "5F179057-6D0F-420F-80EA-7F467AAFD28D";
name = Regular;
paths = (
{
closed = 1;
nodes = (
"454 -15 OFFCURVE",
"510 -2 OFFCURVE",
"576 42 CURVE",
"529 116 LINE",
"478 87 OFFCURVE",
"432 74 OFFCURVE",
"371 74 CURVE SMOOTH",
"233 74 OFFCURVE",
"157 164 OFFCURVE",
"157 319 CURVE SMOOTH",
"157 478 OFFCURVE",
"227 573 OFFCURVE",
"357 573 CURVE SMOOTH",
"396 573 OFFCURVE",
"418 569 OFFCURVE",
"443 558 CURVE",
"443 489 LINE",
"574 489 LINE",
"574 603 LINE",
"511 643 OFFCURVE",
"450 662 OFFCURVE",
"350 662 CURVE SMOOTH",
"127 662 OFFCURVE",
"27 514 OFFCURVE",
"27 319 CURVE SMOOTH",
"27 124 OFFCURVE",
"141 -15 OFFCURVE",
"365 -15 CURVE SMOOTH"
);
},
{
closed = 1;
nodes = (
"395 719 LINE",
"395 828 LINE",
"291 828 LINE",
"291 719 LINE"
);
}
);
width = 603;
}
);
leftKerningGroup = C;
note = Cdotaccent;
unicode = 010A;
},
{
glyphname = D;
lastChange = "2015-11-24 05:27:19 +0000";
layers = (
{
layerId = "5F179057-6D0F-420F-80EA-7F467AAFD28D";
name = Regular;
paths = (
{
closed = 1;
nodes = (
"327 0 LINE SMOOTH",
"515 0 OFFCURVE",
"604 137 OFFCURVE",
"604 321 CURVE SMOOTH",
"604 525 OFFCURVE",
"518 647 OFFCURVE",
"327 647 CURVE SMOOTH",
"27 647 LINE",
"27 560 LINE",
"53 560 LINE SMOOTH",
"81 560 OFFCURVE",
"92 548 OFFCURVE",
"92 523 CURVE SMOOTH",
"92 126 LINE SMOOTH",
"92 99 OFFCURVE",
"81 87 OFFCURVE",
"53 87 CURVE SMOOTH",
"27 87 LINE",
"27 0 LINE"
);
},
{
closed = 1;
nodes = (
"220 560 LINE",
"308 560 LINE SMOOTH",
"433 560 OFFCURVE",
"475 476 OFFCURVE",
"475 321 CURVE SMOOTH",
"475 170 OFFCURVE",
"432 87 OFFCURVE",
"308 87 CURVE SMOOTH",
"220 87 LINE"
);
}
);
width = 631;
}
);
note = D;
rightKerningGroup = D;
unicode = 0044;
},
{
glyphname = Eth;
lastChange = "2015-11-24 05:27:18 +0000";
layers = (
{
layerId = "5F179057-6D0F-420F-80EA-7F467AAFD28D";
name = Regular;
paths = (
{
closed = 1;
nodes = (
"327 0 LINE SMOOTH",
"515 0 OFFCURVE",
"604 137 OFFCURVE",
"604 321 CURVE SMOOTH",
"604 525 OFFCURVE",
"518 647 OFFCURVE",
"327 647 CURVE SMOOTH",
"27 647 LINE",
"27 560 LINE",
"53 560 LINE SMOOTH",
"81 560 OFFCURVE",
"92 548 OFFCURVE",
"92 523 CURVE SMOOTH",
"92 367 LINE",
"27 367 LINE",
"27 278 LINE",
"92 278 LINE",
"92 126 LINE SMOOTH",
"92 99 OFFCURVE",
"81 87 OFFCURVE",
"53 87 CURVE SMOOTH",
"27 87 LINE",
"27 0 LINE"
);
},
{
closed = 1;
nodes = (
"220 278 LINE",
"346 278 LINE",
"346 367 LINE",
"220 367 LINE",
"220 560 LINE",
"308 560 LINE SMOOTH",
"433 560 OFFCURVE",
"475 476 OFFCURVE",
"475 321 CURVE SMOOTH",
"475 170 OFFCURVE",
"432 87 OFFCURVE",
"308 87 CURVE SMOOTH",
"220 87 LINE"
);
}
);
width = 631;
}
);
note = Eth;
rightKerningGroup = D;
unicode = 00D0;
},
{
glyphname = Dcaron;
lastChange = "2015-11-24 05:27:19 +0000";
layers = (
{
layerId = "5F179057-6D0F-420F-80EA-7F467AAFD28D";
name = Regular;
paths = (
{
closed = 1;
nodes = (
"327 0 LINE SMOOTH",
"515 0 OFFCURVE",
"604 137 OFFCURVE",
"604 321 CURVE SMOOTH",
"604 525 OFFCURVE",
"518 647 OFFCURVE",
"327 647 CURVE SMOOTH",
"27 647 LINE",
"27 560 LINE",
"53 560 LINE SMOOTH",
"81 560 OFFCURVE",
"92 548 OFFCURVE",
"92 523 CURVE SMOOTH",
"92 126 LINE SMOOTH",
"92 99 OFFCURVE",
"81 87 OFFCURVE",
"53 87 CURVE SMOOTH",
"27 87 LINE",
"27 0 LINE"
);
},
{
closed = 1;
nodes = (
"220 560 LINE",
"308 560 LINE SMOOTH",
"433 560 OFFCURVE",
"475 476 OFFCURVE",
"475 321 CURVE SMOOTH",
"475 170 OFFCURVE",
"432 87 OFFCURVE",
"308 87 CURVE SMOOTH",
"220 87 LINE"
);
},
{
closed = 1;
nodes = (
"351 700 LINE",
"481 893 LINE",
"360 893 LINE",
"290 773 LINE",
"220 893 LINE",
"100 893 LINE",
"231 700 LINE"
);
}
);
width = 631;
}
);
note = Dcaron;
rightKerningGroup = D;
unicode = 010E;
},
{
glyphname = Dcroat;
lastChange = "2015-11-24 05:27:18 +0000";
layers = (
{
layerId = "5F179057-6D0F-420F-80EA-7F467AAFD28D";
name = Regular;
paths = (
{
closed = 1;
nodes = (
"327 0 LINE SMOOTH",
"515 0 OFFCURVE",
"604 137 OFFCURVE",
"604 321 CURVE SMOOTH",
"604 525 OFFCURVE",
"518 647 OFFCURVE",
"327 647 CURVE SMOOTH",
"27 647 LINE",
"27 560 LINE",
"53 560 LINE SMOOTH",
"81 560 OFFCURVE",
"92 548 OFFCURVE",
"92 523 CURVE SMOOTH",
"92 367 LINE",
"27 367 LINE",
"27 278 LINE",
"92 278 LINE",
"92 126 LINE SMOOTH",
"92 99 OFFCURVE",
"81 87 OFFCURVE",
"53 87 CURVE SMOOTH",
"27 87 LINE",
"27 0 LINE"
);
},
{
closed = 1;
nodes = (
"220 278 LINE",
"346 278 LINE",
"346 367 LINE",
"220 367 LINE",
"220 560 LINE",
"308 560 LINE SMOOTH",
"433 560 OFFCURVE",
"475 476 OFFCURVE",
"475 321 CURVE SMOOTH",
"475 170 OFFCURVE",
"432 87 OFFCURVE",
"308 87 CURVE SMOOTH",
"220 87 LINE"
);
}
);
width = 631;
}
);
note = Dcroat;
rightKerningGroup = D;
unicode = 0110;
},
{
glyphname = Ddotbelow;
lastChange = "2015-11-24 05:27:18 +0000";
layers = (
{
layerId = "5F179057-6D0F-420F-80EA-7F467AAFD28D";
name = Regular;
paths = (
{
closed = 1;
nodes = (
"327 0 LINE SMOOTH",
"515 0 OFFCURVE",
"604 137 OFFCURVE",
"604 321 CURVE SMOOTH",
"604 525 OFFCURVE",
"518 647 OFFCURVE",
"327 647 CURVE SMOOTH",
"27 647 LINE",
"27 560 LINE",
"53 560 LINE SMOOTH",
"81 560 OFFCURVE",
"92 548 OFFCURVE",
"92 523 CURVE SMOOTH",
"92 126 LINE SMOOTH",
"92 99 OFFCURVE",
"81 87 OFFCURVE",
"53 87 CURVE SMOOTH",
"27 87 LINE",
"27 0 LINE"
);
},
{
closed = 1;
nodes = (
"314 -171 LINE",
"314 -61 LINE",
"210 -61 LINE",
"210 -171 LINE"
);
},
{
closed = 1;
nodes = (
"220 560 LINE",
"308 560 LINE SMOOTH",
"433 560 OFFCURVE",
"475 476 OFFCURVE",
"475 321 CURVE SMOOTH",
"475 170 OFFCURVE",
"432 87 OFFCURVE",
"308 87 CURVE SMOOTH",
"220 87 LINE"
);
}
);
width = 631;
}
);
note = Ddotbelow;
rightKerningGroup = D;
unicode = 1E0C;
},
{
glyphname = Dlinebelow;
lastChange = "2015-11-24 05:27:21 +0000";
layers = (
{
layerId = "5F179057-6D0F-420F-80EA-7F467AAFD28D";
name = Regular;
paths = (
{
closed = 1;
nodes = (
"327 0 LINE SMOOTH",
"515 0 OFFCURVE",
"604 137 OFFCURVE",
"604 321 CURVE SMOOTH",
"604 525 OFFCURVE",
"518 647 OFFCURVE",
"327 647 CURVE SMOOTH",
"27 647 LINE",
"27 560 LINE",
"53 560 LINE SMOOTH",
"81 560 OFFCURVE",
"92 548 OFFCURVE",
"92 523 CURVE SMOOTH",
"92 126 LINE SMOOTH",
"92 99 OFFCURVE",
"81 87 OFFCURVE",
"53 87 CURVE SMOOTH",
"27 87 LINE",
"27 0 LINE"
);
},
{
closed = 1;
nodes = (
"414 -138 LINE",
"414 -57 LINE",
"115 -57 LINE",
"115 -138 LINE"
);
},
{
closed = 1;
nodes = (
"220 560 LINE",
"308 560 LINE SMOOTH",
"433 560 OFFCURVE",
"475 476 OFFCURVE",
"475 321 CURVE SMOOTH",
"475 170 OFFCURVE",
"432 87 OFFCURVE",
"308 87 CURVE SMOOTH",
"220 87 LINE"
);
}
);
width = 631;
}
);
note = Dlinebelow;
rightKerningGroup = D;
unicode = 1E0E;
},
{
glyphname = E;
lastChange = "2015-11-24 05:27:11 +0000";
layers = (
{
layerId = "5F179057-6D0F-420F-80EA-7F467AAFD28D";
name = Regular;
paths = (
{
closed = 1;
nodes = (
"519 0 LINE",
"519 143 LINE",
"399 143 LINE",
"399 125 LINE SMOOTH",
"399 99 OFFCURVE",
"387 87 OFFCURVE",
"360 87 CURVE SMOOTH",
"224 87 LINE",
"224 280 LINE",
"378 280 LINE",
"378 368 LINE",
"224 368 LINE",
"224 560 LINE",
"360 560 LINE SMOOTH",
"387 560 OFFCURVE",
"399 548 OFFCURVE",
"399 523 CURVE SMOOTH",
"399 505 LINE",
"519 505 LINE",
"519 647 LINE",
"27 647 LINE",
"27 560 LINE",
"53 560 LINE SMOOTH",
"81 560 OFFCURVE",
"92 548 OFFCURVE",
"92 523 CURVE SMOOTH",
"92 126 LINE SMOOTH",
"92 99 OFFCURVE",
"81 87 OFFCURVE",
"53 87 CURVE SMOOTH",
"27 87 LINE",
"27 0 LINE"
);
}
);
width = 546;
}
);
note = E;
unicode = 0045;
},
{
glyphname = Eacute;
lastChange = "2015-11-24 05:27:19 +0000";
layers = (
{
layerId = "5F179057-6D0F-420F-80EA-7F467AAFD28D";
name = Regular;
paths = (
{
closed = 1;
nodes = (
"519 0 LINE",
"519 143 LINE",
"399 143 LINE",
"399 125 LINE SMOOTH",
"399 99 OFFCURVE",
"387 87 OFFCURVE",
"360 87 CURVE SMOOTH",
"224 87 LINE",
"224 280 LINE",
"378 280 LINE",
"378 368 LINE",
"224 368 LINE",
"224 560 LINE",
"360 560 LINE SMOOTH",
"387 560 OFFCURVE",
"399 548 OFFCURVE",
"399 523 CURVE SMOOTH",
"399 505 LINE",
"519 505 LINE",
"519 647 LINE",
"27 647 LINE",
"27 560 LINE",
"53 560 LINE SMOOTH",
"81 560 OFFCURVE",
"92 548 OFFCURVE",
"92 523 CURVE SMOOTH",
"92 126 LINE SMOOTH",
"92 99 OFFCURVE",
"81 87 OFFCURVE",
"53 87 CURVE SMOOTH",
"27 87 LINE",
"27 0 LINE"
);
},
{
closed = 1;
nodes = (
"302 699 LINE",
"415 879 LINE",
"267 879 LINE",
"190 699 LINE"
);
}
);
width = 546;
}
);
note = Eacute;
unicode = 00C9;
},
{
glyphname = Ebreve;
lastChange = "2015-11-24 05:27:21 +0000";
layers = (
{
layerId = "5F179057-6D0F-420F-80EA-7F467AAFD28D";
name = Regular;
paths = (
{
closed = 1;
nodes = (
"519 0 LINE",
"519 143 LINE",
"399 143 LINE",
"399 125 LINE SMOOTH",
"399 99 OFFCURVE",
"387 87 OFFCURVE",
"360 87 CURVE SMOOTH",
"224 87 LINE",
"224 280 LINE",
"378 280 LINE",
"378 368 LINE",
"224 368 LINE",
"224 560 LINE",
"360 560 LINE SMOOTH",
"387 560 OFFCURVE",
"399 548 OFFCURVE",
"399 523 CURVE SMOOTH",
"399 505 LINE",
"519 505 LINE",
"519 647 LINE",
"27 647 LINE",
"27 560 LINE",
"53 560 LINE SMOOTH",
"81 560 OFFCURVE",
"92 548 OFFCURVE",
"92 523 CURVE SMOOTH",
"92 126 LINE SMOOTH",
"92 99 OFFCURVE",
"81 87 OFFCURVE",
"53 87 CURVE SMOOTH",
"27 87 LINE",
"27 0 LINE"
);
},
{
closed = 1;
nodes = (
"386 699 OFFCURVE",
"449 759 OFFCURVE",
"449 849 CURVE",
"340 849 LINE",
"340 806 OFFCURVE",
"322 780 OFFCURVE",
"280 780 CURVE SMOOTH",
"241 780 OFFCURVE",
"220 806 OFFCURVE",
"220 849 CURVE",
"111 849 LINE",
"111 759 OFFCURVE",
"174 699 OFFCURVE",
"280 699 CURVE SMOOTH"
);
}
);
width = 546;
}
);
note = Ebreve;
unicode = 0114;
},
{
glyphname = Ecaron;
lastChange = "2015-11-24 05:27:21 +0000";
layers = (
{
layerId = "5F179057-6D0F-420F-80EA-7F467AAFD28D";
name = Regular;
paths = (
{
closed = 1;
nodes = (
"519 0 LINE",
"519 143 LINE",
"399 143 LINE",
"399 125 LINE SMOOTH",
"399 99 OFFCURVE",
"387 87 OFFCURVE",
"360 87 CURVE SMOOTH",
"224 87 LINE",
"224 280 LINE",
"378 280 LINE",
"378 368 LINE",
"224 368 LINE",
"224 560 LINE",
"360 560 LINE SMOOTH",
"387 560 OFFCURVE",
"399 548 OFFCURVE",
"399 523 CURVE SMOOTH",
"399 505 LINE",
"519 505 LINE",
"519 647 LINE",
"27 647 LINE",
"27 560 LINE",
"53 560 LINE SMOOTH",
"81 560 OFFCURVE",
"92 548 OFFCURVE",
"92 523 CURVE SMOOTH",
"92 126 LINE SMOOTH",
"92 99 OFFCURVE",
"81 87 OFFCURVE",
"53 87 CURVE SMOOTH",
"27 87 LINE",
"27 0 LINE"
);
},
{
closed = 1;
nodes = (
"337 700 LINE",
"467 893 LINE",
"346 893 LINE",
"276 773 LINE",
"206 893 LINE",
"86 893 LINE",
"217 700 LINE"
);
}
);
width = 546;
}
);
note = Ecaron;
unicode = 011A;
},
{
glyphname = Ecircumflex;
lastChange = "2015-11-24 05:27:21 +0000";
layers = (
{
layerId = "5F179057-6D0F-420F-80EA-7F467AAFD28D";
name = Regular;
paths = (
{
closed = 1;
nodes = (
"519 0 LINE",
"519 143 LINE",
"399 143 LINE",
"399 125 LINE SMOOTH",
"399 99 OFFCURVE",
"387 87 OFFCURVE",
"360 87 CURVE SMOOTH",
"224 87 LINE",
"224 280 LINE",
"378 280 LINE",
"378 368 LINE",
"224 368 LINE",
"224 560 LINE",
"360 560 LINE SMOOTH",
"387 560 OFFCURVE",
"399 548 OFFCURVE",
"399 523 CURVE SMOOTH",
"399 505 LINE",
"519 505 LINE",
"519 647 LINE",
"27 647 LINE",
"27 560 LINE",
"53 560 LINE SMOOTH",
"81 560 OFFCURVE",
"92 548 OFFCURVE",
"92 523 CURVE SMOOTH",
"92 126 LINE SMOOTH",
"92 99 OFFCURVE",
"81 87 OFFCURVE",
"53 87 CURVE SMOOTH",
"27 87 LINE",
"27 0 LINE"
);
},
{
closed = 1;
nodes = (
"197 700 LINE",
"267 820 LINE",
"337 700 LINE",
"458 700 LINE",
"328 893 LINE",
"208 893 LINE",
"77 700 LINE"
);
}
);
width = 546;
}
);
note = Ecircumflex;
unicode = 00CA;
},
{
glyphname = Ecircumflexacute;
lastChange = "2015-11-24 05:27:19 +0000";
layers = (
{
layerId = "5F179057-6D0F-420F-80EA-7F467AAFD28D";
name = Regular;
paths = (
{
closed = 1;
nodes = (
"519 0 LINE",
"519 143 LINE",
"399 143 LINE",
"399 125 LINE SMOOTH",
"399 99 OFFCURVE",
"387 87 OFFCURVE",
"360 87 CURVE SMOOTH",
"224 87 LINE",
"224 280 LINE",
"378 280 LINE",
"378 368 LINE",
"224 368 LINE",
"224 560 LINE",
"360 560 LINE SMOOTH",
"387 560 OFFCURVE",
"399 548 OFFCURVE",
"399 523 CURVE SMOOTH",
"399 505 LINE",
"519 505 LINE",
"519 647 LINE",
"27 647 LINE",
"27 560 LINE",
"53 560 LINE SMOOTH",
"81 560 OFFCURVE",
"92 548 OFFCURVE",
"92 523 CURVE SMOOTH",
"92 126 LINE SMOOTH",
"92 99 OFFCURVE",
"81 87 OFFCURVE",
"53 87 CURVE SMOOTH",
"27 87 LINE",
"27 0 LINE"
);
},
{
closed = 1;
nodes = (
"210 700 LINE",
"268 778 LINE",
"323 700 LINE",
"436 700 LINE",
"326 838 LINE",
"210 838 LINE",
"99 700 LINE"
);
},
{
closed = 1;
nodes = (
"465 811 LINE",
"565 944 LINE",
"434 944 LINE",
"371 811 LINE"
);
}
);
width = 546;
}
);
note = Ecircumflexacute;
unicode = 1EBE;
},
{
glyphname = Ecircumflexdotbelow;
lastChange = "2015-11-24 05:27:22 +0000";
layers = (
{
layerId = "5F179057-6D0F-420F-80EA-7F467AAFD28D";
name = Regular;
paths = (
{
closed = 1;
nodes = (
"519 0 LINE",
"519 143 LINE",
"399 143 LINE",
"399 125 LINE SMOOTH",
"399 99 OFFCURVE",
"387 87 OFFCURVE",
"360 87 CURVE SMOOTH",
"224 87 LINE",
"224 280 LINE",
"378 280 LINE",
"378 368 LINE",
"224 368 LINE",
"224 560 LINE",
"360 560 LINE SMOOTH",
"387 560 OFFCURVE",
"399 548 OFFCURVE",
"399 523 CURVE SMOOTH",
"399 505 LINE",
"519 505 LINE",
"519 647 LINE",
"27 647 LINE",
"27 560 LINE",
"53 560 LINE SMOOTH",
"81 560 OFFCURVE",
"92 548 OFFCURVE",
"92 523 CURVE SMOOTH",
"92 126 LINE SMOOTH",
"92 99 OFFCURVE",
"81 87 OFFCURVE",
"53 87 CURVE SMOOTH",
"27 87 LINE",
"27 0 LINE"
);
},
{
closed = 1;
nodes = (
"323 -171 LINE",
"323 -61 LINE",
"219 -61 LINE",
"219 -171 LINE"
);
},
{
closed = 1;
nodes = (
"199 700 LINE",
"269 820 LINE",
"339 700 LINE",
"460 700 LINE",
"330 893 LINE",
"210 893 LINE",
"79 700 LINE"
);
}
);
width = 546;
}
);
note = Ecircumflexdotbelow;
unicode = 1EC6;
},
{
glyphname = Ecircumflexgrave;
lastChange = "2015-11-24 05:27:22 +0000";
layers = (
{
layerId = "5F179057-6D0F-420F-80EA-7F467AAFD28D";
name = Regular;
paths = (
{
closed = 1;
nodes = (
"519 0 LINE",
"519 143 LINE",
"399 143 LINE",
"399 125 LINE SMOOTH",
"399 99 OFFCURVE",
"387 87 OFFCURVE",
"360 87 CURVE SMOOTH",
"224 87 LINE",
"224 280 LINE",
"378 280 LINE",
"378 368 LINE",
"224 368 LINE",
"224 560 LINE",
"360 560 LINE SMOOTH",
"387 560 OFFCURVE",
"399 548 OFFCURVE",
"399 523 CURVE SMOOTH",
"399 505 LINE",
"519 505 LINE",
"519 647 LINE",
"27 647 LINE",
"27 560 LINE",
"53 560 LINE SMOOTH",
"81 560 OFFCURVE",
"92 548 OFFCURVE",
"92 523 CURVE SMOOTH",
"92 126 LINE SMOOTH",
"92 99 OFFCURVE",
"81 87 OFFCURVE",
"53 87 CURVE SMOOTH",
"27 87 LINE",
"27 0 LINE"
);
},
{
closed = 1;
nodes = (
"151 811 LINE",
"88 944 LINE",
"-43 944 LINE",
"57 811 LINE"
);
},
{
closed = 1;
nodes = (
"222 700 LINE",
"277 778 LINE",
"335 700 LINE",
"446 700 LINE",
"335 838 LINE",
"219 838 LINE",
"109 700 LINE"
);
}
);
width = 546;
}
);
note = Ecircumflexgrave;
unicode = 1EC0;
},
{
glyphname = Ecircumflexhookabove;
lastChange = "2015-11-24 05:27:18 +0000";
layers = (
{
layerId = "5F179057-6D0F-420F-80EA-7F467AAFD28D";
name = Regular;
paths = (
{
closed = 1;
nodes = (
"519 0 LINE",
"519 143 LINE",
"399 143 LINE",
"399 125 LINE SMOOTH",
"399 99 OFFCURVE",
"387 87 OFFCURVE",
"360 87 CURVE SMOOTH",
"224 87 LINE",
"224 280 LINE",
"378 280 LINE",
"378 368 LINE",
"224 368 LINE",
"224 560 LINE",
"360 560 LINE SMOOTH",
"387 560 OFFCURVE",
"399 548 OFFCURVE",
"399 523 CURVE SMOOTH",
"399 505 LINE",
"519 505 LINE",
"519 647 LINE",
"27 647 LINE",
"27 560 LINE",
"53 560 LINE SMOOTH",
"81 560 OFFCURVE",
"92 548 OFFCURVE",
"92 523 CURVE SMOOTH",
"92 126 LINE SMOOTH",
"92 99 OFFCURVE",
"81 87 OFFCURVE",
"53 87 CURVE SMOOTH",
"27 87 LINE",
"27 0 LINE"
);
},
{
closed = 1;
nodes = (
"210 700 LINE",
"265 778 LINE",
"323 700 LINE",
"434 700 LINE",
"324 838 LINE",
"207 838 LINE",
"98 700 LINE"
);
},
{
closed = 1;
nodes = (
"431 832 LINE",
"431 855 LINE",
"468 864 OFFCURVE",
"484 884 OFFCURVE",
"484 917 CURVE SMOOTH",
"484 963 OFFCURVE",
"454 986 OFFCURVE",
"392 986 CURVE SMOOTH",
"366 986 OFFCURVE",
"342 982 OFFCURVE",
"328 977 CURVE",
"328 921 LINE",
"338 925 OFFCURVE",
"352 929 OFFCURVE",
"365 929 CURVE SMOOTH",
"384 929 OFFCURVE",
"397 921 OFFCURVE",
"397 905 CURVE SMOOTH",
"397 885 OFFCURVE",
"386 875 OFFCURVE",
"347 875 CURVE",
"347 832 LINE"
);
}
);
width = 546;
}
);
note = Ecircumflexhookabove;
unicode = 1EC2;
},
{
glyphname = Ecircumflextilde;
lastChange = "2015-11-24 05:27:21 +0000";
layers = (
{
layerId = "5F179057-6D0F-420F-80EA-7F467AAFD28D";
name = Regular;
paths = (
{
closed = 1;
nodes = (
"519 0 LINE",
"519 143 LINE",
"399 143 LINE",
"399 125 LINE SMOOTH",
"399 99 OFFCURVE",
"387 87 OFFCURVE",
"360 87 CURVE SMOOTH",
"224 87 LINE",
"224 280 LINE",
"378 280 LINE",
"378 368 LINE",
"224 368 LINE",
"224 560 LINE",
"360 560 LINE SMOOTH",
"387 560 OFFCURVE",
"399 548 OFFCURVE",
"399 523 CURVE SMOOTH",
"399 505 LINE",
"519 505 LINE",
"519 647 LINE",
"27 647 LINE",
"27 560 LINE",
"53 560 LINE SMOOTH",
"81 560 OFFCURVE",
"92 548 OFFCURVE",
"92 523 CURVE SMOOTH",
"92 126 LINE SMOOTH",
"92 99 OFFCURVE",
"81 87 OFFCURVE",
"53 87 CURVE SMOOTH",
"27 87 LINE",
"27 0 LINE"
);
},
{
closed = 1;
nodes = (
"216 700 LINE",
"271 778 LINE",
"329 700 LINE",
"440 700 LINE",
"330 838 LINE",
"213 838 LINE",
"104 700 LINE"
);
},
{
closed = 1;
nodes = (
"401 854 OFFCURVE",
"424 886 OFFCURVE",
"424 954 CURVE",
"359 954 LINE",
"359 931 OFFCURVE",
"350 919 OFFCURVE",
"328 919 CURVE SMOOTH",
"294 919 OFFCURVE",
"260 957 OFFCURVE",
"207 957 CURVE SMOOTH",
"148 957 OFFCURVE",
"120 927 OFFCURVE",
"120 857 CURVE",
"185 857 LINE",
"185 881 OFFCURVE",
"194 893 OFFCURVE",
"216 893 CURVE SMOOTH",
"249 893 OFFCURVE",
"293 854 OFFCURVE",
"341 854 CURVE SMOOTH"
);
}
);
width = 546;
}
);
note = Ecircumflextilde;
unicode = 1EC4;
},
{
glyphname = Edieresis;
lastChange = "2015-11-24 05:27:19 +0000";
layers = (
{
layerId = "5F179057-6D0F-420F-80EA-7F467AAFD28D";
name = Regular;
paths = (
{
closed = 1;
nodes = (
"519 0 LINE",
"519 143 LINE",
"399 143 LINE",
"399 125 LINE SMOOTH",
"399 99 OFFCURVE",
"387 87 OFFCURVE",
"360 87 CURVE SMOOTH",
"224 87 LINE",
"224 280 LINE",
"378 280 LINE",
"378 368 LINE",
"224 368 LINE",
"224 560 LINE",
"360 560 LINE SMOOTH",
"387 560 OFFCURVE",
"399 548 OFFCURVE",
"399 523 CURVE SMOOTH",
"399 505 LINE",
"519 505 LINE",
"519 647 LINE",
"27 647 LINE",
"27 560 LINE",
"53 560 LINE SMOOTH",
"81 560 OFFCURVE",
"92 548 OFFCURVE",
"92 523 CURVE SMOOTH",
"92 126 LINE SMOOTH",
"92 99 OFFCURVE",
"81 87 OFFCURVE",
"53 87 CURVE SMOOTH",
"27 87 LINE",
"27 0 LINE"
);
},
{
closed = 1;
nodes = (
"217 719 LINE",
"217 828 LINE",
"113 828 LINE",
"113 719 LINE"
);
},
{
closed = 1;
nodes = (
"443 719 LINE",
"443 828 LINE",
"338 828 LINE",
"338 719 LINE"
);
}
);
width = 546;
}
);
note = Edieresis;
unicode = 00CB;
},
{
glyphname = Edotaccent;
lastChange = "2015-11-24 05:27:20 +0000";
layers = (
{
layerId = "5F179057-6D0F-420F-80EA-7F467AAFD28D";
name = Regular;
paths = (
{
closed = 1;
nodes = (
"519 0 LINE",
"519 143 LINE",
"399 143 LINE",
"399 125 LINE SMOOTH",
"399 99 OFFCURVE",
"387 87 OFFCURVE",
"360 87 CURVE SMOOTH",
"224 87 LINE",
"224 280 LINE",
"378 280 LINE",
"378 368 LINE",
"224 368 LINE",
"224 560 LINE",
"360 560 LINE SMOOTH",
"387 560 OFFCURVE",
"399 548 OFFCURVE",
"399 523 CURVE SMOOTH",
"399 505 LINE",
"519 505 LINE",
"519 647 LINE",
"27 647 LINE",
"27 560 LINE",
"53 560 LINE SMOOTH",
"81 560 OFFCURVE",
"92 548 OFFCURVE",
"92 523 CURVE SMOOTH",
"92 126 LINE SMOOTH",
"92 99 OFFCURVE",
"81 87 OFFCURVE",
"53 87 CURVE SMOOTH",
"27 87 LINE",
"27 0 LINE"
);
},
{
closed = 1;
nodes = (
"322 719 LINE",
"322 828 LINE",
"218 828 LINE",
"218 719 LINE"
);
}
);
width = 546;
}
);
note = Edotaccent;
unicode = 0116;
},
{
glyphname = Edotbelow;
lastChange = "2015-11-24 05:27:19 +0000";
layers = (
{
layerId = "5F179057-6D0F-420F-80EA-7F467AAFD28D";
name = Regular;
paths = (
{
closed = 1;
nodes = (
"519 0 LINE",
"519 143 LINE",
"399 143 LINE",
"399 125 LINE SMOOTH",
"399 99 OFFCURVE",
"387 87 OFFCURVE",
"360 87 CURVE SMOOTH",
"224 87 LINE",
"224 280 LINE",
"378 280 LINE",
"378 368 LINE",
"224 368 LINE",
"224 560 LINE",
"360 560 LINE SMOOTH",
"387 560 OFFCURVE",
"399 548 OFFCURVE",
"399 523 CURVE SMOOTH",
"399 505 LINE",
"519 505 LINE",
"519 647 LINE",
"27 647 LINE",
"27 560 LINE",
"53 560 LINE SMOOTH",
"81 560 OFFCURVE",
"92 548 OFFCURVE",
"92 523 CURVE SMOOTH",
"92 126 LINE SMOOTH",
"92 99 OFFCURVE",
"81 87 OFFCURVE",
"53 87 CURVE SMOOTH",
"27 87 LINE",
"27 0 LINE"
);
},
{
closed = 1;
nodes = (
"314 -171 LINE",
"314 -61 LINE",
"210 -61 LINE",
"210 -171 LINE"
);
}
);
width = 546;
}
);
note = Edotbelow;
unicode = 1EB8;
},
{
glyphname = Egrave;
lastChange = "2015-11-24 05:27:21 +0000";
layers = (
{
layerId = "5F179057-6D0F-420F-80EA-7F467AAFD28D";
name = Regular;
paths = (
{
closed = 1;
nodes = (
"519 0 LINE",
"519 143 LINE",
"399 143 LINE",
"399 125 LINE SMOOTH",
"399 99 OFFCURVE",
"387 87 OFFCURVE",
"360 87 CURVE SMOOTH",
"224 87 LINE",
"224 280 LINE",
"378 280 LINE",
"378 368 LINE",
"224 368 LINE",
"224 560 LINE",
"360 560 LINE SMOOTH",
"387 560 OFFCURVE",
"399 548 OFFCURVE",
"399 523 CURVE SMOOTH",
"399 505 LINE",
"519 505 LINE",
"519 647 LINE",
"27 647 LINE",
"27 560 LINE",
"53 560 LINE SMOOTH",
"81 560 OFFCURVE",
"92 548 OFFCURVE",
"92 523 CURVE SMOOTH",
"92 126 LINE SMOOTH",
"92 99 OFFCURVE",
"81 87 OFFCURVE",
"53 87 CURVE SMOOTH",
"27 87 LINE",
"27 0 LINE"
);
},
{
closed = 1;
nodes = (
"355 699 LINE",
"277 879 LINE",
"128 879 LINE",
"241 699 LINE"
);
}
);
width = 546;
}
);
note = Egrave;
unicode = 00C8;
},
{
glyphname = Ehookabove;
lastChange = "2015-11-24 05:27:19 +0000";
layers = (
{
layerId = "5F179057-6D0F-420F-80EA-7F467AAFD28D";
name = Regular;
paths = (
{
closed = 1;
nodes = (
"519 0 LINE",
"519 143 LINE",
"399 143 LINE",
"399 125 LINE SMOOTH",
"399 99 OFFCURVE",
"387 87 OFFCURVE",
"360 87 CURVE SMOOTH",
"224 87 LINE",
"224 280 LINE",
"378 280 LINE",
"378 368 LINE",
"224 368 LINE",
"224 560 LINE",
"360 560 LINE SMOOTH",
"387 560 OFFCURVE",
"399 548 OFFCURVE",
"399 523 CURVE SMOOTH",
"399 505 LINE",
"519 505 LINE",
"519 647 LINE",
"27 647 LINE",
"27 560 LINE",
"53 560 LINE SMOOTH",
"81 560 OFFCURVE",
"92 548 OFFCURVE",
"92 523 CURVE SMOOTH",
"92 126 LINE SMOOTH",
"92 99 OFFCURVE",
"81 87 OFFCURVE",
"53 87 CURVE SMOOTH",
"27 87 LINE",
"27 0 LINE"
);
},
{
closed = 1;
nodes = (
"319 700 LINE",
"319 741 LINE",
"361 754 OFFCURVE",
"381 780 OFFCURVE",
"381 822 CURVE SMOOTH",
"381 883 OFFCURVE",
"335 907 OFFCURVE",
"259 907 CURVE SMOOTH",
"225 907 OFFCURVE",
"196 902 OFFCURVE",
"178 895 CURVE",
"178 827 LINE",
"191 833 OFFCURVE",
"209 836 OFFCURVE",
"225 836 CURVE SMOOTH",
"257 836 OFFCURVE",
"269 827 OFFCURVE",
"269 804 CURVE SMOOTH",
"269 782 OFFCURVE",
"257 765 OFFCURVE",
"212 765 CURVE",
"212 700 LINE"
);
}
);
width = 546;
}
);
note = Ehookabove;
unicode = 1EBA;
},
{
glyphname = Emacron;
lastChange = "2015-11-24 05:27:18 +0000";
layers = (
{
layerId = "5F179057-6D0F-420F-80EA-7F467AAFD28D";
name = Regular;
paths = (
{
closed = 1;
nodes = (
"519 0 LINE",
"519 143 LINE",
"399 143 LINE",
"399 125 LINE SMOOTH",
"399 99 OFFCURVE",
"387 87 OFFCURVE",
"360 87 CURVE SMOOTH",
"224 87 LINE",
"224 280 LINE",
"378 280 LINE",
"378 368 LINE",
"224 368 LINE",
"224 560 LINE",
"360 560 LINE SMOOTH",
"387 560 OFFCURVE",
"399 548 OFFCURVE",
"399 523 CURVE SMOOTH",
"399 505 LINE",
"519 505 LINE",
"519 647 LINE",
"27 647 LINE",
"27 560 LINE",
"53 560 LINE SMOOTH",
"81 560 OFFCURVE",
"92 548 OFFCURVE",
"92 523 CURVE SMOOTH",
"92 126 LINE SMOOTH",
"92 99 OFFCURVE",
"81 87 OFFCURVE",
"53 87 CURVE SMOOTH",
"27 87 LINE",
"27 0 LINE"
);
},
{
closed = 1;
nodes = (
"431 720 LINE",
"431 801 LINE",
"132 801 LINE",
"132 720 LINE"
);
}
);
width = 546;
}
);
note = Emacron;
unicode = 0112;
},
{
glyphname = Eogonek;
lastChange = "2015-11-24 05:27:21 +0000";
layers = (
{
layerId = "5F179057-6D0F-420F-80EA-7F467AAFD28D";
name = Regular;
paths = (
{
closed = 1;
nodes = (
"519 0 LINE",
"519 143 LINE",
"399 143 LINE",
"399 125 LINE SMOOTH",
"399 99 OFFCURVE",
"387 87 OFFCURVE",
"360 87 CURVE SMOOTH",
"224 87 LINE",
"224 280 LINE",
"378 280 LINE",
"378 368 LINE",
"224 368 LINE",
"224 560 LINE",
"360 560 LINE SMOOTH",
"387 560 OFFCURVE",
"399 548 OFFCURVE",
"399 523 CURVE SMOOTH",
"399 505 LINE",
"519 505 LINE",
"519 647 LINE",
"27 647 LINE",
"27 560 LINE",
"53 560 LINE SMOOTH",
"81 560 OFFCURVE",
"92 548 OFFCURVE",
"92 523 CURVE SMOOTH",
"92 126 LINE SMOOTH",
"92 99 OFFCURVE",
"81 87 OFFCURVE",
"53 87 CURVE SMOOTH",
"27 87 LINE",
"27 0 LINE"
);
},
{
closed = 1;
nodes = (
"472 -213 OFFCURVE",
"498 -206 OFFCURVE",
"519 -191 CURVE",
"519 -117 LINE",
"506 -122 OFFCURVE",
"492 -125 OFFCURVE",
"480 -125 CURVE SMOOTH",
"457 -125 OFFCURVE",
"446 -110 OFFCURVE",
"446 -83 CURVE SMOOTH",
"446 -50 OFFCURVE",
"462 -26 OFFCURVE",
"495 0 CURVE",
"386 0 LINE",
"355 -26 OFFCURVE",
"334 -69 OFFCURVE",
"334 -113 CURVE SMOOTH",
"334 -184 OFFCURVE",
"382 -213 OFFCURVE",
"439 -213 CURVE SMOOTH"
);
}
);
width = 546;
}
);
note = Eogonek;
unicode = 0118;
},
{
glyphname = Etilde;
lastChange = "2015-11-24 05:27:18 +0000";
layers = (
{
layerId = "5F179057-6D0F-420F-80EA-7F467AAFD28D";
name = Regular;
paths = (
{
closed = 1;
nodes = (
"519 0 LINE",
"519 143 LINE",
"399 143 LINE",
"399 125 LINE SMOOTH",
"399 99 OFFCURVE",
"387 87 OFFCURVE",
"360 87 CURVE SMOOTH",
"224 87 LINE",
"224 280 LINE",
"378 280 LINE",
"378 368 LINE",
"224 368 LINE",
"224 560 LINE",
"360 560 LINE SMOOTH",
"387 560 OFFCURVE",
"399 548 OFFCURVE",
"399 523 CURVE SMOOTH",
"399 505 LINE",
"519 505 LINE",
"519 647 LINE",
"27 647 LINE",
"27 560 LINE",
"53 560 LINE SMOOTH",
"81 560 OFFCURVE",
"92 548 OFFCURVE",
"92 523 CURVE SMOOTH",
"92 126 LINE SMOOTH",
"92 99 OFFCURVE",
"81 87 OFFCURVE",
"53 87 CURVE SMOOTH",
"27 87 LINE",
"27 0 LINE"
);
},
{
closed = 1;
nodes = (
"170 700 LINE",
"170 737 OFFCURVE",
"186 750 OFFCURVE",
"215 750 CURVE SMOOTH",
"263 750 OFFCURVE",
"298 700 OFFCURVE",
"372 700 CURVE SMOOTH",
"452 700 OFFCURVE",
"486 746 OFFCURVE",
"486 853 CURVE",
"393 853 LINE",
"393 816 OFFCURVE",
"378 801 OFFCURVE",
"349 801 CURVE SMOOTH",
"302 801 OFFCURVE",
"267 853 OFFCURVE",
"194 853 CURVE SMOOTH",
"112 853 OFFCURVE",
"76 804 OFFCURVE",
"76 700 CURVE"
);
}
);
width = 546;
}
);
note = Etilde;
unicode = 1EBC;
},
{
glyphname = F;
lastChange = "2015-11-24 05:27:12 +0000";
layers = (
{
layerId = "5F179057-6D0F-420F-80EA-7F467AAFD28D";
name = Regular;
paths = (
{
closed = 1;
nodes = (
"288 0 LINE",
"288 87 LINE",
"261 87 LINE SMOOTH",
"235 87 OFFCURVE",
"224 99 OFFCURVE",
"224 124 CURVE SMOOTH",
"224 280 LINE",
"378 280 LINE",
"378 368 LINE",
"224 368 LINE",
"224 560 LINE",
"360 560 LINE SMOOTH",
"387 560 OFFCURVE",
"399 548 OFFCURVE",
"399 523 CURVE SMOOTH",
"399 505 LINE",
"519 505 LINE",
"519 647 LINE",
"27 647 LINE",
"27 560 LINE",
"53 560 LINE SMOOTH",
"81 560 OFFCURVE",
"92 548 OFFCURVE",
"92 523 CURVE SMOOTH",
"92 126 LINE SMOOTH",
"92 99 OFFCURVE",
"81 87 OFFCURVE",
"53 87 CURVE SMOOTH",
"27 87 LINE",
"27 0 LINE"
);
}
);
width = 546;
}
);
note = F;
unicode = 0046;
},
{
glyphname = G;
lastChange = "2015-11-24 05:27:12 +0000";
layers = (
{
layerId = "5F179057-6D0F-420F-80EA-7F467AAFD28D";
name = Regular;
paths = (
{
closed = 1;
nodes = (
"452 -15 OFFCURVE",
"530 5 OFFCURVE",
"598 52 CURVE",
"598 349 LINE",
"335 349 LINE",
"335 261 LINE",
"466 261 LINE",
"466 90 LINE",
"432 78 OFFCURVE",
"400 74 OFFCURVE",
"361 74 CURVE SMOOTH",
"231 74 OFFCURVE",
"157 164 OFFCURVE",
"157 319 CURVE SMOOTH",
"157 478 OFFCURVE",
"227 573 OFFCURVE",
"357 573 CURVE SMOOTH",
"396 573 OFFCURVE",
"418 569 OFFCURVE",
"443 558 CURVE",
"443 489 LINE",
"574 489 LINE",
"574 603 LINE",
"511 643 OFFCURVE",
"450 662 OFFCURVE",
"350 662 CURVE SMOOTH",
"127 662 OFFCURVE",
"27 514 OFFCURVE",
"27 319 CURVE SMOOTH",
"27 124 OFFCURVE",
"141 -15 OFFCURVE",
"355 -15 CURVE SMOOTH"
);
}
);
width = 625;
}
);
leftKerningGroup = C;
note = G;
unicode = 0047;
},
{
glyphname = Gbreve;
lastChange = "2015-11-24 05:27:18 +0000";
layers = (
{
layerId = "5F179057-6D0F-420F-80EA-7F467AAFD28D";
name = Regular;
paths = (
{
closed = 1;
nodes = (
"452 -15 OFFCURVE",
"530 5 OFFCURVE",
"598 52 CURVE",
"598 349 LINE",
"335 349 LINE",
"335 261 LINE",
"466 261 LINE",
"466 90 LINE",
"432 78 OFFCURVE",
"400 74 OFFCURVE",
"361 74 CURVE SMOOTH",
"231 74 OFFCURVE",
"157 164 OFFCURVE",
"157 319 CURVE SMOOTH",
"157 478 OFFCURVE",
"227 573 OFFCURVE",
"357 573 CURVE SMOOTH",
"396 573 OFFCURVE",
"418 569 OFFCURVE",
"443 558 CURVE",
"443 489 LINE",
"574 489 LINE",
"574 603 LINE",
"511 643 OFFCURVE",
"450 662 OFFCURVE",
"350 662 CURVE SMOOTH",
"127 662 OFFCURVE",
"27 514 OFFCURVE",
"27 319 CURVE SMOOTH",
"27 124 OFFCURVE",
"141 -15 OFFCURVE",
"355 -15 CURVE SMOOTH"
);
},
{
closed = 1;
nodes = (
"448 699 OFFCURVE",
"511 759 OFFCURVE",
"511 849 CURVE",
"402 849 LINE",
"402 806 OFFCURVE",
"384 780 OFFCURVE",
"342 780 CURVE SMOOTH",
"303 780 OFFCURVE",
"282 806 OFFCURVE",
"282 849 CURVE",
"173 849 LINE",
"173 759 OFFCURVE",
"236 699 OFFCURVE",
"342 699 CURVE SMOOTH"
);
}
);
width = 625;
}
);
leftKerningGroup = C;
note = Gbreve;
unicode = 011E;
},
{
glyphname = Gcaron;
lastChange = "2015-11-24 05:27:17 +0000";
layers = (
{
layerId = "5F179057-6D0F-420F-80EA-7F467AAFD28D";
name = Regular;
paths = (
{
closed = 1;
nodes = (
"452 -15 OFFCURVE",
"530 5 OFFCURVE",
"598 52 CURVE",
"598 349 LINE",
"335 349 LINE",
"335 261 LINE",
"466 261 LINE",
"466 90 LINE",
"432 78 OFFCURVE",
"400 74 OFFCURVE",
"361 74 CURVE SMOOTH",
"231 74 OFFCURVE",
"157 164 OFFCURVE",
"157 319 CURVE SMOOTH",
"157 478 OFFCURVE",
"227 573 OFFCURVE",
"357 573 CURVE SMOOTH",
"396 573 OFFCURVE",
"418 569 OFFCURVE",
"443 558 CURVE",
"443 489 LINE",
"574 489 LINE",
"574 603 LINE",
"511 643 OFFCURVE",
"450 662 OFFCURVE",
"350 662 CURVE SMOOTH",
"127 662 OFFCURVE",
"27 514 OFFCURVE",
"27 319 CURVE SMOOTH",
"27 124 OFFCURVE",
"141 -15 OFFCURVE",
"355 -15 CURVE SMOOTH"
);
},
{
closed = 1;
nodes = (
"401 700 LINE",
"531 893 LINE",
"410 893 LINE",
"340 773 LINE",
"270 893 LINE",
"150 893 LINE",
"281 700 LINE"
);
}
);
width = 625;
}
);
leftKerningGroup = C;
note = Gcaron;
unicode = 01E6;
},
{
glyphname = Gcircumflex;
lastChange = "2015-11-24 05:27:19 +0000";
layers = (
{
layerId = "5F179057-6D0F-420F-80EA-7F467AAFD28D";
name = Regular;
paths = (
{
closed = 1;
nodes = (
"452 -15 OFFCURVE",
"530 5 OFFCURVE",
"598 52 CURVE",
"598 349 LINE",
"335 349 LINE",
"335 261 LINE",
"466 261 LINE",
"466 90 LINE",
"432 78 OFFCURVE",
"400 74 OFFCURVE",
"361 74 CURVE SMOOTH",
"231 74 OFFCURVE",
"157 164 OFFCURVE",
"157 319 CURVE SMOOTH",
"157 478 OFFCURVE",
"227 573 OFFCURVE",
"357 573 CURVE SMOOTH",
"396 573 OFFCURVE",
"418 569 OFFCURVE",
"443 558 CURVE",
"443 489 LINE",
"574 489 LINE",
"574 603 LINE",
"511 643 OFFCURVE",
"450 662 OFFCURVE",
"350 662 CURVE SMOOTH",
"127 662 OFFCURVE",
"27 514 OFFCURVE",
"27 319 CURVE SMOOTH",
"27 124 OFFCURVE",
"141 -15 OFFCURVE",
"355 -15 CURVE SMOOTH"
);
},
{
closed = 1;
nodes = (
"267 700 LINE",
"337 820 LINE",
"407 700 LINE",
"528 700 LINE",
"398 893 LINE",
"278 893 LINE",
"147 700 LINE"
);
}
);
width = 625;
}
);
leftKerningGroup = C;
note = Gcircumflex;
unicode = 011C;
},
{
glyphname = Gcommaaccent;
lastChange = "2015-11-24 05:27:21 +0000";
layers = (
{
layerId = "5F179057-6D0F-420F-80EA-7F467AAFD28D";
name = Regular;
paths = (
{
closed = 1;
nodes = (
"452 -15 OFFCURVE",
"530 5 OFFCURVE",
"598 52 CURVE",
"598 349 LINE",
"335 349 LINE",
"335 261 LINE",
"466 261 LINE",
"466 90 LINE",
"432 78 OFFCURVE",
"400 74 OFFCURVE",
"361 74 CURVE SMOOTH",
"231 74 OFFCURVE",
"157 164 OFFCURVE",
"157 319 CURVE SMOOTH",
"157 478 OFFCURVE",
"227 573 OFFCURVE",
"357 573 CURVE SMOOTH",
"396 573 OFFCURVE",
"418 569 OFFCURVE",
"443 558 CURVE",
"443 489 LINE",
"574 489 LINE",
"574 603 LINE",
"511 643 OFFCURVE",
"450 662 OFFCURVE",
"350 662 CURVE SMOOTH",
"127 662 OFFCURVE",
"27 514 OFFCURVE",
"27 319 CURVE SMOOTH",
"27 124 OFFCURVE",
"141 -15 OFFCURVE",
"355 -15 CURVE SMOOTH"
);
},
{
closed = 1;
nodes = (
"381 -263 LINE",
"446 -49 LINE",
"305 -49 LINE",
"273 -263 LINE"
);
}
);
width = 625;
}
);
leftKerningGroup = C;
note = Gcommaaccent;
unicode = 0122;
},
{
glyphname = Gdotaccent;
lastChange = "2015-11-24 05:27:22 +0000";
layers = (
{
layerId = "5F179057-6D0F-420F-80EA-7F467AAFD28D";
name = Regular;
paths = (
{
closed = 1;
nodes = (
"452 -15 OFFCURVE",
"530 5 OFFCURVE",
"598 52 CURVE",
"598 349 LINE",
"335 349 LINE",
"335 261 LINE",
"466 261 LINE",
"466 90 LINE",
"432 78 OFFCURVE",
"400 74 OFFCURVE",
"361 74 CURVE SMOOTH",
"231 74 OFFCURVE",
"157 164 OFFCURVE",
"157 319 CURVE SMOOTH",
"157 478 OFFCURVE",
"227 573 OFFCURVE",
"357 573 CURVE SMOOTH",
"396 573 OFFCURVE",
"418 569 OFFCURVE",
"443 558 CURVE",
"443 489 LINE",
"574 489 LINE",
"574 603 LINE",
"511 643 OFFCURVE",
"450 662 OFFCURVE",
"350 662 CURVE SMOOTH",
"127 662 OFFCURVE",
"27 514 OFFCURVE",
"27 319 CURVE SMOOTH",
"27 124 OFFCURVE",
"141 -15 OFFCURVE",
"355 -15 CURVE SMOOTH"
);
},
{
closed = 1;
nodes = (
"397 711 LINE",
"397 820 LINE",
"293 820 LINE",
"293 711 LINE"
);
}
);
width = 625;
}
);
leftKerningGroup = C;
note = Gdotaccent;
unicode = 0120;
},
{
glyphname = Gmacron;
lastChange = "2015-11-24 05:27:18 +0000";
layers = (
{
layerId = "5F179057-6D0F-420F-80EA-7F467AAFD28D";
name = Regular;
paths = (
{
closed = 1;
nodes = (
"452 -15 OFFCURVE",
"530 5 OFFCURVE",
"598 52 CURVE",
"598 349 LINE",
"335 349 LINE",
"335 261 LINE",
"466 261 LINE",
"466 90 LINE",
"432 78 OFFCURVE",
"400 74 OFFCURVE",
"361 74 CURVE SMOOTH",
"231 74 OFFCURVE",
"157 164 OFFCURVE",
"157 319 CURVE SMOOTH",
"157 478 OFFCURVE",
"227 573 OFFCURVE",
"357 573 CURVE SMOOTH",
"396 573 OFFCURVE",
"418 569 OFFCURVE",
"443 558 CURVE",
"443 489 LINE",
"574 489 LINE",
"574 603 LINE",
"511 643 OFFCURVE",
"450 662 OFFCURVE",
"350 662 CURVE SMOOTH",
"127 662 OFFCURVE",
"27 514 OFFCURVE",
"27 319 CURVE SMOOTH",
"27 124 OFFCURVE",
"141 -15 OFFCURVE",
"355 -15 CURVE SMOOTH"
);
},
{
closed = 1;
nodes = (
"497 720 LINE",
"497 801 LINE",
"198 801 LINE",
"198 720 LINE"
);
}
);
width = 625;
}
);
leftKerningGroup = C;
note = Gmacron;
unicode = 1E20;
},
{
glyphname = H;
lastChange = "2015-11-24 05:27:12 +0000";
layers = (
{
layerId = "5F179057-6D0F-420F-80EA-7F467AAFD28D";
name = Regular;
paths = (
{
closed = 1;
nodes = (
"281 0 LINE",
"281 87 LINE",
"261 87 LINE SMOOTH",
"235 87 OFFCURVE",
"224 99 OFFCURVE",
"224 126 CURVE SMOOTH",
"224 281 LINE",
"461 281 LINE",
"461 126 LINE SMOOTH",
"461 99 OFFCURVE",
"450 87 OFFCURVE",
"424 87 CURVE SMOOTH",
"403 87 LINE",
"403 0 LINE",
"658 0 LINE",
"658 87 LINE",
"632 87 LINE SMOOTH",
"604 87 OFFCURVE",
"593 99 OFFCURVE",
"593 126 CURVE SMOOTH",
"593 523 LINE SMOOTH",
"593 548 OFFCURVE",
"604 560 OFFCURVE",
"632 560 CURVE SMOOTH",
"658 560 LINE",
"658 647 LINE",
"403 647 LINE",
"403 560 LINE",
"424 560 LINE SMOOTH",
"450 560 OFFCURVE",
"461 549 OFFCURVE",
"461 522 CURVE SMOOTH",
"461 368 LINE",
"224 368 LINE",
"224 523 LINE SMOOTH",
"224 548 OFFCURVE",
"234 560 OFFCURVE",
"261 560 CURVE SMOOTH",
"281 560 LINE",
"281 647 LINE",
"27 647 LINE",
"27 560 LINE",
"53 560 LINE SMOOTH",
"81 560 OFFCURVE",
"91 548 OFFCURVE",
"91 523 CURVE SMOOTH",
"91 126 LINE SMOOTH",
"91 99 OFFCURVE",
"81 87 OFFCURVE",
"53 87 CURVE SMOOTH",
"27 87 LINE",
"27 0 LINE"
);
}
);
width = 685;
}
);
note = H;
unicode = 0048;
},
{
glyphname = Hbar;
lastChange = "2015-11-24 05:27:17 +0000";
layers = (
{
layerId = "5F179057-6D0F-420F-80EA-7F467AAFD28D";
name = Regular;
paths = (
{
closed = 1;
nodes = (
"281 0 LINE",
"281 87 LINE",
"261 87 LINE SMOOTH",
"235 87 OFFCURVE",
"224 99 OFFCURVE",
"224 126 CURVE SMOOTH",
"224 281 LINE",
"461 281 LINE",
"461 126 LINE SMOOTH",
"461 99 OFFCURVE",
"450 87 OFFCURVE",
"424 87 CURVE SMOOTH",
"403 87 LINE",
"403 0 LINE",
"658 0 LINE",
"658 87 LINE",
"632 87 LINE SMOOTH",
"604 87 OFFCURVE",
"593 99 OFFCURVE",
"593 126 CURVE SMOOTH",
"593 416 LINE",
"658 416 LINE",
"658 496 LINE",
"593 496 LINE",
"593 523 LINE SMOOTH",
"593 548 OFFCURVE",
"604 560 OFFCURVE",
"632 560 CURVE SMOOTH",
"658 560 LINE",
"658 647 LINE",
"403 647 LINE",
"403 560 LINE",
"424 560 LINE SMOOTH",
"450 560 OFFCURVE",
"461 549 OFFCURVE",
"461 522 CURVE SMOOTH",
"461 496 LINE",
"224 496 LINE",
"224 523 LINE SMOOTH",
"224 548 OFFCURVE",
"234 560 OFFCURVE",
"261 560 CURVE SMOOTH",
"281 560 LINE",
"281 647 LINE",
"27 647 LINE",
"27 560 LINE",
"53 560 LINE SMOOTH",
"81 560 OFFCURVE",
"91 548 OFFCURVE",
"91 523 CURVE SMOOTH",
"91 496 LINE",
"27 496 LINE",
"27 416 LINE",
"91 416 LINE",
"91 126 LINE SMOOTH",
"91 99 OFFCURVE",
"81 87 OFFCURVE",
"53 87 CURVE SMOOTH",
"27 87 LINE",
"27 0 LINE"
);
},
{
closed = 1;
nodes = (
"224 416 LINE",
"461 416 LINE",
"461 368 LINE",
"224 368 LINE"
);
}
);
width = 685;
}
);
note = Hbar;
unicode = 0126;
},
{
glyphname = Hbrevebelow;
lastChange = "2015-11-24 05:27:18 +0000";
layers = (
{
layerId = "5F179057-6D0F-420F-80EA-7F467AAFD28D";
name = Regular;
paths = (
{
closed = 1;
nodes = (
"281 0 LINE",
"281 87 LINE",
"261 87 LINE SMOOTH",
"235 87 OFFCURVE",
"224 99 OFFCURVE",
"224 126 CURVE SMOOTH",
"224 281 LINE",
"461 281 LINE",
"461 126 LINE SMOOTH",
"461 99 OFFCURVE",
"450 87 OFFCURVE",
"424 87 CURVE SMOOTH",
"403 87 LINE",
"403 0 LINE",
"658 0 LINE",
"658 87 LINE",
"632 87 LINE SMOOTH",
"604 87 OFFCURVE",
"593 99 OFFCURVE",
"593 126 CURVE SMOOTH",
"593 523 LINE SMOOTH",
"593 548 OFFCURVE",
"604 560 OFFCURVE",
"632 560 CURVE SMOOTH",
"658 560 LINE",
"658 647 LINE",
"403 647 LINE",
"403 560 LINE",
"424 560 LINE SMOOTH",
"450 560 OFFCURVE",
"461 549 OFFCURVE",
"461 522 CURVE SMOOTH",
"461 368 LINE",
"224 368 LINE",
"224 523 LINE SMOOTH",
"224 548 OFFCURVE",
"234 560 OFFCURVE",
"261 560 CURVE SMOOTH",
"281 560 LINE",
"281 647 LINE",
"27 647 LINE",
"27 560 LINE",
"53 560 LINE SMOOTH",
"81 560 OFFCURVE",
"91 548 OFFCURVE",
"91 523 CURVE SMOOTH",
"91 126 LINE SMOOTH",
"91 99 OFFCURVE",
"81 87 OFFCURVE",
"53 87 CURVE SMOOTH",
"27 87 LINE",
"27 0 LINE"
);
},
{
closed = 1;
nodes = (
"448 -198 OFFCURVE",
"511 -138 OFFCURVE",
"511 -47 CURVE",
"402 -47 LINE",
"402 -91 OFFCURVE",
"384 -116 OFFCURVE",
"342 -116 CURVE SMOOTH",
"303 -116 OFFCURVE",
"282 -91 OFFCURVE",
"282 -47 CURVE",
"173 -47 LINE",
"173 -138 OFFCURVE",
"236 -198 OFFCURVE",
"342 -198 CURVE SMOOTH"
);
}
);
width = 685;
}
);
note = Hbrevebelow;
unicode = 1E2A;
},
{
glyphname = Hcircumflex;
lastChange = "2015-11-24 05:27:18 +0000";
layers = (
{
layerId = "5F179057-6D0F-420F-80EA-7F467AAFD28D";
name = Regular;
paths = (
{
closed = 1;
nodes = (
"281 0 LINE",
"281 87 LINE",
"261 87 LINE SMOOTH",
"235 87 OFFCURVE",
"224 99 OFFCURVE",
"224 126 CURVE SMOOTH",
"224 281 LINE",
"461 281 LINE",
"461 126 LINE SMOOTH",
"461 99 OFFCURVE",
"450 87 OFFCURVE",
"424 87 CURVE SMOOTH",
"403 87 LINE",
"403 0 LINE",
"658 0 LINE",
"658 87 LINE",
"632 87 LINE SMOOTH",
"604 87 OFFCURVE",
"593 99 OFFCURVE",
"593 126 CURVE SMOOTH",
"593 523 LINE SMOOTH",
"593 548 OFFCURVE",
"604 560 OFFCURVE",
"632 560 CURVE SMOOTH",
"658 560 LINE",
"658 647 LINE",
"403 647 LINE",
"403 560 LINE",
"424 560 LINE SMOOTH",
"450 560 OFFCURVE",
"461 549 OFFCURVE",
"461 522 CURVE SMOOTH",
"461 368 LINE",
"224 368 LINE",
"224 523 LINE SMOOTH",
"224 548 OFFCURVE",
"234 560 OFFCURVE",
"261 560 CURVE SMOOTH",
"281 560 LINE",
"281 647 LINE",
"27 647 LINE",
"27 560 LINE",
"53 560 LINE SMOOTH",
"81 560 OFFCURVE",
"91 548 OFFCURVE",
"91 523 CURVE SMOOTH",
"91 126 LINE SMOOTH",
"91 99 OFFCURVE",
"81 87 OFFCURVE",
"53 87 CURVE SMOOTH",
"27 87 LINE",
"27 0 LINE"
);
},
{
closed = 1;
nodes = (
"272 700 LINE",
"342 820 LINE",
"412 700 LINE",
"533 700 LINE",
"403 893 LINE",
"283 893 LINE",
"152 700 LINE"
);
}
);
width = 685;
}
);
note = Hcircumflex;
unicode = 0124;
},
{
glyphname = Hdotbelow;
lastChange = "2015-11-24 05:27:20 +0000";
layers = (
{
layerId = "5F179057-6D0F-420F-80EA-7F467AAFD28D";
name = Regular;
paths = (
{
closed = 1;
nodes = (
"281 0 LINE",
"281 87 LINE",
"261 87 LINE SMOOTH",
"235 87 OFFCURVE",
"224 99 OFFCURVE",
"224 126 CURVE SMOOTH",
"224 281 LINE",
"461 281 LINE",
"461 126 LINE SMOOTH",
"461 99 OFFCURVE",
"450 87 OFFCURVE",
"424 87 CURVE SMOOTH",
"403 87 LINE",
"403 0 LINE",
"658 0 LINE",
"658 87 LINE",
"632 87 LINE SMOOTH",
"604 87 OFFCURVE",
"593 99 OFFCURVE",
"593 126 CURVE SMOOTH",
"593 523 LINE SMOOTH",
"593 548 OFFCURVE",
"604 560 OFFCURVE",
"632 560 CURVE SMOOTH",
"658 560 LINE",
"658 647 LINE",
"403 647 LINE",
"403 560 LINE",
"424 560 LINE SMOOTH",
"450 560 OFFCURVE",
"461 549 OFFCURVE",
"461 522 CURVE SMOOTH",
"461 368 LINE",
"224 368 LINE",
"224 523 LINE SMOOTH",
"224 548 OFFCURVE",
"234 560 OFFCURVE",
"261 560 CURVE SMOOTH",
"281 560 LINE",
"281 647 LINE",
"27 647 LINE",
"27 560 LINE",
"53 560 LINE SMOOTH",
"81 560 OFFCURVE",
"91 548 OFFCURVE",
"91 523 CURVE SMOOTH",
"91 126 LINE SMOOTH",
"91 99 OFFCURVE",
"81 87 OFFCURVE",
"53 87 CURVE SMOOTH",
"27 87 LINE",
"27 0 LINE"
);
},
{
closed = 1;
nodes = (
"394 -171 LINE",
"394 -61 LINE",
"290 -61 LINE",
"290 -171 LINE"
);
}
);
width = 685;
}
);
note = Hdotbelow;
unicode = 1E24;
},
{
glyphname = I;
lastChange = "2015-11-24 05:27:12 +0000";
layers = (
{
layerId = "5F179057-6D0F-420F-80EA-7F467AAFD28D";
name = Regular;
paths = (
{
closed = 1;
nodes = (
"286 0 LINE",
"286 87 LINE",
"260 87 LINE SMOOTH",
"233 87 OFFCURVE",
"223 99 OFFCURVE",
"223 124 CURVE SMOOTH",
"223 523 LINE SMOOTH",
"223 548 OFFCURVE",
"233 560 OFFCURVE",
"260 560 CURVE SMOOTH",
"286 560 LINE",
"286 647 LINE",
"27 647 LINE",
"27 560 LINE",
"53 560 LINE SMOOTH",
"81 560 OFFCURVE",
"92 548 OFFCURVE",
"92 523 CURVE SMOOTH",
"92 126 LINE SMOOTH",
"92 99 OFFCURVE",
"81 87 OFFCURVE",
"53 87 CURVE SMOOTH",
"27 87 LINE",
"27 0 LINE"
);
}
);
width = 313;
}
);
note = I;
unicode = 0049;
},
{
glyphname = IJ;
lastChange = "2015-11-24 05:27:17 +0000";
layers = (
{
layerId = "5F179057-6D0F-420F-80EA-7F467AAFD28D";
name = Regular;
paths = (
{
closed = 1;
nodes = (
"630 -15 OFFCURVE",
"701 60 OFFCURVE",
"701 184 CURVE SMOOTH",
"701 523 LINE SMOOTH",
"701 548 OFFCURVE",
"713 560 OFFCURVE",
"739 560 CURVE SMOOTH",
"766 560 LINE",
"766 647 LINE",
"504 647 LINE",
"504 560 LINE",
"531 560 LINE SMOOTH",
"558 560 OFFCURVE",
"569 548 OFFCURVE",
"569 523 CURVE SMOOTH",
"569 164 LINE SMOOTH",
"569 102 OFFCURVE",
"544 74 OFFCURVE",
"485 74 CURVE SMOOTH",
"450 74 OFFCURVE",
"424 83 OFFCURVE",
"405 103 CURVE",
"405 153 LINE",
"287 153 LINE",
"287 65 LINE",
"331 14 OFFCURVE",
"402 -15 OFFCURVE",
"493 -15 CURVE SMOOTH"
);
},
{
closed = 1;
nodes = (
"286 0 LINE",
"286 87 LINE",
"260 87 LINE SMOOTH",
"233 87 OFFCURVE",
"223 99 OFFCURVE",
"223 124 CURVE SMOOTH",
"223 523 LINE SMOOTH",
"223 548 OFFCURVE",
"233 560 OFFCURVE",
"260 560 CURVE SMOOTH",
"286 560 LINE",
"286 647 LINE",
"27 647 LINE",
"27 560 LINE",
"53 560 LINE SMOOTH",
"81 560 OFFCURVE",
"92 548 OFFCURVE",
"92 523 CURVE SMOOTH",
"92 126 LINE SMOOTH",
"92 99 OFFCURVE",
"81 87 OFFCURVE",
"53 87 CURVE SMOOTH",
"27 87 LINE",
"27 0 LINE"
);
}
);
width = 783;
}
);
note = IJ;
rightKerningGroup = J;
unicode = 0132;
},
{
glyphname = Iacute;
lastChange = "2015-11-24 05:27:21 +0000";
layers = (
{
layerId = "5F179057-6D0F-420F-80EA-7F467AAFD28D";
name = Regular;
paths = (
{
closed = 1;
nodes = (
"286 0 LINE",
"286 87 LINE",
"260 87 LINE SMOOTH",
"233 87 OFFCURVE",
"223 99 OFFCURVE",
"223 124 CURVE SMOOTH",
"223 523 LINE SMOOTH",
"223 548 OFFCURVE",
"233 560 OFFCURVE",
"260 560 CURVE SMOOTH",
"286 560 LINE",
"286 647 LINE",
"27 647 LINE",
"27 560 LINE",
"53 560 LINE SMOOTH",
"81 560 OFFCURVE",
"92 548 OFFCURVE",
"92 523 CURVE SMOOTH",
"92 126 LINE SMOOTH",
"92 99 OFFCURVE",
"81 87 OFFCURVE",
"53 87 CURVE SMOOTH",
"27 87 LINE",
"27 0 LINE"
);
},
{
closed = 1;
nodes = (
"200 699 LINE",
"313 879 LINE",
"165 879 LINE",
"88 699 LINE"
);
}
);
width = 313;
}
);
note = Iacute;
unicode = 00CD;
},
{
glyphname = Ibreve;
lastChange = "2015-11-24 05:27:19 +0000";
layers = (
{
layerId = "5F179057-6D0F-420F-80EA-7F467AAFD28D";
name = Regular;
paths = (
{
closed = 1;
nodes = (
"286 0 LINE",
"286 87 LINE",
"260 87 LINE SMOOTH",
"233 87 OFFCURVE",
"223 99 OFFCURVE",
"223 124 CURVE SMOOTH",
"223 523 LINE SMOOTH",
"223 548 OFFCURVE",
"233 560 OFFCURVE",
"260 560 CURVE SMOOTH",
"286 560 LINE",
"286 647 LINE",
"27 647 LINE",
"27 560 LINE",
"53 560 LINE SMOOTH",
"81 560 OFFCURVE",
"92 548 OFFCURVE",
"92 523 CURVE SMOOTH",
"92 126 LINE SMOOTH",
"92 99 OFFCURVE",
"81 87 OFFCURVE",
"53 87 CURVE SMOOTH",
"27 87 LINE",
"27 0 LINE"
);
},
{
closed = 1;
nodes = (
"262 700 OFFCURVE",
"325 760 OFFCURVE",
"325 850 CURVE",
"216 850 LINE",
"216 807 OFFCURVE",
"198 781 OFFCURVE",
"156 781 CURVE SMOOTH",
"117 781 OFFCURVE",
"96 807 OFFCURVE",
"96 850 CURVE",
"-13 850 LINE",
"-13 760 OFFCURVE",
"50 700 OFFCURVE",
"156 700 CURVE SMOOTH"
);
}
);
width = 313;
}
);
note = Ibreve;
unicode = 012C;
},
{
glyphname = Icaron;
lastChange = "2015-11-24 05:27:19 +0000";
layers = (
{
layerId = "5F179057-6D0F-420F-80EA-7F467AAFD28D";
name = Regular;
paths = (
{
closed = 1;
nodes = (
"286 0 LINE",
"286 87 LINE",
"260 87 LINE SMOOTH",
"233 87 OFFCURVE",
"223 99 OFFCURVE",
"223 124 CURVE SMOOTH",
"223 523 LINE SMOOTH",
"223 548 OFFCURVE",
"233 560 OFFCURVE",
"260 560 CURVE SMOOTH",
"286 560 LINE",
"286 647 LINE",
"27 647 LINE",
"27 560 LINE",
"53 560 LINE SMOOTH",
"81 560 OFFCURVE",
"92 548 OFFCURVE",
"92 523 CURVE SMOOTH",
"92 126 LINE SMOOTH",
"92 99 OFFCURVE",
"81 87 OFFCURVE",
"53 87 CURVE SMOOTH",
"27 87 LINE",
"27 0 LINE"
);
},
{
closed = 1;
nodes = (
"214 700 LINE",
"344 893 LINE",
"223 893 LINE",
"153 773 LINE",
"83 893 LINE",
"-37 893 LINE",
"94 700 LINE"
);
}
);
width = 313;
}
);
note = Icaron;
unicode = 01CF;
},
{
glyphname = Icircumflex;
lastChange = "2015-11-24 05:27:20 +0000";
layers = (
{
layerId = "5F179057-6D0F-420F-80EA-7F467AAFD28D";
name = Regular;
paths = (
{
closed = 1;
nodes = (
"286 0 LINE",
"286 87 LINE",
"260 87 LINE SMOOTH",
"233 87 OFFCURVE",
"223 99 OFFCURVE",
"223 124 CURVE SMOOTH",
"223 523 LINE SMOOTH",
"223 548 OFFCURVE",
"233 560 OFFCURVE",
"260 560 CURVE SMOOTH",
"286 560 LINE",
"286 647 LINE",
"27 647 LINE",
"27 560 LINE",
"53 560 LINE SMOOTH",
"81 560 OFFCURVE",
"92 548 OFFCURVE",
"92 523 CURVE SMOOTH",
"92 126 LINE SMOOTH",
"92 99 OFFCURVE",
"81 87 OFFCURVE",
"53 87 CURVE SMOOTH",
"27 87 LINE",
"27 0 LINE"
);
},
{
closed = 1;
nodes = (
"86 699 LINE",
"156 819 LINE",
"226 699 LINE",
"347 699 LINE",
"217 892 LINE",
"97 892 LINE",
"-34 699 LINE"
);
}
);
width = 313;
}
);
note = Icircumflex;
unicode = 00CE;
},
{
glyphname = Idieresis;
lastChange = "2015-11-24 05:27:19 +0000";
layers = (
{
layerId = "5F179057-6D0F-420F-80EA-7F467AAFD28D";
name = Regular;
paths = (
{
closed = 1;
nodes = (
"286 0 LINE",
"286 87 LINE",
"260 87 LINE SMOOTH",
"233 87 OFFCURVE",
"223 99 OFFCURVE",
"223 124 CURVE SMOOTH",
"223 523 LINE SMOOTH",
"223 548 OFFCURVE",
"233 560 OFFCURVE",
"260 560 CURVE SMOOTH",
"286 560 LINE",
"286 647 LINE",
"27 647 LINE",
"27 560 LINE",
"53 560 LINE SMOOTH",
"81 560 OFFCURVE",
"92 548 OFFCURVE",
"92 523 CURVE SMOOTH",
"92 126 LINE SMOOTH",
"92 99 OFFCURVE",
"81 87 OFFCURVE",
"53 87 CURVE SMOOTH",
"27 87 LINE",
"27 0 LINE"
);
},
{
closed = 1;
nodes = (
"95 719 LINE",
"95 828 LINE",
"-9 828 LINE",
"-9 719 LINE"
);
},
{
closed = 1;
nodes = (
"321 719 LINE",
"321 828 LINE",
"216 828 LINE",
"216 719 LINE"
);
}
);
width = 313;
}
);
note = Idieresis;
unicode = 00CF;
},
{
glyphname = Idotaccent;
lastChange = "2015-11-24 05:27:21 +0000";
layers = (
{
layerId = "5F179057-6D0F-420F-80EA-7F467AAFD28D";
name = Regular;
paths = (
{
closed = 1;
nodes = (
"286 0 LINE",
"286 87 LINE",
"260 87 LINE SMOOTH",
"233 87 OFFCURVE",
"223 99 OFFCURVE",
"223 124 CURVE SMOOTH",
"223 523 LINE SMOOTH",
"223 548 OFFCURVE",
"233 560 OFFCURVE",
"260 560 CURVE SMOOTH",
"286 560 LINE",
"286 647 LINE",
"27 647 LINE",
"27 560 LINE",
"53 560 LINE SMOOTH",
"81 560 OFFCURVE",
"92 548 OFFCURVE",
"92 523 CURVE SMOOTH",
"92 126 LINE SMOOTH",
"92 99 OFFCURVE",
"81 87 OFFCURVE",
"53 87 CURVE SMOOTH",
"27 87 LINE",
"27 0 LINE"
);
},
{
closed = 1;
nodes = (
"208 719 LINE",
"208 828 LINE",
"104 828 LINE",
"104 719 LINE"
);
}
);
width = 313;
}
);
note = Idotaccent;
unicode = 0130;
},
{
glyphname = Idotbelow;
lastChange = "2015-11-24 05:27:20 +0000";
layers = (
{
layerId = "5F179057-6D0F-420F-80EA-7F467AAFD28D";
name = Regular;
paths = (
{
closed = 1;
nodes = (
"286 0 LINE",
"286 87 LINE",
"260 87 LINE SMOOTH",
"233 87 OFFCURVE",
"223 99 OFFCURVE",
"223 124 CURVE SMOOTH",
"223 523 LINE SMOOTH",
"223 548 OFFCURVE",
"233 560 OFFCURVE",
"260 560 CURVE SMOOTH",
"286 560 LINE",
"286 647 LINE",
"27 647 LINE",
"27 560 LINE",
"53 560 LINE SMOOTH",
"81 560 OFFCURVE",
"92 548 OFFCURVE",
"92 523 CURVE SMOOTH",
"92 126 LINE SMOOTH",
"92 99 OFFCURVE",
"81 87 OFFCURVE",
"53 87 CURVE SMOOTH",
"27 87 LINE",
"27 0 LINE"
);
},
{
closed = 1;
nodes = (
"208 -171 LINE",
"208 -61 LINE",
"104 -61 LINE",
"104 -171 LINE"
);
}
);
width = 313;
}
);
note = Idotbelow;
unicode = 1ECA;
},
{
glyphname = Igrave;
lastChange = "2015-11-24 05:27:21 +0000";
layers = (
{
layerId = "5F179057-6D0F-420F-80EA-7F467AAFD28D";
name = Regular;
paths = (
{
closed = 1;
nodes = (
"286 0 LINE",
"286 87 LINE",
"260 87 LINE SMOOTH",
"233 87 OFFCURVE",
"223 99 OFFCURVE",
"223 124 CURVE SMOOTH",
"223 523 LINE SMOOTH",
"223 548 OFFCURVE",
"233 560 OFFCURVE",
"260 560 CURVE SMOOTH",
"286 560 LINE",
"286 647 LINE",
"27 647 LINE",
"27 560 LINE",
"53 560 LINE SMOOTH",
"81 560 OFFCURVE",
"92 548 OFFCURVE",
"92 523 CURVE SMOOTH",
"92 126 LINE SMOOTH",
"92 99 OFFCURVE",
"81 87 OFFCURVE",
"53 87 CURVE SMOOTH",
"27 87 LINE",
"27 0 LINE"
);
},
{
closed = 1;
nodes = (
"220 699 LINE",
"142 879 LINE",
"-7 879 LINE",
"106 699 LINE"
);
}
);
width = 313;
}
);
note = Igrave;
unicode = 00CC;
},
{
glyphname = Ihookabove;
lastChange = "2015-11-24 05:27:22 +0000";
layers = (
{
layerId = "5F179057-6D0F-420F-80EA-7F467AAFD28D";
name = Regular;
paths = (
{
closed = 1;
nodes = (
"286 0 LINE",
"286 87 LINE",
"260 87 LINE SMOOTH",
"233 87 OFFCURVE",
"223 99 OFFCURVE",
"223 124 CURVE SMOOTH",
"223 523 LINE SMOOTH",
"223 548 OFFCURVE",
"233 560 OFFCURVE",
"260 560 CURVE SMOOTH",
"286 560 LINE",
"286 647 LINE",
"27 647 LINE",
"27 560 LINE",
"53 560 LINE SMOOTH",
"81 560 OFFCURVE",
"92 548 OFFCURVE",
"92 523 CURVE SMOOTH",
"92 126 LINE SMOOTH",
"92 99 OFFCURVE",
"81 87 OFFCURVE",
"53 87 CURVE SMOOTH",
"27 87 LINE",
"27 0 LINE"
);
},
{
closed = 1;
nodes = (
"205 699 LINE",
"205 740 LINE",
"247 753 OFFCURVE",
"267 779 OFFCURVE",
"267 821 CURVE SMOOTH",
"267 882 OFFCURVE",
"221 906 OFFCURVE",
"145 906 CURVE SMOOTH",
"111 906 OFFCURVE",
"82 901 OFFCURVE",
"64 894 CURVE",
"64 826 LINE",
"77 832 OFFCURVE",
"95 835 OFFCURVE",
"111 835 CURVE SMOOTH",
"143 835 OFFCURVE",
"155 826 OFFCURVE",
"155 803 CURVE SMOOTH",
"155 781 OFFCURVE",
"143 764 OFFCURVE",
"98 764 CURVE",
"98 699 LINE"
);
}
);
width = 313;
}
);
note = Ihookabove;
unicode = 1EC8;
},
{
glyphname = Imacron;
lastChange = "2015-11-24 05:27:18 +0000";
layers = (
{
layerId = "5F179057-6D0F-420F-80EA-7F467AAFD28D";
name = Regular;
paths = (
{
closed = 1;
nodes = (
"286 0 LINE",
"286 87 LINE",
"260 87 LINE SMOOTH",
"233 87 OFFCURVE",
"223 99 OFFCURVE",
"223 124 CURVE SMOOTH",
"223 523 LINE SMOOTH",
"223 548 OFFCURVE",
"233 560 OFFCURVE",
"260 560 CURVE SMOOTH",
"286 560 LINE",
"286 647 LINE",
"27 647 LINE",
"27 560 LINE",
"53 560 LINE SMOOTH",
"81 560 OFFCURVE",
"92 548 OFFCURVE",
"92 523 CURVE SMOOTH",
"92 126 LINE SMOOTH",
"92 99 OFFCURVE",
"81 87 OFFCURVE",
"53 87 CURVE SMOOTH",
"27 87 LINE",
"27 0 LINE"
);
},
{
closed = 1;
nodes = (
"306 720 LINE",
"306 801 LINE",
"7 801 LINE",
"7 720 LINE"
);
}
);
width = 313;
}
);
note = Imacron;
unicode = 012A;
},
{
glyphname = Iogonek;
lastChange = "2015-11-24 05:27:20 +0000";
layers = (
{
layerId = "5F179057-6D0F-420F-80EA-7F467AAFD28D";
name = Regular;
paths = (
{
closed = 1;
nodes = (
"286 0 LINE",
"286 87 LINE",
"260 87 LINE SMOOTH",
"233 87 OFFCURVE",
"223 99 OFFCURVE",
"223 124 CURVE SMOOTH",
"223 523 LINE SMOOTH",
"223 548 OFFCURVE",
"233 560 OFFCURVE",
"260 560 CURVE SMOOTH",
"286 560 LINE",
"286 647 LINE",
"27 647 LINE",
"27 560 LINE",
"53 560 LINE SMOOTH",
"81 560 OFFCURVE",
"92 548 OFFCURVE",
"92 523 CURVE SMOOTH",
"92 126 LINE SMOOTH",
"92 99 OFFCURVE",
"81 87 OFFCURVE",
"53 87 CURVE SMOOTH",
"27 87 LINE",
"27 0 LINE"
);
},
{
closed = 1;
nodes = (
"200 -213 OFFCURVE",
"226 -206 OFFCURVE",
"247 -191 CURVE",
"247 -117 LINE",
"234 -122 OFFCURVE",
"220 -125 OFFCURVE",
"208 -125 CURVE SMOOTH",
"185 -125 OFFCURVE",
"174 -110 OFFCURVE",
"174 -83 CURVE SMOOTH",
"174 -50 OFFCURVE",
"190 -26 OFFCURVE",
"223 0 CURVE",
"114 0 LINE",
"83 -26 OFFCURVE",
"62 -69 OFFCURVE",
"62 -113 CURVE SMOOTH",
"62 -184 OFFCURVE",
"110 -213 OFFCURVE",
"167 -213 CURVE SMOOTH"
);
}
);
width = 313;
}
);
note = Iogonek;
unicode = 012E;
},
{
glyphname = Itilde;
lastChange = "2015-11-24 05:27:21 +0000";
layers = (
{
layerId = "5F179057-6D0F-420F-80EA-7F467AAFD28D";
name = Regular;
paths = (
{
closed = 1;
nodes = (
"286 0 LINE",
"286 87 LINE",
"260 87 LINE SMOOTH",
"233 87 OFFCURVE",
"223 99 OFFCURVE",
"223 124 CURVE SMOOTH",
"223 523 LINE SMOOTH",
"223 548 OFFCURVE",
"233 560 OFFCURVE",
"260 560 CURVE SMOOTH",
"286 560 LINE",
"286 647 LINE",
"27 647 LINE",
"27 560 LINE",
"53 560 LINE SMOOTH",
"81 560 OFFCURVE",
"92 548 OFFCURVE",
"92 523 CURVE SMOOTH",
"92 126 LINE SMOOTH",
"92 99 OFFCURVE",
"81 87 OFFCURVE",
"53 87 CURVE SMOOTH",
"27 87 LINE",
"27 0 LINE"
);
},
{
closed = 1;
nodes = (
"47 700 LINE",
"47 737 OFFCURVE",
"63 750 OFFCURVE",
"92 750 CURVE SMOOTH",
"140 750 OFFCURVE",
"175 700 OFFCURVE",
"249 700 CURVE SMOOTH",
"329 700 OFFCURVE",
"363 746 OFFCURVE",
"363 853 CURVE",
"270 853 LINE",
"270 816 OFFCURVE",
"255 801 OFFCURVE",
"226 801 CURVE SMOOTH",
"179 801 OFFCURVE",
"144 853 OFFCURVE",
"71 853 CURVE SMOOTH",
"-11 853 OFFCURVE",
"-47 804 OFFCURVE",
"-47 700 CURVE"
);
}
);
width = 313;
}
);
note = Itilde;
unicode = 0128;
},
{
glyphname = J;
lastChange = "2015-11-24 05:27:12 +0000";
layers = (
{
layerId = "5F179057-6D0F-420F-80EA-7F467AAFD28D";
name = Regular;
paths = (
{
closed = 1;
nodes = (
"340 -15 OFFCURVE",
"411 60 OFFCURVE",
"411 184 CURVE SMOOTH",
"411 523 LINE SMOOTH",
"411 548 OFFCURVE",
"423 560 OFFCURVE",
"449 560 CURVE SMOOTH",
"476 560 LINE",
"476 647 LINE",
"214 647 LINE",
"214 560 LINE",
"241 560 LINE SMOOTH",
"268 560 OFFCURVE",
"279 548 OFFCURVE",
"279 523 CURVE SMOOTH",
"279 164 LINE SMOOTH",
"279 102 OFFCURVE",
"254 74 OFFCURVE",
"195 74 CURVE SMOOTH",
"160 74 OFFCURVE",
"134 83 OFFCURVE",
"115 103 CURVE",
"115 153 LINE",
"-3 153 LINE",
"-3 65 LINE",
"41 14 OFFCURVE",
"112 -15 OFFCURVE",
"203 -15 CURVE SMOOTH"
);
}
);
width = 503;
}
);
leftKerningGroup = J;
note = J;
rightKerningGroup = J;
unicode = 004A;
},
{
glyphname = Jcircumflex;
lastChange = "2015-11-24 05:27:21 +0000";
layers = (
{
layerId = "5F179057-6D0F-420F-80EA-7F467AAFD28D";
name = Regular;
paths = (
{
closed = 1;
nodes = (
"340 -15 OFFCURVE",
"411 60 OFFCURVE",
"411 184 CURVE SMOOTH",
"411 523 LINE SMOOTH",
"411 548 OFFCURVE",
"423 560 OFFCURVE",
"449 560 CURVE SMOOTH",
"476 560 LINE",
"476 647 LINE",
"214 647 LINE",
"214 560 LINE",
"241 560 LINE SMOOTH",
"268 560 OFFCURVE",
"279 548 OFFCURVE",
"279 523 CURVE SMOOTH",
"279 164 LINE SMOOTH",
"279 102 OFFCURVE",
"254 74 OFFCURVE",
"195 74 CURVE SMOOTH",
"160 74 OFFCURVE",
"134 83 OFFCURVE",
"115 103 CURVE",
"115 153 LINE",
"-3 153 LINE",
"-3 65 LINE",
"41 14 OFFCURVE",
"112 -15 OFFCURVE",
"203 -15 CURVE SMOOTH"
);
},
{
closed = 1;
nodes = (
"262 699 LINE",
"332 819 LINE",
"402 699 LINE",
"523 699 LINE",
"393 892 LINE",
"273 892 LINE",
"142 699 LINE"
);
}
);
width = 503;
}
);
leftKerningGroup = J;
note = Jcircumflex;
rightKerningGroup = J;
unicode = 0134;
},
{
glyphname = K;
lastChange = "2015-11-24 05:27:12 +0000";
layers = (
{
layerId = "5F179057-6D0F-420F-80EA-7F467AAFD28D";
name = Regular;
paths = (
{
closed = 1;
nodes = (
"275 0 LINE",
"275 87 LINE",
"257 87 LINE SMOOTH",
"231 87 OFFCURVE",
"224 102 OFFCURVE",
"224 124 CURVE SMOOTH",
"224 210 LINE",
"300 291 LINE",
"433 87 LINE",
"378 87 LINE",
"378 0 LINE",
"628 0 LINE",
"628 87 LINE",
"596 87 LINE SMOOTH",
"572 87 OFFCURVE",
"557 95 OFFCURVE",
"545 114 CURVE SMOOTH",
"377 370 LINE",
"530 533 LINE SMOOTH",
"545 549 OFFCURVE",
"555 560 OFFCURVE",
"583 560 CURVE SMOOTH",
"619 560 LINE",
"619 647 LINE",
"382 647 LINE",
"382 560 LINE",
"428 560 LINE",
"224 341 LINE",
"224 523 LINE SMOOTH",
"224 546 OFFCURVE",
"233 559 OFFCURVE",
"257 559 CURVE SMOOTH",
"275 559 LINE",
"275 647 LINE",
"27 647 LINE",
"27 560 LINE",
"53 560 LINE SMOOTH",
"81 560 OFFCURVE",
"91 548 OFFCURVE",
"91 523 CURVE SMOOTH",
"91 124 LINE SMOOTH",
"91 100 OFFCURVE",
"81 87 OFFCURVE",
"53 87 CURVE SMOOTH",
"27 87 LINE",
"27 0 LINE"
);
}
);
width = 655;
}
);
note = K;
rightKerningGroup = K;
unicode = 004B;
},
{
glyphname = Kcommaaccent;
lastChange = "2015-11-24 05:27:21 +0000";
layers = (
{
layerId = "5F179057-6D0F-420F-80EA-7F467AAFD28D";
name = Regular;
paths = (
{
closed = 1;
nodes = (
"275 0 LINE",
"275 87 LINE",
"257 87 LINE SMOOTH",
"231 87 OFFCURVE",
"224 102 OFFCURVE",
"224 124 CURVE SMOOTH",
"224 210 LINE",
"300 291 LINE",
"433 87 LINE",
"378 87 LINE",
"378 0 LINE",
"628 0 LINE",
"628 87 LINE",
"596 87 LINE SMOOTH",
"572 87 OFFCURVE",
"557 95 OFFCURVE",
"545 114 CURVE SMOOTH",
"377 370 LINE",
"530 533 LINE SMOOTH",
"545 549 OFFCURVE",
"555 560 OFFCURVE",
"583 560 CURVE SMOOTH",
"619 560 LINE",
"619 647 LINE",
"382 647 LINE",
"382 560 LINE",
"428 560 LINE",
"224 341 LINE",
"224 523 LINE SMOOTH",
"224 546 OFFCURVE",
"233 559 OFFCURVE",
"257 559 CURVE SMOOTH",
"275 559 LINE",
"275 647 LINE",
"27 647 LINE",
"27 560 LINE",
"53 560 LINE SMOOTH",
"81 560 OFFCURVE",
"91 548 OFFCURVE",
"91 523 CURVE SMOOTH",
"91 124 LINE SMOOTH",
"91 100 OFFCURVE",
"81 87 OFFCURVE",
"53 87 CURVE SMOOTH",
"27 87 LINE",
"27 0 LINE"
);
},
{
closed = 1;
nodes = (
"339 -263 LINE",
"404 -49 LINE",
"263 -49 LINE",
"231 -263 LINE"
);
}
);
width = 655;
}
);
note = Kcommaaccent;
rightKerningGroup = K;
unicode = 0136;
},
{
glyphname = L;
lastChange = "2015-11-24 05:27:12 +0000";
layers = (
{
layerId = "5F179057-6D0F-420F-80EA-7F467AAFD28D";
name = Regular;
paths = (
{
closed = 1;
nodes = (
"519 0 LINE",
"519 160 LINE",
"399 160 LINE",
"399 125 LINE SMOOTH",
"399 98 OFFCURVE",
"387 87 OFFCURVE",
"360 87 CURVE SMOOTH",
"224 87 LINE",
"224 523 LINE SMOOTH",
"224 548 OFFCURVE",
"235 560 OFFCURVE",
"263 560 CURVE SMOOTH",
"289 560 LINE",
"289 647 LINE",
"27 647 LINE",
"27 560 LINE",
"53 560 LINE SMOOTH",
"81 560 OFFCURVE",
"92 548 OFFCURVE",
"92 523 CURVE SMOOTH",
"92 125 LINE SMOOTH",
"92 99 OFFCURVE",
"81 87 OFFCURVE",
"52 87 CURVE SMOOTH",
"27 87 LINE",
"27 0 LINE"
);
}
);
width = 516;
}
);
note = L;
rightKerningGroup = L;
unicode = 004C;
},
{
glyphname = Lacute;
lastChange = "2015-11-24 05:27:21 +0000";
layers = (
{
layerId = "5F179057-6D0F-420F-80EA-7F467AAFD28D";
name = Regular;
paths = (
{
closed = 1;
nodes = (
"519 0 LINE",
"519 160 LINE",
"399 160 LINE",
"399 125 LINE SMOOTH",
"399 98 OFFCURVE",
"387 87 OFFCURVE",
"360 87 CURVE SMOOTH",
"224 87 LINE",
"224 523 LINE SMOOTH",
"224 548 OFFCURVE",
"235 560 OFFCURVE",
"263 560 CURVE SMOOTH",
"289 560 LINE",
"289 647 LINE",
"27 647 LINE",
"27 560 LINE",
"53 560 LINE SMOOTH",
"81 560 OFFCURVE",
"92 548 OFFCURVE",
"92 523 CURVE SMOOTH",
"92 125 LINE SMOOTH",
"92 99 OFFCURVE",
"81 87 OFFCURVE",
"52 87 CURVE SMOOTH",
"27 87 LINE",
"27 0 LINE"
);
},
{
closed = 1;
nodes = (
"174 699 LINE",
"287 879 LINE",
"139 879 LINE",
"62 699 LINE"
);
}
);
width = 516;
}
);
note = Lacute;
rightKerningGroup = L;
unicode = 0139;
},
{
glyphname = Lcaron;
lastChange = "2015-11-24 05:27:21 +0000";
layers = (
{
layerId = "5F179057-6D0F-420F-80EA-7F467AAFD28D";
name = Regular;
paths = (
{
closed = 1;
nodes = (
"519 0 LINE",
"519 160 LINE",
"399 160 LINE",
"399 125 LINE SMOOTH",
"399 98 OFFCURVE",
"387 87 OFFCURVE",
"360 87 CURVE SMOOTH",
"224 87 LINE",
"224 523 LINE SMOOTH",
"224 548 OFFCURVE",
"235 560 OFFCURVE",
"263 560 CURVE SMOOTH",
"289 560 LINE",
"289 647 LINE",
"27 647 LINE",
"27 560 LINE",
"53 560 LINE SMOOTH",
"81 560 OFFCURVE",
"92 548 OFFCURVE",
"92 523 CURVE SMOOTH",
"92 125 LINE SMOOTH",
"92 99 OFFCURVE",
"81 87 OFFCURVE",
"52 87 CURVE SMOOTH",
"27 87 LINE",
"27 0 LINE"
);
},
{
closed = 1;
nodes = (
"479 500 LINE",
"544 714 LINE",
"403 714 LINE",
"371 500 LINE"
);
}
);
width = 535;
}
);
note = Lcaron;
rightKerningGroup = L;
unicode = 013D;
},
{
glyphname = Lcommaaccent;
lastChange = "2015-11-24 05:27:19 +0000";
layers = (
{
layerId = "5F179057-6D0F-420F-80EA-7F467AAFD28D";
name = Regular;
paths = (
{
closed = 1;
nodes = (
"519 0 LINE",
"519 160 LINE",
"399 160 LINE",
"399 125 LINE SMOOTH",
"399 98 OFFCURVE",
"387 87 OFFCURVE",
"360 87 CURVE SMOOTH",
"224 87 LINE",
"224 523 LINE SMOOTH",
"224 548 OFFCURVE",
"235 560 OFFCURVE",
"263 560 CURVE SMOOTH",
"289 560 LINE",
"289 647 LINE",
"27 647 LINE",
"27 560 LINE",
"53 560 LINE SMOOTH",
"81 560 OFFCURVE",
"92 548 OFFCURVE",
"92 523 CURVE SMOOTH",
"92 125 LINE SMOOTH",
"92 99 OFFCURVE",
"81 87 OFFCURVE",
"52 87 CURVE SMOOTH",
"27 87 LINE",
"27 0 LINE"
);
},
{
closed = 1;
nodes = (
"314 -263 LINE",
"379 -49 LINE",
"238 -49 LINE",
"206 -263 LINE"
);
}
);
width = 516;
}
);
note = Lcommaaccent;
rightKerningGroup = L;
unicode = 013B;
},
{
glyphname = Ldot;
lastChange = "2015-11-24 05:27:21 +0000";
layers = (
{
layerId = "5F179057-6D0F-420F-80EA-7F467AAFD28D";
name = Regular;
paths = (
{
closed = 1;
nodes = (
"519 0 LINE",
"519 160 LINE",
"399 160 LINE",
"399 125 LINE SMOOTH",
"399 98 OFFCURVE",
"387 87 OFFCURVE",
"360 87 CURVE SMOOTH",
"224 87 LINE",
"224 523 LINE SMOOTH",
"224 548 OFFCURVE",
"235 560 OFFCURVE",
"263 560 CURVE SMOOTH",
"289 560 LINE",
"289 647 LINE",
"27 647 LINE",
"27 560 LINE",
"53 560 LINE SMOOTH",
"81 560 OFFCURVE",
"92 548 OFFCURVE",
"92 523 CURVE SMOOTH",
"92 125 LINE SMOOTH",
"92 99 OFFCURVE",
"81 87 OFFCURVE",
"52 87 CURVE SMOOTH",
"27 87 LINE",
"27 0 LINE"
);
},
{
closed = 1;
nodes = (
"418 295 LINE",
"418 404 LINE",
"313 404 LINE",
"313 295 LINE"
);
}
);
width = 516;
}
);
note = Ldot;
rightKerningGroup = L;
unicode = 013F;
},
{
glyphname = Ldotbelow;
lastChange = "2015-11-24 05:27:19 +0000";
layers = (
{
layerId = "5F179057-6D0F-420F-80EA-7F467AAFD28D";
name = Regular;
paths = (
{
closed = 1;
nodes = (
"519 0 LINE",
"519 160 LINE",
"399 160 LINE",
"399 125 LINE SMOOTH",
"399 98 OFFCURVE",
"387 87 OFFCURVE",
"360 87 CURVE SMOOTH",
"224 87 LINE",
"224 523 LINE SMOOTH",
"224 548 OFFCURVE",
"235 560 OFFCURVE",
"263 560 CURVE SMOOTH",
"289 560 LINE",
"289 647 LINE",
"27 647 LINE",
"27 560 LINE",
"53 560 LINE SMOOTH",
"81 560 OFFCURVE",
"92 548 OFFCURVE",
"92 523 CURVE SMOOTH",
"92 125 LINE SMOOTH",
"92 99 OFFCURVE",
"81 87 OFFCURVE",
"52 87 CURVE SMOOTH",
"27 87 LINE",
"27 0 LINE"
);
},
{
closed = 1;
nodes = (
"309 -171 LINE",
"309 -61 LINE",
"205 -61 LINE",
"205 -171 LINE"
);
}
);
width = 516;
}
);
note = Ldotbelow;
rightKerningGroup = L;
unicode = 1E36;
},
{
glyphname = Ldotbelowmacron;
lastChange = "2015-11-24 05:27:18 +0000";
layers = (
{
layerId = "5F179057-6D0F-420F-80EA-7F467AAFD28D";
name = Regular;
paths = (
{
closed = 1;
nodes = (
"519 0 LINE",
"519 160 LINE",
"399 160 LINE",
"399 125 LINE SMOOTH",
"399 98 OFFCURVE",
"387 87 OFFCURVE",
"360 87 CURVE SMOOTH",
"224 87 LINE",
"224 523 LINE SMOOTH",
"224 548 OFFCURVE",
"235 560 OFFCURVE",
"263 560 CURVE SMOOTH",
"289 560 LINE",
"289 647 LINE",
"27 647 LINE",
"27 560 LINE",
"53 560 LINE SMOOTH",
"81 560 OFFCURVE",
"92 548 OFFCURVE",
"92 523 CURVE SMOOTH",
"92 125 LINE SMOOTH",
"92 99 OFFCURVE",
"81 87 OFFCURVE",
"52 87 CURVE SMOOTH",
"27 87 LINE",
"27 0 LINE"
);
},
{
closed = 1;
nodes = (
"307 -171 LINE",
"307 -61 LINE",
"203 -61 LINE",
"203 -171 LINE"
);
},
{
closed = 1;
nodes = (
"326 711 LINE",
"326 792 LINE",
"27 792 LINE",
"27 711 LINE"
);
}
);
width = 516;
}
);
note = Ldotbelowmacron;
rightKerningGroup = L;
unicode = 1E38;
},
{
glyphname = Llinebelow;
lastChange = "2015-11-24 05:27:19 +0000";
layers = (
{
layerId = "5F179057-6D0F-420F-80EA-7F467AAFD28D";
name = Regular;
paths = (
{
closed = 1;
nodes = (
"519 0 LINE",
"519 160 LINE",
"399 160 LINE",
"399 125 LINE SMOOTH",
"399 98 OFFCURVE",
"387 87 OFFCURVE",
"360 87 CURVE SMOOTH",
"224 87 LINE",
"224 523 LINE SMOOTH",
"224 548 OFFCURVE",
"235 560 OFFCURVE",
"263 560 CURVE SMOOTH",
"289 560 LINE",
"289 647 LINE",
"27 647 LINE",
"27 560 LINE",
"53 560 LINE SMOOTH",
"81 560 OFFCURVE",
"92 548 OFFCURVE",
"92 523 CURVE SMOOTH",
"92 125 LINE SMOOTH",
"92 99 OFFCURVE",
"81 87 OFFCURVE",
"52 87 CURVE SMOOTH",
"27 87 LINE",
"27 0 LINE"
);
},
{
closed = 1;
nodes = (
"404 -138 LINE",
"404 -57 LINE",
"105 -57 LINE",
"105 -138 LINE"
);
}
);
width = 516;
}
);
note = Llinebelow;
rightKerningGroup = L;
unicode = 1E3A;
},
{
glyphname = Lslash;
lastChange = "2015-11-24 05:27:12 +0000";
layers = (
{
layerId = "5F179057-6D0F-420F-80EA-7F467AAFD28D";
name = Regular;
paths = (
{
closed = 1;
nodes = (
"519 0 LINE",
"519 160 LINE",
"399 160 LINE",
"399 125 LINE SMOOTH",
"399 98 OFFCURVE",
"387 87 OFFCURVE",
"360 87 CURVE SMOOTH",
"224 87 LINE",
"224 301 LINE",
"319 356 LINE",
"319 450 LINE",
"224 395 LINE",
"224 523 LINE SMOOTH",
"224 548 OFFCURVE",
"235 560 OFFCURVE",
"263 560 CURVE SMOOTH",
"289 560 LINE",
"289 647 LINE",
"27 647 LINE",
"27 560 LINE",
"53 560 LINE SMOOTH",
"81 560 OFFCURVE",
"92 548 OFFCURVE",
"92 523 CURVE SMOOTH",
"92 319 LINE",
"33 285 LINE",
"33 191 LINE",
"92 225 LINE",
"92 125 LINE SMOOTH",
"92 99 OFFCURVE",
"81 87 OFFCURVE",
"52 87 CURVE SMOOTH",
"27 87 LINE",
"27 0 LINE"
);
}
);
width = 516;
}
);
note = Lslash;
rightKerningGroup = L;
unicode = 0141;
},
{
glyphname = M;
lastChange = "2015-11-24 05:27:12 +0000";
layers = (
{
layerId = "5F179057-6D0F-420F-80EA-7F467AAFD28D";
name = Regular;
paths = (
{
closed = 1;
nodes = (
"287 0 LINE",
"287 87 LINE",
"260 87 LINE SMOOTH",
"233 87 OFFCURVE",
"221 99 OFFCURVE",
"221 124 CURVE SMOOTH",
"221 438 LINE",
"342 158 LINE",
"432 158 LINE",
"552 438 LINE",
"552 124 LINE SMOOTH",
"552 99 OFFCURVE",
"541 87 OFFCURVE",
"515 87 CURVE SMOOTH",
"488 87 LINE",
"488 0 LINE",
"747 0 LINE",
"747 87 LINE",
"720 87 LINE SMOOTH",
"694 87 OFFCURVE",
"683 99 OFFCURVE",
"683 126 CURVE SMOOTH",
"683 521 LINE SMOOTH",
"683 548 OFFCURVE",
"694 560 OFFCURVE",
"720 560 CURVE SMOOTH",
"747 560 LINE",
"747 647 LINE",
"548 647 LINE",
"388 276 LINE",
"227 647 LINE",
"27 647 LINE",
"27 560 LINE",
"53 560 LINE SMOOTH",
"81 560 OFFCURVE",
"92 548 OFFCURVE",
"92 521 CURVE SMOOTH",
"92 126 LINE SMOOTH",
"92 99 OFFCURVE",
"81 87 OFFCURVE",
"53 87 CURVE SMOOTH",
"27 87 LINE",
"27 0 LINE"
);
}
);
width = 774;
}
);
note = M;
unicode = 004D;
},
{
glyphname = Mdotbelow;
lastChange = "2015-11-24 05:27:21 +0000";
layers = (
{
layerId = "5F179057-6D0F-420F-80EA-7F467AAFD28D";
name = Regular;
paths = (
{
closed = 1;
nodes = (
"287 0 LINE",
"287 87 LINE",
"260 87 LINE SMOOTH",
"233 87 OFFCURVE",
"221 99 OFFCURVE",
"221 124 CURVE SMOOTH",
"221 438 LINE",
"342 158 LINE",
"432 158 LINE",
"552 438 LINE",
"552 124 LINE SMOOTH",
"552 99 OFFCURVE",
"541 87 OFFCURVE",
"515 87 CURVE SMOOTH",
"488 87 LINE",
"488 0 LINE",
"747 0 LINE",
"747 87 LINE",
"720 87 LINE SMOOTH",
"694 87 OFFCURVE",
"683 99 OFFCURVE",
"683 126 CURVE SMOOTH",
"683 521 LINE SMOOTH",
"683 548 OFFCURVE",
"694 560 OFFCURVE",
"720 560 CURVE SMOOTH",
"747 560 LINE",
"747 647 LINE",
"548 647 LINE",
"388 276 LINE",
"227 647 LINE",
"27 647 LINE",
"27 560 LINE",
"53 560 LINE SMOOTH",
"81 560 OFFCURVE",
"92 548 OFFCURVE",
"92 521 CURVE SMOOTH",
"92 126 LINE SMOOTH",
"92 99 OFFCURVE",
"81 87 OFFCURVE",
"53 87 CURVE SMOOTH",
"27 87 LINE",
"27 0 LINE"
);
},
{
closed = 1;
nodes = (
"440 -171 LINE",
"440 -61 LINE",
"336 -61 LINE",
"336 -171 LINE"
);
}
);
width = 774;
}
);
note = Mdotbelow;
unicode = 1E42;
},
{
glyphname = N;
lastChange = "2015-11-24 05:27:12 +0000";
layers = (
{
layerId = "5F179057-6D0F-420F-80EA-7F467AAFD28D";
name = Regular;
paths = (
{
closed = 1;
nodes = (
"287 0 LINE",
"287 87 LINE",
"261 87 LINE SMOOTH",
"234 87 OFFCURVE",
"224 100 OFFCURVE",
"224 124 CURVE SMOOTH",
"224 431 LINE",
"501 0 LINE",
"602 0 LINE",
"602 523 LINE SMOOTH",
"602 548 OFFCURVE",
"613 560 OFFCURVE",
"639 560 CURVE SMOOTH",
"666 560 LINE",
"666 647 LINE",
"405 647 LINE",
"405 560 LINE",
"432 560 LINE SMOOTH",
"459 560 OFFCURVE",
"471 548 OFFCURVE",
"471 523 CURVE SMOOTH",
"471 214 LINE",
"192 647 LINE",
"27 647 LINE",
"27 560 LINE",
"53 560 LINE SMOOTH",
"81 560 OFFCURVE",
"92 548 OFFCURVE",
"92 523 CURVE SMOOTH",
"92 124 LINE SMOOTH",
"92 100 OFFCURVE",
"81 87 OFFCURVE",
"53 87 CURVE SMOOTH",
"27 87 LINE",
"27 0 LINE"
);
}
);
width = 693;
}
);
note = N;
unicode = 004E;
},
{
glyphname = Nacute;
lastChange = "2015-11-24 06:11:40 +0000";
layers = (
{
layerId = "5F179057-6D0F-420F-80EA-7F467AAFD28D";
name = Regular;
paths = (
{
closed = 1;
nodes = (
"287 0 LINE",
"287 87 LINE",
"261 87 LINE SMOOTH",
"234 87 OFFCURVE",
"224 100 OFFCURVE",
"224 124 CURVE SMOOTH",
"224 431 LINE",
"501 0 LINE",
"602 0 LINE",
"602 523 LINE SMOOTH",
"602 548 OFFCURVE",
"613 560 OFFCURVE",
"639 560 CURVE SMOOTH",
"666 560 LINE",
"666 647 LINE",
"405 647 LINE",
"405 560 LINE",
"432 560 LINE SMOOTH",
"459 560 OFFCURVE",
"471 548 OFFCURVE",
"471 523 CURVE SMOOTH",
"471 214 LINE",
"192 647 LINE",
"27 647 LINE",
"27 560 LINE",
"53 560 LINE SMOOTH",
"81 560 OFFCURVE",
"92 548 OFFCURVE",
"92 523 CURVE SMOOTH",
"92 124 LINE SMOOTH",
"92 100 OFFCURVE",
"81 87 OFFCURVE",
"53 87 CURVE SMOOTH",
"27 87 LINE",
"27 0 LINE"
);
},
{
closed = 1;
nodes = (
"373 699 LINE",
"486 879 LINE",
"338 879 LINE",
"261 699 LINE"
);
}
);
width = 693;
}
);
note = Nacute;
unicode = 0143;
},
{
glyphname = Ncaron;
lastChange = "2015-11-24 05:27:18 +0000";
layers = (
{
layerId = "5F179057-6D0F-420F-80EA-7F467AAFD28D";
name = Regular;
paths = (
{
closed = 1;
nodes = (
"287 0 LINE",
"287 87 LINE",
"261 87 LINE SMOOTH",
"234 87 OFFCURVE",
"224 100 OFFCURVE",
"224 124 CURVE SMOOTH",
"224 431 LINE",
"501 0 LINE",
"602 0 LINE",
"602 523 LINE SMOOTH",
"602 548 OFFCURVE",
"613 560 OFFCURVE",
"639 560 CURVE SMOOTH",
"666 560 LINE",
"666 647 LINE",
"405 647 LINE",
"405 560 LINE",
"432 560 LINE SMOOTH",
"459 560 OFFCURVE",
"471 548 OFFCURVE",
"471 523 CURVE SMOOTH",
"471 214 LINE",
"192 647 LINE",
"27 647 LINE",
"27 560 LINE",
"53 560 LINE SMOOTH",
"81 560 OFFCURVE",
"92 548 OFFCURVE",
"92 523 CURVE SMOOTH",
"92 124 LINE SMOOTH",
"92 100 OFFCURVE",
"81 87 OFFCURVE",
"53 87 CURVE SMOOTH",
"27 87 LINE",
"27 0 LINE"
);
},
{
closed = 1;
nodes = (
"389 700 LINE",
"519 893 LINE",
"398 893 LINE",
"328 773 LINE",
"258 893 LINE",
"138 893 LINE",
"269 700 LINE"
);
}
);
width = 693;
}
);
note = Ncaron;
unicode = 0147;
},
{
glyphname = Ncommaaccent;
lastChange = "2015-11-24 05:27:19 +0000";
layers = (
{
layerId = "5F179057-6D0F-420F-80EA-7F467AAFD28D";
name = Regular;
paths = (
{
closed = 1;
nodes = (
"287 0 LINE",
"287 87 LINE",
"261 87 LINE SMOOTH",
"234 87 OFFCURVE",
"224 100 OFFCURVE",
"224 124 CURVE SMOOTH",
"224 431 LINE",
"501 0 LINE",
"602 0 LINE",
"602 523 LINE SMOOTH",
"602 548 OFFCURVE",
"613 560 OFFCURVE",
"639 560 CURVE SMOOTH",
"666 560 LINE",
"666 647 LINE",
"405 647 LINE",
"405 560 LINE",
"432 560 LINE SMOOTH",
"459 560 OFFCURVE",
"471 548 OFFCURVE",
"471 523 CURVE SMOOTH",
"471 214 LINE",
"192 647 LINE",
"27 647 LINE",
"27 560 LINE",
"53 560 LINE SMOOTH",
"81 560 OFFCURVE",
"92 548 OFFCURVE",
"92 523 CURVE SMOOTH",
"92 124 LINE SMOOTH",
"92 100 OFFCURVE",
"81 87 OFFCURVE",
"53 87 CURVE SMOOTH",
"27 87 LINE",
"27 0 LINE"
);
},
{
closed = 1;
nodes = (
"371 -263 LINE",
"436 -49 LINE",
"295 -49 LINE",
"263 -263 LINE"
);
}
);
width = 693;
}
);
note = Ncommaaccent;
unicode = 0145;
},
{
glyphname = Ndotaccent;
lastChange = "2015-11-24 05:27:19 +0000";
layers = (
{
layerId = "5F179057-6D0F-420F-80EA-7F467AAFD28D";
name = Regular;
paths = (
{
closed = 1;
nodes = (
"287 0 LINE",
"287 87 LINE",
"261 87 LINE SMOOTH",
"234 87 OFFCURVE",
"224 100 OFFCURVE",
"224 124 CURVE SMOOTH",
"224 431 LINE",
"501 0 LINE",
"602 0 LINE",
"602 523 LINE SMOOTH",
"602 548 OFFCURVE",
"613 560 OFFCURVE",
"639 560 CURVE SMOOTH",
"666 560 LINE",
"666 647 LINE",
"405 647 LINE",
"405 560 LINE",
"432 560 LINE SMOOTH",
"459 560 OFFCURVE",
"471 548 OFFCURVE",
"471 523 CURVE SMOOTH",
"471 214 LINE",
"192 647 LINE",
"27 647 LINE",
"27 560 LINE",
"53 560 LINE SMOOTH",
"81 560 OFFCURVE",
"92 548 OFFCURVE",
"92 523 CURVE SMOOTH",
"92 124 LINE SMOOTH",
"92 100 OFFCURVE",
"81 87 OFFCURVE",
"53 87 CURVE SMOOTH",
"27 87 LINE",
"27 0 LINE"
);
},
{
closed = 1;
nodes = (
"390 719 LINE",
"390 828 LINE",
"286 828 LINE",
"286 719 LINE"
);
}
);
width = 693;
}
);
note = Ndotaccent;
unicode = 1E44;
},
{
glyphname = Ndotbelow;
lastChange = "2015-11-24 05:27:19 +0000";
layers = (
{
layerId = "5F179057-6D0F-420F-80EA-7F467AAFD28D";
name = Regular;
paths = (
{
closed = 1;
nodes = (
"287 0 LINE",
"287 87 LINE",
"261 87 LINE SMOOTH",
"234 87 OFFCURVE",
"224 100 OFFCURVE",
"224 124 CURVE SMOOTH",
"224 431 LINE",
"501 0 LINE",
"602 0 LINE",
"602 523 LINE SMOOTH",
"602 548 OFFCURVE",
"613 560 OFFCURVE",
"639 560 CURVE SMOOTH",
"666 560 LINE",
"666 647 LINE",
"405 647 LINE",
"405 560 LINE",
"432 560 LINE SMOOTH",
"459 560 OFFCURVE",
"471 548 OFFCURVE",
"471 523 CURVE SMOOTH",
"471 214 LINE",
"192 647 LINE",
"27 647 LINE",
"27 560 LINE",
"53 560 LINE SMOOTH",
"81 560 OFFCURVE",
"92 548 OFFCURVE",
"92 523 CURVE SMOOTH",
"92 124 LINE SMOOTH",
"92 100 OFFCURVE",
"81 87 OFFCURVE",
"53 87 CURVE SMOOTH",
"27 87 LINE",
"27 0 LINE"
);
},
{
closed = 1;
nodes = (
"399 -171 LINE",
"399 -61 LINE",
"295 -61 LINE",
"295 -171 LINE"
);
}
);
width = 693;
}
);
note = Ndotbelow;
unicode = 1E46;
},
{
glyphname = Eng;
lastChange = "2015-11-24 05:27:12 +0000";
layers = (
{
layerId = "5F179057-6D0F-420F-80EA-7F467AAFD28D";
name = Regular;
paths = (
{
closed = 1;
nodes = (
"537 -285 OFFCURVE",
"602 -225 OFFCURVE",
"602 -111 CURVE SMOOTH",
"602 523 LINE SMOOTH",
"602 548 OFFCURVE",
"613 560 OFFCURVE",
"639 560 CURVE SMOOTH",
"666 560 LINE",
"666 647 LINE",
"405 647 LINE",
"405 560 LINE",
"432 560 LINE SMOOTH",
"459 560 OFFCURVE",
"471 548 OFFCURVE",
"471 523 CURVE SMOOTH",
"471 214 LINE",
"192 647 LINE",
"27 647 LINE",
"27 560 LINE",
"53 560 LINE SMOOTH",
"81 560 OFFCURVE",
"92 548 OFFCURVE",
"92 523 CURVE SMOOTH",
"92 124 LINE SMOOTH",
"92 100 OFFCURVE",
"81 87 OFFCURVE",
"53 87 CURVE SMOOTH",
"27 87 LINE",
"27 0 LINE",
"287 0 LINE",
"287 87 LINE",
"261 87 LINE SMOOTH",
"234 87 OFFCURVE",
"224 100 OFFCURVE",
"224 124 CURVE SMOOTH",
"224 431 LINE",
"471 46 LINE",
"471 -127 LINE SMOOTH",
"471 -181 OFFCURVE",
"444 -196 OFFCURVE",
"401 -196 CURVE SMOOTH",
"372 -196 OFFCURVE",
"353 -190 OFFCURVE",
"337 -176 CURVE",
"337 -135 LINE",
"228 -135 LINE",
"228 -227 LINE",
"271 -264 OFFCURVE",
"330 -285 OFFCURVE",
"408 -285 CURVE SMOOTH"
);
}
);
width = 693;
}
);
note = Eng;
unicode = 014A;
},
{
glyphname = Nlinebelow;
lastChange = "2015-11-24 05:27:20 +0000";
layers = (
{
layerId = "5F179057-6D0F-420F-80EA-7F467AAFD28D";
name = Regular;
paths = (
{
closed = 1;
nodes = (
"287 0 LINE",
"287 87 LINE",
"261 87 LINE SMOOTH",
"234 87 OFFCURVE",
"224 100 OFFCURVE",
"224 124 CURVE SMOOTH",
"224 431 LINE",
"501 0 LINE",
"602 0 LINE",
"602 523 LINE SMOOTH",
"602 548 OFFCURVE",
"613 560 OFFCURVE",
"639 560 CURVE SMOOTH",
"666 560 LINE",
"666 647 LINE",
"405 647 LINE",
"405 560 LINE",
"432 560 LINE SMOOTH",
"459 560 OFFCURVE",
"471 548 OFFCURVE",
"471 523 CURVE SMOOTH",
"471 214 LINE",
"192 647 LINE",
"27 647 LINE",
"27 560 LINE",
"53 560 LINE SMOOTH",
"81 560 OFFCURVE",
"92 548 OFFCURVE",
"92 523 CURVE SMOOTH",
"92 124 LINE SMOOTH",
"92 100 OFFCURVE",
"81 87 OFFCURVE",
"53 87 CURVE SMOOTH",
"27 87 LINE",
"27 0 LINE"
);
},
{
closed = 1;
nodes = (
"484 -138 LINE",
"484 -57 LINE",
"185 -57 LINE",
"185 -138 LINE"
);
}
);
width = 693;
}
);
note = Nlinebelow;
unicode = 1E48;
},
{
glyphname = Ntilde;
lastChange = "2015-11-24 05:27:17 +0000";
layers = (
{
layerId = "5F179057-6D0F-420F-80EA-7F467AAFD28D";
name = Regular;
paths = (
{
closed = 1;
nodes = (
"287 0 LINE",
"287 87 LINE",
"261 87 LINE SMOOTH",
"234 87 OFFCURVE",
"224 100 OFFCURVE",
"224 124 CURVE SMOOTH",
"224 431 LINE",
"501 0 LINE",
"602 0 LINE",
"602 523 LINE SMOOTH",
"602 548 OFFCURVE",
"613 560 OFFCURVE",
"639 560 CURVE SMOOTH",
"666 560 LINE",
"666 647 LINE",
"405 647 LINE",
"405 560 LINE",
"432 560 LINE SMOOTH",
"459 560 OFFCURVE",
"471 548 OFFCURVE",
"471 523 CURVE SMOOTH",
"471 214 LINE",
"192 647 LINE",
"27 647 LINE",
"27 560 LINE",
"53 560 LINE SMOOTH",
"81 560 OFFCURVE",
"92 548 OFFCURVE",
"92 523 CURVE SMOOTH",
"92 124 LINE SMOOTH",
"92 100 OFFCURVE",
"81 87 OFFCURVE",
"53 87 CURVE SMOOTH",
"27 87 LINE",
"27 0 LINE"
);
},
{
closed = 1;
nodes = (
"227 700 LINE",
"227 737 OFFCURVE",
"243 750 OFFCURVE",
"272 750 CURVE SMOOTH",
"320 750 OFFCURVE",
"355 700 OFFCURVE",
"429 700 CURVE SMOOTH",
"509 700 OFFCURVE",
"543 746 OFFCURVE",
"543 853 CURVE",
"450 853 LINE",
"450 816 OFFCURVE",
"435 801 OFFCURVE",
"406 801 CURVE SMOOTH",
"359 801 OFFCURVE",
"324 853 OFFCURVE",
"251 853 CURVE SMOOTH",
"169 853 OFFCURVE",
"133 804 OFFCURVE",
"133 700 CURVE"
);
}
);
width = 693;
}
);
note = Ntilde;
unicode = 00D1;
},
{
glyphname = O;
lastChange = "2015-11-24 05:27:20 +0000";
layers = (
{
layerId = "5F179057-6D0F-420F-80EA-7F467AAFD28D";
name = Regular;
paths = (
{
closed = 1;
nodes = (
"538 -15 OFFCURVE",
"636 97 OFFCURVE",
"636 321 CURVE SMOOTH",
"636 545 OFFCURVE",
"545 662 OFFCURVE",
"332 662 CURVE SMOOTH",
"117 662 OFFCURVE",
"27 545 OFFCURVE",
"27 321 CURVE SMOOTH",
"27 97 OFFCURVE",
"125 -15 OFFCURVE",
"332 -15 CURVE SMOOTH"
);
},
{
closed = 1;
nodes = (
"212 74 OFFCURVE",
"157 140 OFFCURVE",
"157 321 CURVE SMOOTH",
"157 506 OFFCURVE",
"211 573 OFFCURVE",
"332 573 CURVE SMOOTH",
"451 573 OFFCURVE",
"506 506 OFFCURVE",
"506 321 CURVE SMOOTH",
"506 140 OFFCURVE",
"451 74 OFFCURVE",
"332 74 CURVE SMOOTH"
);
}
);
width = 663;
}
);
leftKerningGroup = O;
note = O;
rightKerningGroup = O;
unicode = 004F;
},
{
glyphname = Oacute;
lastChange = "2015-11-24 05:27:20 +0000";
layers = (
{
layerId = "5F179057-6D0F-420F-80EA-7F467AAFD28D";
name = Regular;
paths = (
{
closed = 1;
nodes = (
"538 -15 OFFCURVE",
"636 97 OFFCURVE",
"636 321 CURVE SMOOTH",
"636 545 OFFCURVE",
"545 662 OFFCURVE",
"332 662 CURVE SMOOTH",
"117 662 OFFCURVE",
"27 545 OFFCURVE",
"27 321 CURVE SMOOTH",
"27 97 OFFCURVE",
"125 -15 OFFCURVE",
"332 -15 CURVE SMOOTH"
);
},
{
closed = 1;
nodes = (
"212 74 OFFCURVE",
"157 140 OFFCURVE",
"157 321 CURVE SMOOTH",
"157 506 OFFCURVE",
"211 573 OFFCURVE",
"332 573 CURVE SMOOTH",
"451 573 OFFCURVE",
"506 506 OFFCURVE",
"506 321 CURVE SMOOTH",
"506 140 OFFCURVE",
"451 74 OFFCURVE",
"332 74 CURVE SMOOTH"
);
},
{
closed = 1;
nodes = (
"375 699 LINE",
"488 879 LINE",
"340 879 LINE",
"263 699 LINE"
);
}
);
width = 663;
}
);
leftKerningGroup = O;
note = Oacute;
rightKerningGroup = O;
unicode = 00D3;
},
{
glyphname = Obreve;
lastChange = "2015-11-24 05:27:22 +0000";
layers = (
{
layerId = "5F179057-6D0F-420F-80EA-7F467AAFD28D";
name = Regular;
paths = (
{
closed = 1;
nodes = (
"538 -15 OFFCURVE",
"636 97 OFFCURVE",
"636 321 CURVE SMOOTH",
"636 545 OFFCURVE",
"545 662 OFFCURVE",
"332 662 CURVE SMOOTH",
"117 662 OFFCURVE",
"27 545 OFFCURVE",
"27 321 CURVE SMOOTH",
"27 97 OFFCURVE",
"125 -15 OFFCURVE",
"332 -15 CURVE SMOOTH"
);
},
{
closed = 1;
nodes = (
"212 74 OFFCURVE",
"157 140 OFFCURVE",
"157 321 CURVE SMOOTH",
"157 506 OFFCURVE",
"211 573 OFFCURVE",
"332 573 CURVE SMOOTH",
"451 573 OFFCURVE",
"506 506 OFFCURVE",
"506 321 CURVE SMOOTH",
"506 140 OFFCURVE",
"451 74 OFFCURVE",
"332 74 CURVE SMOOTH"
);
},
{
closed = 1;
nodes = (
"437 699 OFFCURVE",
"500 759 OFFCURVE",
"500 849 CURVE",
"391 849 LINE",
"391 806 OFFCURVE",
"373 780 OFFCURVE",
"331 780 CURVE SMOOTH",
"292 780 OFFCURVE",
"271 806 OFFCURVE",
"271 849 CURVE",
"162 849 LINE",
"162 759 OFFCURVE",
"225 699 OFFCURVE",
"331 699 CURVE SMOOTH"
);
}
);
width = 663;
}
);
leftKerningGroup = O;
note = Obreve;
rightKerningGroup = O;
unicode = 014E;
},
{
glyphname = Ocaron;
lastChange = "2015-11-24 05:27:21 +0000";
layers = (
{
layerId = "5F179057-6D0F-420F-80EA-7F467AAFD28D";
name = Regular;
paths = (
{
closed = 1;
nodes = (
"538 -15 OFFCURVE",
"636 97 OFFCURVE",
"636 321 CURVE SMOOTH",
"636 545 OFFCURVE",
"545 662 OFFCURVE",
"332 662 CURVE SMOOTH",
"117 662 OFFCURVE",
"27 545 OFFCURVE",
"27 321 CURVE SMOOTH",
"27 97 OFFCURVE",
"125 -15 OFFCURVE",
"332 -15 CURVE SMOOTH"
);
},
{
closed = 1;
nodes = (
"212 74 OFFCURVE",
"157 140 OFFCURVE",
"157 321 CURVE SMOOTH",
"157 506 OFFCURVE",
"211 573 OFFCURVE",
"332 573 CURVE SMOOTH",
"451 573 OFFCURVE",
"506 506 OFFCURVE",
"506 321 CURVE SMOOTH",
"506 140 OFFCURVE",
"451 74 OFFCURVE",
"332 74 CURVE SMOOTH"
);
},
{
closed = 1;
nodes = (
"392 700 LINE",
"522 893 LINE",
"401 893 LINE",
"331 773 LINE",
"261 893 LINE",
"141 893 LINE",
"272 700 LINE"
);
}
);
width = 663;
}
);
leftKerningGroup = O;
note = Ocaron;
rightKerningGroup = O;
unicode = 01D1;
},
{
glyphname = Ocircumflex;
lastChange = "2015-11-24 05:27:20 +0000";
layers = (
{
layerId = "5F179057-6D0F-420F-80EA-7F467AAFD28D";
name = Regular;
paths = (
{
closed = 1;
nodes = (
"538 -15 OFFCURVE",
"636 97 OFFCURVE",
"636 321 CURVE SMOOTH",
"636 545 OFFCURVE",
"545 662 OFFCURVE",
"332 662 CURVE SMOOTH",
"117 662 OFFCURVE",
"27 545 OFFCURVE",
"27 321 CURVE SMOOTH",
"27 97 OFFCURVE",
"125 -15 OFFCURVE",
"332 -15 CURVE SMOOTH"
);
},
{
closed = 1;
nodes = (
"212 74 OFFCURVE",
"157 140 OFFCURVE",
"157 321 CURVE SMOOTH",
"157 506 OFFCURVE",
"211 573 OFFCURVE",
"332 573 CURVE SMOOTH",
"451 573 OFFCURVE",
"506 506 OFFCURVE",
"506 321 CURVE SMOOTH",
"506 140 OFFCURVE",
"451 74 OFFCURVE",
"332 74 CURVE SMOOTH"
);
},
{
closed = 1;
nodes = (
"261 700 LINE",
"331 820 LINE",
"401 700 LINE",
"522 700 LINE",
"392 893 LINE",
"272 893 LINE",
"141 700 LINE"
);
}
);
width = 663;
}
);
leftKerningGroup = O;
note = Ocircumflex;
rightKerningGroup = O;
unicode = 00D4;
},
{
glyphname = Ocircumflexacute;
lastChange = "2015-11-24 05:27:19 +0000";
layers = (
{
layerId = "5F179057-6D0F-420F-80EA-7F467AAFD28D";
name = Regular;
paths = (
{
closed = 1;
nodes = (
"538 -15 OFFCURVE",
"636 97 OFFCURVE",
"636 321 CURVE SMOOTH",
"636 545 OFFCURVE",
"545 662 OFFCURVE",
"332 662 CURVE SMOOTH",
"117 662 OFFCURVE",
"27 545 OFFCURVE",
"27 321 CURVE SMOOTH",
"27 97 OFFCURVE",
"125 -15 OFFCURVE",
"332 -15 CURVE SMOOTH"
);
},
{
closed = 1;
nodes = (
"212 74 OFFCURVE",
"157 140 OFFCURVE",
"157 321 CURVE SMOOTH",
"157 506 OFFCURVE",
"211 573 OFFCURVE",
"332 573 CURVE SMOOTH",
"451 573 OFFCURVE",
"506 506 OFFCURVE",
"506 321 CURVE SMOOTH",
"506 140 OFFCURVE",
"451 74 OFFCURVE",
"332 74 CURVE SMOOTH"
);
},
{
closed = 1;
nodes = (
"283 700 LINE",
"341 778 LINE",
"396 700 LINE",
"509 700 LINE",
"399 838 LINE",
"283 838 LINE",
"172 700 LINE"
);
},
{
closed = 1;
nodes = (
"538 811 LINE",
"638 944 LINE",
"507 944 LINE",
"444 811 LINE"
);
}
);
width = 663;
}
);
leftKerningGroup = O;
note = Ocircumflexacute;
rightKerningGroup = O;
unicode = 1ED0;
},
{
glyphname = Ocircumflexdotbelow;
lastChange = "2015-11-24 05:27:21 +0000";
layers = (
{
layerId = "5F179057-6D0F-420F-80EA-7F467AAFD28D";
name = Regular;
paths = (
{
closed = 1;
nodes = (
"538 -15 OFFCURVE",
"636 97 OFFCURVE",
"636 321 CURVE SMOOTH",
"636 545 OFFCURVE",
"545 662 OFFCURVE",
"332 662 CURVE SMOOTH",
"117 662 OFFCURVE",
"27 545 OFFCURVE",
"27 321 CURVE SMOOTH",
"27 97 OFFCURVE",
"125 -15 OFFCURVE",
"332 -15 CURVE SMOOTH"
);
},
{
closed = 1;
nodes = (
"383 -171 LINE",
"383 -61 LINE",
"279 -61 LINE",
"279 -171 LINE"
);
},
{
closed = 1;
nodes = (
"212 74 OFFCURVE",
"157 140 OFFCURVE",
"157 321 CURVE SMOOTH",
"157 506 OFFCURVE",
"211 573 OFFCURVE",
"332 573 CURVE SMOOTH",
"451 573 OFFCURVE",
"506 506 OFFCURVE",
"506 321 CURVE SMOOTH",
"506 140 OFFCURVE",
"451 74 OFFCURVE",
"332 74 CURVE SMOOTH"
);
},
{
closed = 1;
nodes = (
"261 700 LINE",
"331 820 LINE",
"401 700 LINE",
"522 700 LINE",
"392 893 LINE",
"272 893 LINE",
"141 700 LINE"
);
}
);
width = 663;
}
);
leftKerningGroup = O;
note = Ocircumflexdotbelow;
rightKerningGroup = O;
unicode = 1ED8;
},
{
glyphname = Ocircumflexgrave;
lastChange = "2015-11-24 05:27:20 +0000";
layers = (
{
layerId = "5F179057-6D0F-420F-80EA-7F467AAFD28D";
name = Regular;
paths = (
{
closed = 1;
nodes = (
"538 -15 OFFCURVE",
"636 97 OFFCURVE",
"636 321 CURVE SMOOTH",
"636 545 OFFCURVE",
"545 662 OFFCURVE",
"332 662 CURVE SMOOTH",
"117 662 OFFCURVE",
"27 545 OFFCURVE",
"27 321 CURVE SMOOTH",
"27 97 OFFCURVE",
"125 -15 OFFCURVE",
"332 -15 CURVE SMOOTH"
);
},
{
closed = 1;
nodes = (
"212 74 OFFCURVE",
"157 140 OFFCURVE",
"157 321 CURVE SMOOTH",
"157 506 OFFCURVE",
"211 573 OFFCURVE",
"332 573 CURVE SMOOTH",
"451 573 OFFCURVE",
"506 506 OFFCURVE",
"506 321 CURVE SMOOTH",
"506 140 OFFCURVE",
"451 74 OFFCURVE",
"332 74 CURVE SMOOTH"
);
},
{
closed = 1;
nodes = (
"231 811 LINE",
"168 944 LINE",
"37 944 LINE",
"137 811 LINE"
);
},
{
closed = 1;
nodes = (
"279 700 LINE",
"334 778 LINE",
"392 700 LINE",
"503 700 LINE",
"392 838 LINE",
"276 838 LINE",
"166 700 LINE"
);
}
);
width = 663;
}
);
leftKerningGroup = O;
note = Ocircumflexgrave;
rightKerningGroup = O;
unicode = 1ED2;
},
{
glyphname = Ocircumflexhookabove;
lastChange = "2015-11-24 05:27:21 +0000";
layers = (
{
layerId = "5F179057-6D0F-420F-80EA-7F467AAFD28D";
name = Regular;
paths = (
{
closed = 1;
nodes = (
"538 -15 OFFCURVE",
"636 97 OFFCURVE",
"636 321 CURVE SMOOTH",
"636 545 OFFCURVE",
"545 662 OFFCURVE",
"332 662 CURVE SMOOTH",
"117 662 OFFCURVE",
"27 545 OFFCURVE",
"27 321 CURVE SMOOTH",
"27 97 OFFCURVE",
"125 -15 OFFCURVE",
"332 -15 CURVE SMOOTH"
);
},
{
closed = 1;
nodes = (
"212 74 OFFCURVE",
"157 140 OFFCURVE",
"157 321 CURVE SMOOTH",
"157 506 OFFCURVE",
"211 573 OFFCURVE",
"332 573 CURVE SMOOTH",
"451 573 OFFCURVE",
"506 506 OFFCURVE",
"506 321 CURVE SMOOTH",
"506 140 OFFCURVE",
"451 74 OFFCURVE",
"332 74 CURVE SMOOTH"
);
},
{
closed = 1;
nodes = (
"280 700 LINE",
"335 778 LINE",
"393 700 LINE",
"504 700 LINE",
"394 838 LINE",
"277 838 LINE",
"168 700 LINE"
);
},
{
closed = 1;
nodes = (
"501 832 LINE",
"501 855 LINE",
"538 864 OFFCURVE",
"554 884 OFFCURVE",
"554 917 CURVE SMOOTH",
"554 963 OFFCURVE",
"524 986 OFFCURVE",
"462 986 CURVE SMOOTH",
"436 986 OFFCURVE",
"412 982 OFFCURVE",
"398 977 CURVE",
"398 921 LINE",
"408 925 OFFCURVE",
"422 929 OFFCURVE",
"435 929 CURVE SMOOTH",
"454 929 OFFCURVE",
"467 921 OFFCURVE",
"467 905 CURVE SMOOTH",
"467 885 OFFCURVE",
"456 875 OFFCURVE",
"417 875 CURVE",
"417 832 LINE"
);
}
);
width = 663;
}
);
leftKerningGroup = O;
note = Ocircumflexhookabove;
rightKerningGroup = O;
unicode = 1ED4;
},
{
glyphname = Ocircumflextilde;
lastChange = "2015-11-24 05:27:18 +0000";
layers = (
{
layerId = "5F179057-6D0F-420F-80EA-7F467AAFD28D";
name = Regular;
paths = (
{
closed = 1;
nodes = (
"538 -15 OFFCURVE",
"636 97 OFFCURVE",
"636 321 CURVE SMOOTH",
"636 545 OFFCURVE",
"545 662 OFFCURVE",
"332 662 CURVE SMOOTH",
"117 662 OFFCURVE",
"27 545 OFFCURVE",
"27 321 CURVE SMOOTH",
"27 97 OFFCURVE",
"125 -15 OFFCURVE",
"332 -15 CURVE SMOOTH"
);
},
{
closed = 1;
nodes = (
"212 74 OFFCURVE",
"157 140 OFFCURVE",
"157 321 CURVE SMOOTH",
"157 506 OFFCURVE",
"211 573 OFFCURVE",
"332 573 CURVE SMOOTH",
"451 573 OFFCURVE",
"506 506 OFFCURVE",
"506 321 CURVE SMOOTH",
"506 140 OFFCURVE",
"451 74 OFFCURVE",
"332 74 CURVE SMOOTH"
);
},
{
closed = 1;
nodes = (
"429 699 OFFCURVE",
"507 757 OFFCURVE",
"507 858 CURVE",
"416 858 LINE",
"416 807 OFFCURVE",
"390 776 OFFCURVE",
"331 776 CURVE SMOOTH",
"275 776 OFFCURVE",
"248 807 OFFCURVE",
"248 858 CURVE",
"156 858 LINE",
"156 757 OFFCURVE",
"235 699 OFFCURVE",
"331 699 CURVE SMOOTH"
);
},
{
closed = 1;
nodes = (
"459 886 OFFCURVE",
"482 918 OFFCURVE",
"482 986 CURVE",
"417 986 LINE",
"417 963 OFFCURVE",
"410 951 OFFCURVE",
"387 951 CURVE SMOOTH",
"354 951 OFFCURVE",
"320 989 OFFCURVE",
"267 989 CURVE SMOOTH",
"207 989 OFFCURVE",
"180 959 OFFCURVE",
"180 889 CURVE",
"245 889 LINE",
"245 913 OFFCURVE",
"254 925 OFFCURVE",
"276 925 CURVE SMOOTH",
"309 925 OFFCURVE",
"353 886 OFFCURVE",
"400 886 CURVE SMOOTH"
);
}
);
width = 663;
}
);
leftKerningGroup = O;
note = Ocircumflextilde;
rightKerningGroup = O;
unicode = 1ED6;
},
{
glyphname = Odieresis;
lastChange = "2015-11-24 05:27:20 +0000";
layers = (
{
layerId = "5F179057-6D0F-420F-80EA-7F467AAFD28D";
name = Regular;
paths = (
{
closed = 1;
nodes = (
"538 -15 OFFCURVE",
"636 97 OFFCURVE",
"636 321 CURVE SMOOTH",
"636 545 OFFCURVE",
"545 662 OFFCURVE",
"332 662 CURVE SMOOTH",
"117 662 OFFCURVE",
"27 545 OFFCURVE",
"27 321 CURVE SMOOTH",
"27 97 OFFCURVE",
"125 -15 OFFCURVE",
"332 -15 CURVE SMOOTH"
);
},
{
closed = 1;
nodes = (
"212 74 OFFCURVE",
"157 140 OFFCURVE",
"157 321 CURVE SMOOTH",
"157 506 OFFCURVE",
"211 573 OFFCURVE",
"332 573 CURVE SMOOTH",
"451 573 OFFCURVE",
"506 506 OFFCURVE",
"506 321 CURVE SMOOTH",
"506 140 OFFCURVE",
"451 74 OFFCURVE",
"332 74 CURVE SMOOTH"
);
},
{
closed = 1;
nodes = (
"270 719 LINE",
"270 828 LINE",
"166 828 LINE",
"166 719 LINE"
);
},
{
closed = 1;
nodes = (
"496 719 LINE",
"496 828 LINE",
"391 828 LINE",
"391 719 LINE"
);
}
);
width = 663;
}
);
leftKerningGroup = O;
note = Odieresis;
rightKerningGroup = O;
unicode = 00D6;
},
{
glyphname = Odotbelow;
lastChange = "2015-11-24 05:27:19 +0000";
layers = (
{
layerId = "5F179057-6D0F-420F-80EA-7F467AAFD28D";
name = Regular;
paths = (
{
closed = 1;
nodes = (
"538 -15 OFFCURVE",
"636 97 OFFCURVE",
"636 321 CURVE SMOOTH",
"636 545 OFFCURVE",
"545 662 OFFCURVE",
"332 662 CURVE SMOOTH",
"117 662 OFFCURVE",
"27 545 OFFCURVE",
"27 321 CURVE SMOOTH",
"27 97 OFFCURVE",
"125 -15 OFFCURVE",
"332 -15 CURVE SMOOTH"
);
},
{
closed = 1;
nodes = (
"383 -171 LINE",
"383 -61 LINE",
"279 -61 LINE",
"279 -171 LINE"
);
},
{
closed = 1;
nodes = (
"212 74 OFFCURVE",
"157 140 OFFCURVE",
"157 321 CURVE SMOOTH",
"157 506 OFFCURVE",
"211 573 OFFCURVE",
"332 573 CURVE SMOOTH",
"451 573 OFFCURVE",
"506 506 OFFCURVE",
"506 321 CURVE SMOOTH",
"506 140 OFFCURVE",
"451 74 OFFCURVE",
"332 74 CURVE SMOOTH"
);
}
);
width = 663;
}
);
leftKerningGroup = O;
note = Odotbelow;
rightKerningGroup = O;
unicode = 1ECC;
},
{
glyphname = Ograve;
lastChange = "2015-11-24 05:27:21 +0000";
layers = (
{
layerId = "5F179057-6D0F-420F-80EA-7F467AAFD28D";
name = Regular;
paths = (
{
closed = 1;
nodes = (
"538 -15 OFFCURVE",
"636 97 OFFCURVE",
"636 321 CURVE SMOOTH",
"636 545 OFFCURVE",
"545 662 OFFCURVE",
"332 662 CURVE SMOOTH",
"117 662 OFFCURVE",
"27 545 OFFCURVE",
"27 321 CURVE SMOOTH",
"27 97 OFFCURVE",
"125 -15 OFFCURVE",
"332 -15 CURVE SMOOTH"
);
},
{
closed = 1;
nodes = (
"212 74 OFFCURVE",
"157 140 OFFCURVE",
"157 321 CURVE SMOOTH",
"157 506 OFFCURVE",
"211 573 OFFCURVE",
"332 573 CURVE SMOOTH",
"451 573 OFFCURVE",
"506 506 OFFCURVE",
"506 321 CURVE SMOOTH",
"506 140 OFFCURVE",
"451 74 OFFCURVE",
"332 74 CURVE SMOOTH"
);
},
{
closed = 1;
nodes = (
"405 699 LINE",
"327 879 LINE",
"178 879 LINE",
"291 699 LINE"
);
}
);
width = 663;
}
);
leftKerningGroup = O;
note = Ograve;
rightKerningGroup = O;
unicode = 00D2;
},
{
glyphname = Ohookabove;
lastChange = "2015-11-24 05:27:19 +0000";
layers = (
{
layerId = "5F179057-6D0F-420F-80EA-7F467AAFD28D";
name = Regular;
paths = (
{
closed = 1;
nodes = (
"538 -15 OFFCURVE",
"636 97 OFFCURVE",
"636 321 CURVE SMOOTH",
"636 545 OFFCURVE",
"545 662 OFFCURVE",
"332 662 CURVE SMOOTH",
"117 662 OFFCURVE",
"27 545 OFFCURVE",
"27 321 CURVE SMOOTH",
"27 97 OFFCURVE",
"125 -15 OFFCURVE",
"332 -15 CURVE SMOOTH"
);
},
{
closed = 1;
nodes = (
"212 74 OFFCURVE",
"157 140 OFFCURVE",
"157 321 CURVE SMOOTH",
"157 506 OFFCURVE",
"211 573 OFFCURVE",
"332 573 CURVE SMOOTH",
"451 573 OFFCURVE",
"506 506 OFFCURVE",
"506 321 CURVE SMOOTH",
"506 140 OFFCURVE",
"451 74 OFFCURVE",
"332 74 CURVE SMOOTH"
);
},
{
closed = 1;
nodes = (
"375 700 LINE",
"375 741 LINE",
"417 754 OFFCURVE",
"437 780 OFFCURVE",
"437 822 CURVE SMOOTH",
"437 883 OFFCURVE",
"391 907 OFFCURVE",
"315 907 CURVE SMOOTH",
"281 907 OFFCURVE",
"252 902 OFFCURVE",
"234 895 CURVE",
"234 827 LINE",
"247 833 OFFCURVE",
"265 836 OFFCURVE",
"281 836 CURVE SMOOTH",
"313 836 OFFCURVE",
"325 827 OFFCURVE",
"325 804 CURVE SMOOTH",
"325 782 OFFCURVE",
"313 765 OFFCURVE",
"268 765 CURVE",
"268 700 LINE"
);
}
);
width = 663;
}
);
leftKerningGroup = O;
note = Ohookabove;
rightKerningGroup = O;
unicode = 1ECE;
},
{
glyphname = Ohorn;
lastChange = "2015-11-24 05:27:20 +0000";
layers = (
{
layerId = "5F179057-6D0F-420F-80EA-7F467AAFD28D";
name = Regular;
paths = (
{
closed = 1;
nodes = (
"538 -15 OFFCURVE",
"636 97 OFFCURVE",
"636 321 CURVE SMOOTH",
"636 393 OFFCURVE",
"626 453 OFFCURVE",
"606 502 CURVE",
"695 520 OFFCURVE",
"728 574 OFFCURVE",
"728 650 CURVE SMOOTH",
"728 689 LINE",
"600 689 LINE",
"600 651 LINE SMOOTH",
"600 614 OFFCURVE",
"596 596 OFFCURVE",
"555 583 CURVE",
"505 636 OFFCURVE",
"432 662 OFFCURVE",
"332 662 CURVE SMOOTH",
"117 662 OFFCURVE",
"27 545 OFFCURVE",
"27 321 CURVE SMOOTH",
"27 97 OFFCURVE",
"125 -15 OFFCURVE",
"332 -15 CURVE SMOOTH"
);
},
{
closed = 1;
nodes = (
"212 74 OFFCURVE",
"157 140 OFFCURVE",
"157 321 CURVE SMOOTH",
"157 506 OFFCURVE",
"211 573 OFFCURVE",
"332 573 CURVE SMOOTH",
"451 573 OFFCURVE",
"505 506 OFFCURVE",
"505 321 CURVE SMOOTH",
"505 140 OFFCURVE",
"451 74 OFFCURVE",
"332 74 CURVE SMOOTH"
);
}
);
width = 720;
}
);
leftKerningGroup = O;
note = Ohorn;
rightKerningGroup = O;
unicode = 01A0;
},
{
glyphname = Ohornacute;
lastChange = "2015-11-24 05:27:20 +0000";
layers = (
{
layerId = "5F179057-6D0F-420F-80EA-7F467AAFD28D";
name = Regular;
paths = (
{
closed = 1;
nodes = (
"538 -15 OFFCURVE",
"636 97 OFFCURVE",
"636 321 CURVE SMOOTH",
"636 393 OFFCURVE",
"626 453 OFFCURVE",
"606 502 CURVE",
"695 520 OFFCURVE",
"728 574 OFFCURVE",
"728 650 CURVE SMOOTH",
"728 689 LINE",
"600 689 LINE",
"600 651 LINE SMOOTH",
"600 614 OFFCURVE",
"596 596 OFFCURVE",
"555 583 CURVE",
"505 636 OFFCURVE",
"432 662 OFFCURVE",
"332 662 CURVE SMOOTH",
"117 662 OFFCURVE",
"27 545 OFFCURVE",
"27 321 CURVE SMOOTH",
"27 97 OFFCURVE",
"125 -15 OFFCURVE",
"332 -15 CURVE SMOOTH"
);
},
{
closed = 1;
nodes = (
"212 74 OFFCURVE",
"157 140 OFFCURVE",
"157 321 CURVE SMOOTH",
"157 506 OFFCURVE",
"211 573 OFFCURVE",
"332 573 CURVE SMOOTH",
"451 573 OFFCURVE",
"505 506 OFFCURVE",
"505 321 CURVE SMOOTH",
"505 140 OFFCURVE",
"451 74 OFFCURVE",
"332 74 CURVE SMOOTH"
);
},
{
closed = 1;
nodes = (
"366 699 LINE",
"479 879 LINE",
"331 879 LINE",
"254 699 LINE"
);
}
);
width = 720;
}
);
leftKerningGroup = O;
note = Ohornacute;
rightKerningGroup = O;
unicode = 1EDA;
},
{
glyphname = Ohorndotbelow;
lastChange = "2015-11-24 05:27:21 +0000";
layers = (
{
layerId = "5F179057-6D0F-420F-80EA-7F467AAFD28D";
name = Regular;
paths = (
{
closed = 1;
nodes = (
"538 -15 OFFCURVE",
"636 97 OFFCURVE",
"636 321 CURVE SMOOTH",
"636 393 OFFCURVE",
"626 453 OFFCURVE",
"606 502 CURVE",
"695 520 OFFCURVE",
"728 574 OFFCURVE",
"728 650 CURVE SMOOTH",
"728 689 LINE",
"600 689 LINE",
"600 651 LINE SMOOTH",
"600 614 OFFCURVE",
"596 596 OFFCURVE",
"555 583 CURVE",
"505 636 OFFCURVE",
"432 662 OFFCURVE",
"332 662 CURVE SMOOTH",
"117 662 OFFCURVE",
"27 545 OFFCURVE",
"27 321 CURVE SMOOTH",
"27 97 OFFCURVE",
"125 -15 OFFCURVE",
"332 -15 CURVE SMOOTH"
);
},
{
closed = 1;
nodes = (
"381 -171 LINE",
"381 -61 LINE",
"277 -61 LINE",
"277 -171 LINE"
);
},
{
closed = 1;
nodes = (
"212 74 OFFCURVE",
"157 140 OFFCURVE",
"157 321 CURVE SMOOTH",
"157 506 OFFCURVE",
"211 573 OFFCURVE",
"332 573 CURVE SMOOTH",
"451 573 OFFCURVE",
"505 506 OFFCURVE",
"505 321 CURVE SMOOTH",
"505 140 OFFCURVE",
"451 74 OFFCURVE",
"332 74 CURVE SMOOTH"
);
}
);
width = 720;
}
);
leftKerningGroup = O;
note = Ohorndotbelow;
rightKerningGroup = O;
unicode = 1EE2;
},
{
glyphname = Ohorngrave;
lastChange = "2015-11-24 05:27:21 +0000";
layers = (
{
layerId = "5F179057-6D0F-420F-80EA-7F467AAFD28D";
name = Regular;
paths = (
{
closed = 1;
nodes = (
"538 -15 OFFCURVE",
"636 97 OFFCURVE",
"636 321 CURVE SMOOTH",
"636 393 OFFCURVE",
"626 453 OFFCURVE",
"606 502 CURVE",
"695 520 OFFCURVE",
"728 574 OFFCURVE",
"728 650 CURVE SMOOTH",
"728 689 LINE",
"600 689 LINE",
"600 651 LINE SMOOTH",
"600 614 OFFCURVE",
"596 596 OFFCURVE",
"555 583 CURVE",
"505 636 OFFCURVE",
"432 662 OFFCURVE",
"332 662 CURVE SMOOTH",
"117 662 OFFCURVE",
"27 545 OFFCURVE",
"27 321 CURVE SMOOTH",
"27 97 OFFCURVE",
"125 -15 OFFCURVE",
"332 -15 CURVE SMOOTH"
);
},
{
closed = 1;
nodes = (
"212 74 OFFCURVE",
"157 140 OFFCURVE",
"157 321 CURVE SMOOTH",
"157 506 OFFCURVE",
"211 573 OFFCURVE",
"332 573 CURVE SMOOTH",
"451 573 OFFCURVE",
"505 506 OFFCURVE",
"505 321 CURVE SMOOTH",
"505 140 OFFCURVE",
"451 74 OFFCURVE",
"332 74 CURVE SMOOTH"
);
},
{
closed = 1;
nodes = (
"375 699 LINE",
"297 879 LINE",
"148 879 LINE",
"261 699 LINE"
);
}
);
width = 720;
}
);
leftKerningGroup = O;
note = Ohorngrave;
rightKerningGroup = O;
unicode = 1EDC;
},
{
glyphname = Ohornhookabove;
lastChange = "2015-11-24 05:27:19 +0000";
layers = (
{
layerId = "5F179057-6D0F-420F-80EA-7F467AAFD28D";
name = Regular;
paths = (
{
closed = 1;
nodes = (
"538 -15 OFFCURVE",
"636 97 OFFCURVE",
"636 321 CURVE SMOOTH",
"636 393 OFFCURVE",
"626 453 OFFCURVE",
"606 502 CURVE",
"695 520 OFFCURVE",
"728 574 OFFCURVE",
"728 650 CURVE SMOOTH",
"728 689 LINE",
"600 689 LINE",
"600 651 LINE SMOOTH",
"600 614 OFFCURVE",
"596 596 OFFCURVE",
"555 583 CURVE",
"505 636 OFFCURVE",
"432 662 OFFCURVE",
"332 662 CURVE SMOOTH",
"117 662 OFFCURVE",
"27 545 OFFCURVE",
"27 321 CURVE SMOOTH",
"27 97 OFFCURVE",
"125 -15 OFFCURVE",
"332 -15 CURVE SMOOTH"
);
},
{
closed = 1;
nodes = (
"212 74 OFFCURVE",
"157 140 OFFCURVE",
"157 321 CURVE SMOOTH",
"157 506 OFFCURVE",
"211 573 OFFCURVE",
"332 573 CURVE SMOOTH",
"451 573 OFFCURVE",
"505 506 OFFCURVE",
"505 321 CURVE SMOOTH",
"505 140 OFFCURVE",
"451 74 OFFCURVE",
"332 74 CURVE SMOOTH"
);
},
{
closed = 1;
nodes = (
"377 700 LINE",
"377 741 LINE",
"419 754 OFFCURVE",
"439 780 OFFCURVE",
"439 822 CURVE SMOOTH",
"439 883 OFFCURVE",
"393 907 OFFCURVE",
"317 907 CURVE SMOOTH",
"283 907 OFFCURVE",
"254 902 OFFCURVE",
"236 895 CURVE",
"236 827 LINE",
"249 833 OFFCURVE",
"267 836 OFFCURVE",
"283 836 CURVE SMOOTH",
"315 836 OFFCURVE",
"327 827 OFFCURVE",
"327 804 CURVE SMOOTH",
"327 782 OFFCURVE",
"315 765 OFFCURVE",
"270 765 CURVE",
"270 700 LINE"
);
}
);
width = 720;
}
);
leftKerningGroup = O;
note = Ohornhookabove;
rightKerningGroup = O;
unicode = 1EDE;
},
{
glyphname = Ohorntilde;
lastChange = "2015-11-24 05:27:18 +0000";
layers = (
{
layerId = "5F179057-6D0F-420F-80EA-7F467AAFD28D";
name = Regular;
paths = (
{
closed = 1;
nodes = (
"538 -15 OFFCURVE",
"636 97 OFFCURVE",
"636 321 CURVE SMOOTH",
"636 393 OFFCURVE",
"626 453 OFFCURVE",
"606 502 CURVE",
"695 520 OFFCURVE",
"728 574 OFFCURVE",
"728 650 CURVE SMOOTH",
"728 689 LINE",
"600 689 LINE",
"600 651 LINE SMOOTH",
"600 614 OFFCURVE",
"596 596 OFFCURVE",
"555 583 CURVE",
"505 636 OFFCURVE",
"432 662 OFFCURVE",
"332 662 CURVE SMOOTH",
"117 662 OFFCURVE",
"27 545 OFFCURVE",
"27 321 CURVE SMOOTH",
"27 97 OFFCURVE",
"125 -15 OFFCURVE",
"332 -15 CURVE SMOOTH"
);
},
{
closed = 1;
nodes = (
"212 74 OFFCURVE",
"157 140 OFFCURVE",
"157 321 CURVE SMOOTH",
"157 506 OFFCURVE",
"211 573 OFFCURVE",
"332 573 CURVE SMOOTH",
"451 573 OFFCURVE",
"505 506 OFFCURVE",
"505 321 CURVE SMOOTH",
"505 140 OFFCURVE",
"451 74 OFFCURVE",
"332 74 CURVE SMOOTH"
);
},
{
closed = 1;
nodes = (
"218 700 LINE",
"218 737 OFFCURVE",
"234 750 OFFCURVE",
"263 750 CURVE SMOOTH",
"311 750 OFFCURVE",
"346 700 OFFCURVE",
"420 700 CURVE SMOOTH",
"500 700 OFFCURVE",
"534 746 OFFCURVE",
"534 853 CURVE",
"441 853 LINE",
"441 816 OFFCURVE",
"426 801 OFFCURVE",
"397 801 CURVE SMOOTH",
"350 801 OFFCURVE",
"315 853 OFFCURVE",
"242 853 CURVE SMOOTH",
"160 853 OFFCURVE",
"124 804 OFFCURVE",
"124 700 CURVE"
);
}
);
width = 720;
}
);
leftKerningGroup = O;
note = Ohorntilde;
rightKerningGroup = O;
unicode = 1EE0;
},
{
glyphname = Ohungarumlaut;
lastChange = "2015-11-24 05:27:19 +0000";
layers = (
{
layerId = "5F179057-6D0F-420F-80EA-7F467AAFD28D";
name = Regular;
paths = (
{
closed = 1;
nodes = (
"538 -15 OFFCURVE",
"636 97 OFFCURVE",
"636 321 CURVE SMOOTH",
"636 545 OFFCURVE",
"545 662 OFFCURVE",
"332 662 CURVE SMOOTH",
"117 662 OFFCURVE",
"27 545 OFFCURVE",
"27 321 CURVE SMOOTH",
"27 97 OFFCURVE",
"125 -15 OFFCURVE",
"332 -15 CURVE SMOOTH"
);
},
{
closed = 1;
nodes = (
"212 74 OFFCURVE",
"157 140 OFFCURVE",
"157 321 CURVE SMOOTH",
"157 506 OFFCURVE",
"211 573 OFFCURVE",
"332 573 CURVE SMOOTH",
"451 573 OFFCURVE",
"506 506 OFFCURVE",
"506 321 CURVE SMOOTH",
"506 140 OFFCURVE",
"451 74 OFFCURVE",
"332 74 CURVE SMOOTH"
);
},
{
closed = 1;
nodes = (
"252 699 LINE",
"374 892 LINE",
"222 892 LINE",
"134 699 LINE"
);
},
{
closed = 1;
nodes = (
"467 699 LINE",
"591 892 LINE",
"437 892 LINE",
"350 699 LINE"
);
}
);
width = 663;
}
);
leftKerningGroup = O;
note = Ohungarumlaut;
rightKerningGroup = O;
unicode = 0150;
},
{
glyphname = Omacron;
lastChange = "2015-11-24 05:27:19 +0000";
layers = (
{
layerId = "5F179057-6D0F-420F-80EA-7F467AAFD28D";
name = Regular;
paths = (
{
closed = 1;
nodes = (
"538 -15 OFFCURVE",
"636 97 OFFCURVE",
"636 321 CURVE SMOOTH",
"636 545 OFFCURVE",
"545 662 OFFCURVE",
"332 662 CURVE SMOOTH",
"117 662 OFFCURVE",
"27 545 OFFCURVE",
"27 321 CURVE SMOOTH",
"27 97 OFFCURVE",
"125 -15 OFFCURVE",
"332 -15 CURVE SMOOTH"
);
},
{
closed = 1;
nodes = (
"212 74 OFFCURVE",
"157 140 OFFCURVE",
"157 321 CURVE SMOOTH",
"157 506 OFFCURVE",
"211 573 OFFCURVE",
"332 573 CURVE SMOOTH",
"451 573 OFFCURVE",
"506 506 OFFCURVE",
"506 321 CURVE SMOOTH",
"506 140 OFFCURVE",
"451 74 OFFCURVE",
"332 74 CURVE SMOOTH"
);
},
{
closed = 1;
nodes = (
"481 720 LINE",
"481 801 LINE",
"182 801 LINE",
"182 720 LINE"
);
}
);
width = 663;
}
);
leftKerningGroup = O;
note = Omacron;
rightKerningGroup = O;
unicode = 014C;
},
{
glyphname = Oslash;
lastChange = "2015-11-24 05:27:21 +0000";
layers = (
{
layerId = "5F179057-6D0F-420F-80EA-7F467AAFD28D";
name = Regular;
paths = (
{
closed = 1;
nodes = (
"216 -43 LINE",
"230 -4 LINE",
"260 -11 OFFCURVE",
"294 -15 OFFCURVE",
"332 -15 CURVE SMOOTH",
"538 -15 OFFCURVE",
"636 97 OFFCURVE",
"636 321 CURVE SMOOTH",
"636 490 OFFCURVE",
"584 597 OFFCURVE",
"468 640 CURVE",
"487 689 LINE",
"431 689 LINE",
"417 654 LINE",
"391 659 OFFCURVE",
"363 662 OFFCURVE",
"332 662 CURVE SMOOTH",
"117 662 OFFCURVE",
"27 545 OFFCURVE",
"27 321 CURVE SMOOTH",
"27 161 OFFCURVE",
"76 58 OFFCURVE",
"180 13 CURVE",
"160 -43 LINE"
);
},
{
closed = 1;
nodes = (
"176 150 OFFCURVE",
"157 216 OFFCURVE",
"157 321 CURVE SMOOTH",
"157 506 OFFCURVE",
"211 573 OFFCURVE",
"332 573 CURVE SMOOTH",
"352 573 OFFCURVE",
"370 571 OFFCURVE",
"386 567 CURVE",
"217 113 LINE"
);
},
{
closed = 1;
nodes = (
"305 74 OFFCURVE",
"282 76 OFFCURVE",
"262 84 CURVE",
"433 546 LINE",
"482 511 OFFCURVE",
"506 440 OFFCURVE",
"506 321 CURVE SMOOTH",
"506 140 OFFCURVE",
"451 74 OFFCURVE",
"332 74 CURVE SMOOTH"
);
}
);
width = 663;
}
);
leftKerningGroup = O;
note = Oslash;
rightKerningGroup = O;
unicode = 00D8;
},
{
glyphname = Oslashacute;
lastChange = "2015-11-24 05:27:18 +0000";
layers = (
{
layerId = "5F179057-6D0F-420F-80EA-7F467AAFD28D";
name = Regular;
paths = (
{
closed = 1;
nodes = (
"216 -43 LINE",
"230 -4 LINE",
"260 -11 OFFCURVE",
"294 -15 OFFCURVE",
"332 -15 CURVE SMOOTH",
"538 -15 OFFCURVE",
"636 97 OFFCURVE",
"636 321 CURVE SMOOTH",
"636 490 OFFCURVE",
"584 597 OFFCURVE",
"468 640 CURVE",
"487 689 LINE",
"431 689 LINE",
"417 654 LINE",
"391 659 OFFCURVE",
"363 662 OFFCURVE",
"332 662 CURVE SMOOTH",
"117 662 OFFCURVE",
"27 545 OFFCURVE",
"27 321 CURVE SMOOTH",
"27 161 OFFCURVE",
"76 58 OFFCURVE",
"180 13 CURVE",
"160 -43 LINE"
);
},
{
closed = 1;
nodes = (
"176 150 OFFCURVE",
"157 216 OFFCURVE",
"157 321 CURVE SMOOTH",
"157 506 OFFCURVE",
"211 573 OFFCURVE",
"332 573 CURVE SMOOTH",
"352 573 OFFCURVE",
"370 571 OFFCURVE",
"386 567 CURVE",
"217 113 LINE"
);
},
{
closed = 1;
nodes = (
"305 74 OFFCURVE",
"282 76 OFFCURVE",
"262 84 CURVE",
"433 546 LINE",
"482 511 OFFCURVE",
"506 440 OFFCURVE",
"506 321 CURVE SMOOTH",
"506 140 OFFCURVE",
"451 74 OFFCURVE",
"332 74 CURVE SMOOTH"
);
},
{
closed = 1;
nodes = (
"378 698 LINE",
"492 878 LINE",
"343 878 LINE",
"266 698 LINE"
);
}
);
width = 663;
}
);
leftKerningGroup = O;
note = Oslashacute;
rightKerningGroup = O;
unicode = 01FE;
},
{
glyphname = Otilde;
lastChange = "2015-11-24 05:27:21 +0000";
layers = (
{
layerId = "5F179057-6D0F-420F-80EA-7F467AAFD28D";
name = Regular;
paths = (
{
closed = 1;
nodes = (
"538 -15 OFFCURVE",
"636 97 OFFCURVE",
"636 321 CURVE SMOOTH",
"636 545 OFFCURVE",
"545 662 OFFCURVE",
"332 662 CURVE SMOOTH",
"117 662 OFFCURVE",
"27 545 OFFCURVE",
"27 321 CURVE SMOOTH",
"27 97 OFFCURVE",
"125 -15 OFFCURVE",
"332 -15 CURVE SMOOTH"
);
},
{
closed = 1;
nodes = (
"212 74 OFFCURVE",
"157 140 OFFCURVE",
"157 321 CURVE SMOOTH",
"157 506 OFFCURVE",
"211 573 OFFCURVE",
"332 573 CURVE SMOOTH",
"451 573 OFFCURVE",
"506 506 OFFCURVE",
"506 321 CURVE SMOOTH",
"506 140 OFFCURVE",
"451 74 OFFCURVE",
"332 74 CURVE SMOOTH"
);
},
{
closed = 1;
nodes = (
"220 700 LINE",
"220 737 OFFCURVE",
"236 750 OFFCURVE",
"265 750 CURVE SMOOTH",
"313 750 OFFCURVE",
"348 700 OFFCURVE",
"422 700 CURVE SMOOTH",
"502 700 OFFCURVE",
"536 746 OFFCURVE",
"536 853 CURVE",
"443 853 LINE",
"443 816 OFFCURVE",
"428 801 OFFCURVE",
"399 801 CURVE SMOOTH",
"352 801 OFFCURVE",
"317 853 OFFCURVE",
"244 853 CURVE SMOOTH",
"162 853 OFFCURVE",
"126 804 OFFCURVE",
"126 700 CURVE"
);
}
);
width = 663;
}
);
leftKerningGroup = O;
note = Otilde;
rightKerningGroup = O;
unicode = 00D5;
},
{
glyphname = OE;
lastChange = "2015-11-24 05:27:20 +0000";
layers = (
{
layerId = "5F179057-6D0F-420F-80EA-7F467AAFD28D";
name = Regular;
paths = (
{
closed = 1;
nodes = (
"778 0 LINE",
"778 143 LINE",
"658 143 LINE",
"658 125 LINE SMOOTH",
"658 99 OFFCURVE",
"646 87 OFFCURVE",
"619 87 CURVE SMOOTH",
"483 87 LINE",
"483 280 LINE",
"637 280 LINE",
"637 368 LINE",
"483 368 LINE",
"483 560 LINE",
"619 560 LINE SMOOTH",
"646 560 OFFCURVE",
"658 548 OFFCURVE",
"658 523 CURVE SMOOTH",
"658 505 LINE",
"778 505 LINE",
"778 647 LINE",
"351 647 LINE SMOOTH",
"135 647 OFFCURVE",
"27 546 OFFCURVE",
"27 321 CURVE SMOOTH",
"27 96 OFFCURVE",
"142 0 OFFCURVE",
"351 0 CURVE SMOOTH"
);
},
{
closed = 1;
nodes = (
"224 87 OFFCURVE",
"157 158 OFFCURVE",
"157 321 CURVE SMOOTH",
"157 487 OFFCURVE",
"225 560 OFFCURVE",
"321 560 CURVE SMOOTH",
"364 560 LINE",
"364 87 LINE",
"319 87 LINE SMOOTH"
);
}
);
width = 805;
}
);
leftKerningGroup = C;
note = OE;
unicode = 0152;
},
{
glyphname = P;
lastChange = "2015-11-24 05:27:19 +0000";
layers = (
{
layerId = "5F179057-6D0F-420F-80EA-7F467AAFD28D";
name = Regular;
paths = (
{
closed = 1;
nodes = (
"287 0 LINE",
"287 87 LINE",
"259 87 LINE SMOOTH",
"230 87 OFFCURVE",
"220 101 OFFCURVE",
"220 124 CURVE SMOOTH",
"220 234 LINE",
"374 234 LINE SMOOTH",
"512 234 OFFCURVE",
"599 312 OFFCURVE",
"599 444 CURVE SMOOTH",
"599 578 OFFCURVE",
"512 647 OFFCURVE",
"375 647 CURVE SMOOTH",
"27 647 LINE",
"27 560 LINE",
"52 560 LINE SMOOTH",
"81 560 OFFCURVE",
"92 547 OFFCURVE",
"92 523 CURVE SMOOTH",
"92 124 LINE SMOOTH",
"92 101 OFFCURVE",
"81 87 OFFCURVE",
"52 87 CURVE SMOOTH",
"27 87 LINE",
"27 0 LINE"
);
},
{
closed = 1;
nodes = (
"220 560 LINE",
"357 560 LINE SMOOTH",
"434 560 OFFCURVE",
"470 531 OFFCURVE",
"470 444 CURVE SMOOTH",
"470 361 OFFCURVE",
"433 321 OFFCURVE",
"357 321 CURVE SMOOTH",
"220 321 LINE"
);
}
);
width = 626;
}
);
note = P;
unicode = 0050;
},
{
glyphname = Thorn;
lastChange = "2015-11-24 05:27:20 +0000";
layers = (
{
layerId = "5F179057-6D0F-420F-80EA-7F467AAFD28D";
name = Regular;
paths = (
{
closed = 1;
nodes = (
"287 0 LINE",
"287 87 LINE",
"259 87 LINE SMOOTH",
"230 87 OFFCURVE",
"220 101 OFFCURVE",
"220 124 CURVE SMOOTH",
"220 145 LINE",
"374 145 LINE SMOOTH",
"512 145 OFFCURVE",
"599 223 OFFCURVE",
"599 355 CURVE SMOOTH",
"599 489 OFFCURVE",
"512 558 OFFCURVE",
"375 558 CURVE SMOOTH",
"220 558 LINE",
"220 647 LINE",
"27 647 LINE",
"27 560 LINE",
"53 560 LINE SMOOTH",
"82 560 OFFCURVE",
"92 546 OFFCURVE",
"92 523 CURVE SMOOTH",
"92 124 LINE SMOOTH",
"92 101 OFFCURVE",
"81 87 OFFCURVE",
"52 87 CURVE SMOOTH",
"27 87 LINE",
"27 0 LINE"
);
},
{
closed = 1;
nodes = (
"220 471 LINE",
"357 471 LINE SMOOTH",
"434 471 OFFCURVE",
"470 442 OFFCURVE",
"470 355 CURVE SMOOTH",
"470 272 OFFCURVE",
"433 232 OFFCURVE",
"357 232 CURVE SMOOTH",
"220 232 LINE"
);
}
);
width = 626;
}
);
note = Thorn;
unicode = 00DE;
},
{
glyphname = Q;
lastChange = "2015-11-24 05:27:18 +0000";
layers = (
{
layerId = "5F179057-6D0F-420F-80EA-7F467AAFD28D";
name = Regular;
paths = (
{
closed = 1;
nodes = (
"528 -145 OFFCURVE",
"583 -118 OFFCURVE",
"614 -76 CURVE",
"614 -15 LINE",
"512 -15 LINE",
"512 -42 LINE",
"500 -51 OFFCURVE",
"480 -59 OFFCURVE",
"456 -59 CURVE SMOOTH",
"425 -59 OFFCURVE",
"390 -53 OFFCURVE",
"382 -13 CURVE",
"553 5 OFFCURVE",
"636 125 OFFCURVE",
"636 321 CURVE SMOOTH",
"636 533 OFFCURVE",
"545 662 OFFCURVE",
"332 662 CURVE SMOOTH",
"117 662 OFFCURVE",
"27 533 OFFCURVE",
"27 321 CURVE SMOOTH",
"27 126 OFFCURVE",
"109 5 OFFCURVE",
"281 -13 CURVE",
"295 -86 OFFCURVE",
"346 -145 OFFCURVE",
"454 -145 CURVE SMOOTH"
);
},
{
closed = 1;
nodes = (
"212 74 OFFCURVE",
"157 152 OFFCURVE",
"157 321 CURVE SMOOTH",
"157 494 OFFCURVE",
"211 573 OFFCURVE",
"332 573 CURVE SMOOTH",
"451 573 OFFCURVE",
"506 494 OFFCURVE",
"506 321 CURVE SMOOTH",
"506 152 OFFCURVE",
"451 74 OFFCURVE",
"332 74 CURVE SMOOTH"
);
}
);
width = 663;
}
);
leftKerningGroup = O;
note = Q;
rightKerningGroup = O;
unicode = 0051;
},
{
glyphname = R;
lastChange = "2015-11-24 05:27:18 +0000";
layers = (
{
layerId = "5F179057-6D0F-420F-80EA-7F467AAFD28D";
name = Regular;
paths = (
{
closed = 1;
nodes = (
"277 0 LINE",
"277 87 LINE",
"253 87 LINE SMOOTH",
"227 87 OFFCURVE",
"220 98 OFFCURVE",
"220 121 CURVE SMOOTH",
"220 246 LINE",
"324 246 LINE",
"408 87 LINE",
"368 87 LINE",
"368 0 LINE",
"602 0 LINE",
"602 87 LINE",
"578 87 LINE SMOOTH",
"550 87 OFFCURVE",
"534 95 OFFCURVE",
"521 118 CURVE SMOOTH",
"443 261 LINE",
"537 287 OFFCURVE",
"588 355 OFFCURVE",
"588 450 CURVE SMOOTH",
"588 580 OFFCURVE",
"503 647 OFFCURVE",
"365 647 CURVE SMOOTH",
"27 647 LINE",
"27 560 LINE",
"52 560 LINE SMOOTH",
"81 560 OFFCURVE",
"92 547 OFFCURVE",
"92 523 CURVE SMOOTH",
"92 124 LINE SMOOTH",
"92 101 OFFCURVE",
"81 87 OFFCURVE",
"52 87 CURVE SMOOTH",
"27 87 LINE",
"27 0 LINE"
);
},
{
closed = 1;
nodes = (
"220 560 LINE",
"345 560 LINE SMOOTH",
"425 560 OFFCURVE",
"459 529 OFFCURVE",
"459 450 CURVE SMOOTH",
"459 375 OFFCURVE",
"424 333 OFFCURVE",
"345 333 CURVE SMOOTH",
"220 333 LINE"
);
}
);
width = 629;
}
);
note = R;
rightKerningGroup = R;
unicode = 0052;
},
{
glyphname = Racute;
lastChange = "2015-11-24 05:27:18 +0000";
layers = (
{
layerId = "5F179057-6D0F-420F-80EA-7F467AAFD28D";
name = Regular;
paths = (
{
closed = 1;
nodes = (
"277 0 LINE",
"277 87 LINE",
"253 87 LINE SMOOTH",
"227 87 OFFCURVE",
"220 98 OFFCURVE",
"220 121 CURVE SMOOTH",
"220 246 LINE",
"324 246 LINE",
"408 87 LINE",
"368 87 LINE",
"368 0 LINE",
"602 0 LINE",
"602 87 LINE",
"578 87 LINE SMOOTH",
"550 87 OFFCURVE",
"534 95 OFFCURVE",
"521 118 CURVE SMOOTH",
"443 261 LINE",
"537 287 OFFCURVE",
"588 355 OFFCURVE",
"588 450 CURVE SMOOTH",
"588 580 OFFCURVE",
"503 647 OFFCURVE",
"365 647 CURVE SMOOTH",
"27 647 LINE",
"27 560 LINE",
"52 560 LINE SMOOTH",
"81 560 OFFCURVE",
"92 547 OFFCURVE",
"92 523 CURVE SMOOTH",
"92 124 LINE SMOOTH",
"92 101 OFFCURVE",
"81 87 OFFCURVE",
"52 87 CURVE SMOOTH",
"27 87 LINE",
"27 0 LINE"
);
},
{
closed = 1;
nodes = (
"220 560 LINE",
"345 560 LINE SMOOTH",
"425 560 OFFCURVE",
"459 529 OFFCURVE",
"459 450 CURVE SMOOTH",
"459 375 OFFCURVE",
"424 333 OFFCURVE",
"345 333 CURVE SMOOTH",
"220 333 LINE"
);
},
{
closed = 1;
nodes = (
"321 699 LINE",
"434 879 LINE",
"286 879 LINE",
"209 699 LINE"
);
}
);
width = 629;
}
);
note = Racute;
rightKerningGroup = R;
unicode = 0154;
},
{
glyphname = Rcaron;
lastChange = "2015-11-24 05:27:19 +0000";
layers = (
{
layerId = "5F179057-6D0F-420F-80EA-7F467AAFD28D";
name = Regular;
paths = (
{
closed = 1;
nodes = (
"277 0 LINE",
"277 87 LINE",
"253 87 LINE SMOOTH",
"227 87 OFFCURVE",
"220 98 OFFCURVE",
"220 121 CURVE SMOOTH",
"220 246 LINE",
"324 246 LINE",
"408 87 LINE",
"368 87 LINE",
"368 0 LINE",
"602 0 LINE",
"602 87 LINE",
"578 87 LINE SMOOTH",
"550 87 OFFCURVE",
"534 95 OFFCURVE",
"521 118 CURVE SMOOTH",
"443 261 LINE",
"537 287 OFFCURVE",
"588 355 OFFCURVE",
"588 450 CURVE SMOOTH",
"588 580 OFFCURVE",
"503 647 OFFCURVE",
"365 647 CURVE SMOOTH",
"27 647 LINE",
"27 560 LINE",
"52 560 LINE SMOOTH",
"81 560 OFFCURVE",
"92 547 OFFCURVE",
"92 523 CURVE SMOOTH",
"92 124 LINE SMOOTH",
"92 101 OFFCURVE",
"81 87 OFFCURVE",
"52 87 CURVE SMOOTH",
"27 87 LINE",
"27 0 LINE"
);
},
{
closed = 1;
nodes = (
"220 560 LINE",
"345 560 LINE SMOOTH",
"425 560 OFFCURVE",
"459 529 OFFCURVE",
"459 450 CURVE SMOOTH",
"459 375 OFFCURVE",
"424 333 OFFCURVE",
"345 333 CURVE SMOOTH",
"220 333 LINE"
);
},
{
closed = 1;
nodes = (
"356 700 LINE",
"486 893 LINE",
"365 893 LINE",
"295 773 LINE",
"225 893 LINE",
"105 893 LINE",
"236 700 LINE"
);
}
);
width = 629;
}
);
note = Rcaron;
rightKerningGroup = R;
unicode = 0158;
},
{
glyphname = Rcommaaccent;
lastChange = "2015-11-24 05:27:20 +0000";
layers = (
{
layerId = "5F179057-6D0F-420F-80EA-7F467AAFD28D";
name = Regular;
paths = (
{
closed = 1;
nodes = (
"277 0 LINE",
"277 87 LINE",
"253 87 LINE SMOOTH",
"227 87 OFFCURVE",
"220 98 OFFCURVE",
"220 121 CURVE SMOOTH",
"220 246 LINE",
"324 246 LINE",
"408 87 LINE",
"368 87 LINE",
"368 0 LINE",
"602 0 LINE",
"602 87 LINE",
"578 87 LINE SMOOTH",
"550 87 OFFCURVE",
"534 95 OFFCURVE",
"521 118 CURVE SMOOTH",
"443 261 LINE",
"537 287 OFFCURVE",
"588 355 OFFCURVE",
"588 450 CURVE SMOOTH",
"588 580 OFFCURVE",
"503 647 OFFCURVE",
"365 647 CURVE SMOOTH",
"27 647 LINE",
"27 560 LINE",
"52 560 LINE SMOOTH",
"81 560 OFFCURVE",
"92 547 OFFCURVE",
"92 523 CURVE SMOOTH",
"92 124 LINE SMOOTH",
"92 101 OFFCURVE",
"81 87 OFFCURVE",
"52 87 CURVE SMOOTH",
"27 87 LINE",
"27 0 LINE"
);
},
{
closed = 1;
nodes = (
"340 -263 LINE",
"405 -49 LINE",
"264 -49 LINE",
"232 -263 LINE"
);
},
{
closed = 1;
nodes = (
"220 560 LINE",
"345 560 LINE SMOOTH",
"425 560 OFFCURVE",
"459 529 OFFCURVE",
"459 450 CURVE SMOOTH",
"459 375 OFFCURVE",
"424 333 OFFCURVE",
"345 333 CURVE SMOOTH",
"220 333 LINE"
);
}
);
width = 629;
}
);
note = Rcommaaccent;
rightKerningGroup = R;
unicode = 0156;
},
{
glyphname = Rdotbelow;
lastChange = "2015-11-24 05:27:18 +0000";
layers = (
{
layerId = "5F179057-6D0F-420F-80EA-7F467AAFD28D";
name = Regular;
paths = (
{
closed = 1;
nodes = (
"277 0 LINE",
"277 87 LINE",
"253 87 LINE SMOOTH",
"227 87 OFFCURVE",
"220 98 OFFCURVE",
"220 121 CURVE SMOOTH",
"220 246 LINE",
"324 246 LINE",
"408 87 LINE",
"368 87 LINE",
"368 0 LINE",
"602 0 LINE",
"602 87 LINE",
"578 87 LINE SMOOTH",
"550 87 OFFCURVE",
"534 95 OFFCURVE",
"521 118 CURVE SMOOTH",
"443 261 LINE",
"537 287 OFFCURVE",
"588 355 OFFCURVE",
"588 450 CURVE SMOOTH",
"588 580 OFFCURVE",
"503 647 OFFCURVE",
"365 647 CURVE SMOOTH",
"27 647 LINE",
"27 560 LINE",
"52 560 LINE SMOOTH",
"81 560 OFFCURVE",
"92 547 OFFCURVE",
"92 523 CURVE SMOOTH",
"92 124 LINE SMOOTH",
"92 101 OFFCURVE",
"81 87 OFFCURVE",
"52 87 CURVE SMOOTH",
"27 87 LINE",
"27 0 LINE"
);
},
{
closed = 1;
nodes = (
"347 -171 LINE",
"347 -61 LINE",
"243 -61 LINE",
"243 -171 LINE"
);
},
{
closed = 1;
nodes = (
"220 560 LINE",
"345 560 LINE SMOOTH",
"425 560 OFFCURVE",
"459 529 OFFCURVE",
"459 450 CURVE SMOOTH",
"459 375 OFFCURVE",
"424 333 OFFCURVE",
"345 333 CURVE SMOOTH",
"220 333 LINE"
);
}
);
width = 629;
}
);
note = Rdotbelow;
rightKerningGroup = R;
unicode = 1E5A;
},
{
glyphname = Rdotbelowmacron;
lastChange = "2015-11-24 05:27:18 +0000";
layers = (
{
layerId = "5F179057-6D0F-420F-80EA-7F467AAFD28D";
name = Regular;
paths = (
{
closed = 1;
nodes = (
"277 0 LINE",
"277 87 LINE",
"253 87 LINE SMOOTH",
"227 87 OFFCURVE",
"220 98 OFFCURVE",
"220 121 CURVE SMOOTH",
"220 246 LINE",
"324 246 LINE",
"408 87 LINE",
"368 87 LINE",
"368 0 LINE",
"602 0 LINE",
"602 87 LINE",
"578 87 LINE SMOOTH",
"550 87 OFFCURVE",
"534 95 OFFCURVE",
"521 118 CURVE SMOOTH",
"443 261 LINE",
"537 287 OFFCURVE",
"588 355 OFFCURVE",
"588 450 CURVE SMOOTH",
"588 580 OFFCURVE",
"503 647 OFFCURVE",
"365 647 CURVE SMOOTH",
"27 647 LINE",
"27 560 LINE",
"52 560 LINE SMOOTH",
"81 560 OFFCURVE",
"92 547 OFFCURVE",
"92 523 CURVE SMOOTH",
"92 124 LINE SMOOTH",
"92 101 OFFCURVE",
"81 87 OFFCURVE",
"52 87 CURVE SMOOTH",
"27 87 LINE",
"27 0 LINE"
);
},
{
closed = 1;
nodes = (
"344 -171 LINE",
"344 -61 LINE",
"240 -61 LINE",
"240 -171 LINE"
);
},
{
closed = 1;
nodes = (
"220 560 LINE",
"345 560 LINE SMOOTH",
"425 560 OFFCURVE",
"459 529 OFFCURVE",
"459 450 CURVE SMOOTH",
"459 375 OFFCURVE",
"424 333 OFFCURVE",
"345 333 CURVE SMOOTH",
"220 333 LINE"
);
},
{
closed = 1;
nodes = (
"434 720 LINE",
"434 801 LINE",
"135 801 LINE",
"135 720 LINE"
);
}
);
width = 629;
}
);
note = Rdotbelowmacron;
rightKerningGroup = R;
unicode = 1E5C;
},
{
glyphname = Rlinebelow;
lastChange = "2015-11-24 05:27:18 +0000";
layers = (
{
layerId = "5F179057-6D0F-420F-80EA-7F467AAFD28D";
name = Regular;
paths = (
{
closed = 1;
nodes = (
"277 0 LINE",
"277 87 LINE",
"253 87 LINE SMOOTH",
"227 87 OFFCURVE",
"220 98 OFFCURVE",
"220 121 CURVE SMOOTH",
"220 246 LINE",
"324 246 LINE",
"408 87 LINE",
"368 87 LINE",
"368 0 LINE",
"602 0 LINE",
"602 87 LINE",
"578 87 LINE SMOOTH",
"550 87 OFFCURVE",
"534 95 OFFCURVE",
"521 118 CURVE SMOOTH",
"443 261 LINE",
"537 287 OFFCURVE",
"588 355 OFFCURVE",
"588 450 CURVE SMOOTH",
"588 580 OFFCURVE",
"503 647 OFFCURVE",
"365 647 CURVE SMOOTH",
"27 647 LINE",
"27 560 LINE",
"52 560 LINE SMOOTH",
"81 560 OFFCURVE",
"92 547 OFFCURVE",
"92 523 CURVE SMOOTH",
"92 124 LINE SMOOTH",
"92 101 OFFCURVE",
"81 87 OFFCURVE",
"52 87 CURVE SMOOTH",
"27 87 LINE",
"27 0 LINE"
);
},
{
closed = 1;
nodes = (
"441 -138 LINE",
"441 -57 LINE",
"142 -57 LINE",
"142 -138 LINE"
);
},
{
closed = 1;
nodes = (
"220 560 LINE",
"345 560 LINE SMOOTH",
"425 560 OFFCURVE",
"459 529 OFFCURVE",
"459 450 CURVE SMOOTH",
"459 375 OFFCURVE",
"424 333 OFFCURVE",
"345 333 CURVE SMOOTH",
"220 333 LINE"
);
}
);
width = 629;
}
);
note = Rlinebelow;
rightKerningGroup = R;
unicode = 1E5E;
},
{
glyphname = S;
lastChange = "2015-11-24 05:27:12 +0000";
layers = (
{
layerId = "5F179057-6D0F-420F-80EA-7F467AAFD28D";
name = Regular;
paths = (
{
closed = 1;
nodes = (
"432 -15 OFFCURVE",
"515 63 OFFCURVE",
"515 165 CURVE SMOOTH",
"515 283 OFFCURVE",
"438 317 OFFCURVE",
"304 371 CURVE SMOOTH",
"237 398 OFFCURVE",
"162 427 OFFCURVE",
"162 490 CURVE SMOOTH",
"162 551 OFFCURVE",
"207 573 OFFCURVE",
"269 573 CURVE SMOOTH",
"308 573 OFFCURVE",
"343 566 OFFCURVE",
"369 551 CURVE",
"369 487 LINE",
"503 487 LINE",
"503 586 LINE",
"452 627 OFFCURVE",
"379 662 OFFCURVE",
"276 662 CURVE SMOOTH",
"142 662 OFFCURVE",
"32 607 OFFCURVE",
"32 486 CURVE SMOOTH",
"32 380 OFFCURVE",
"111 332 OFFCURVE",
"244 278 CURVE SMOOTH",
"333 241 OFFCURVE",
"385 219 OFFCURVE",
"385 159 CURVE SMOOTH",
"385 102 OFFCURVE",
"348 74 OFFCURVE",
"279 74 CURVE SMOOTH",
"233 74 OFFCURVE",
"190 84 OFFCURVE",
"160 101 CURVE",
"160 170 LINE",
"27 170 LINE",
"27 63 LINE",
"87 16 OFFCURVE",
"175 -15 OFFCURVE",
"278 -15 CURVE SMOOTH"
);
}
);
width = 542;
}
);
leftKerningGroup = dollar;
note = S;
rightKerningGroup = dollar;
unicode = 0053;
},
{
glyphname = Sacute;
lastChange = "2015-11-24 05:27:18 +0000";
layers = (
{
layerId = "5F179057-6D0F-420F-80EA-7F467AAFD28D";
name = Regular;
paths = (
{
closed = 1;
nodes = (
"432 -15 OFFCURVE",
"515 63 OFFCURVE",
"515 165 CURVE SMOOTH",
"515 283 OFFCURVE",
"438 317 OFFCURVE",
"304 371 CURVE SMOOTH",
"237 398 OFFCURVE",
"162 427 OFFCURVE",
"162 490 CURVE SMOOTH",
"162 551 OFFCURVE",
"207 573 OFFCURVE",
"269 573 CURVE SMOOTH",
"308 573 OFFCURVE",
"343 566 OFFCURVE",
"369 551 CURVE",
"369 487 LINE",
"503 487 LINE",
"503 586 LINE",
"452 627 OFFCURVE",
"379 662 OFFCURVE",
"276 662 CURVE SMOOTH",
"142 662 OFFCURVE",
"32 607 OFFCURVE",
"32 486 CURVE SMOOTH",
"32 380 OFFCURVE",
"111 332 OFFCURVE",
"244 278 CURVE SMOOTH",
"333 241 OFFCURVE",
"385 219 OFFCURVE",
"385 159 CURVE SMOOTH",
"385 102 OFFCURVE",
"348 74 OFFCURVE",
"279 74 CURVE SMOOTH",
"233 74 OFFCURVE",
"190 84 OFFCURVE",
"160 101 CURVE",
"160 170 LINE",
"27 170 LINE",
"27 63 LINE",
"87 16 OFFCURVE",
"175 -15 OFFCURVE",
"278 -15 CURVE SMOOTH"
);
},
{
closed = 1;
nodes = (
"315 699 LINE",
"428 879 LINE",
"280 879 LINE",
"203 699 LINE"
);
}
);
width = 542;
}
);
leftKerningGroup = dollar;
note = Sacute;
rightKerningGroup = dollar;
unicode = 015A;
},
{
glyphname = Scaron;
lastChange = "2015-11-24 05:27:18 +0000";
layers = (
{
layerId = "5F179057-6D0F-420F-80EA-7F467AAFD28D";
name = Regular;
paths = (
{
closed = 1;
nodes = (
"432 -15 OFFCURVE",
"515 63 OFFCURVE",
"515 165 CURVE SMOOTH",
"515 283 OFFCURVE",
"438 317 OFFCURVE",
"304 371 CURVE SMOOTH",
"237 398 OFFCURVE",
"162 427 OFFCURVE",
"162 490 CURVE SMOOTH",
"162 551 OFFCURVE",
"207 573 OFFCURVE",
"269 573 CURVE SMOOTH",
"308 573 OFFCURVE",
"343 566 OFFCURVE",
"369 551 CURVE",
"369 487 LINE",
"503 487 LINE",
"503 586 LINE",
"452 627 OFFCURVE",
"379 662 OFFCURVE",
"276 662 CURVE SMOOTH",
"142 662 OFFCURVE",
"32 607 OFFCURVE",
"32 486 CURVE SMOOTH",
"32 380 OFFCURVE",
"111 332 OFFCURVE",
"244 278 CURVE SMOOTH",
"333 241 OFFCURVE",
"385 219 OFFCURVE",
"385 159 CURVE SMOOTH",
"385 102 OFFCURVE",
"348 74 OFFCURVE",
"279 74 CURVE SMOOTH",
"233 74 OFFCURVE",
"190 84 OFFCURVE",
"160 101 CURVE",
"160 170 LINE",
"27 170 LINE",
"27 63 LINE",
"87 16 OFFCURVE",
"175 -15 OFFCURVE",
"278 -15 CURVE SMOOTH"
);
},
{
closed = 1;
nodes = (
"332 700 LINE",
"462 893 LINE",
"341 893 LINE",
"271 773 LINE",
"201 893 LINE",
"81 893 LINE",
"212 700 LINE"
);
}
);
width = 542;
}
);
leftKerningGroup = dollar;
note = Scaron;
rightKerningGroup = dollar;
unicode = 0160;
},
{
glyphname = Scedilla;
lastChange = "2015-11-24 05:27:12 +0000";
layers = (
{
layerId = "5F179057-6D0F-420F-80EA-7F467AAFD28D";
name = Regular;
paths = (
{
closed = 1;
nodes = (
"358 -228 OFFCURVE",
"402 -192 OFFCURVE",
"402 -130 CURVE SMOOTH",
"402 -82 OFFCURVE",
"380 -53 OFFCURVE",
"324 -43 CURVE",
"329 -12 LINE",
"450 3 OFFCURVE",
"514 75 OFFCURVE",
"514 165 CURVE SMOOTH",
"514 283 OFFCURVE",
"438 317 OFFCURVE",
"304 371 CURVE SMOOTH",
"237 398 OFFCURVE",
"162 423 OFFCURVE",
"162 490 CURVE SMOOTH",
"162 551 OFFCURVE",
"207 574 OFFCURVE",
"269 574 CURVE SMOOTH",
"308 574 OFFCURVE",
"343 566 OFFCURVE",
"369 551 CURVE",
"369 487 LINE",
"503 487 LINE",
"503 586 LINE",
"452 627 OFFCURVE",
"379 662 OFFCURVE",
"276 662 CURVE SMOOTH",
"142 662 OFFCURVE",
"33 607 OFFCURVE",
"33 486 CURVE SMOOTH",
"33 380 OFFCURVE",
"111 333 OFFCURVE",
"244 279 CURVE SMOOTH",
"333 242 OFFCURVE",
"385 219 OFFCURVE",
"385 159 CURVE SMOOTH",
"385 102 OFFCURVE",
"348 73 OFFCURVE",
"279 73 CURVE SMOOTH",
"233 73 OFFCURVE",
"190 84 OFFCURVE",
"160 101 CURVE",
"160 170 LINE",
"27 170 LINE",
"27 63 LINE",
"73 27 OFFCURVE",
"136 0 OFFCURVE",
"209 -10 CURVE",
"199 -80 LINE",
"275 -80 OFFCURVE",
"290 -95 OFFCURVE",
"290 -125 CURVE SMOOTH",
"290 -144 OFFCURVE",
"276 -155 OFFCURVE",
"243 -155 CURVE SMOOTH",
"221 -155 OFFCURVE",
"193 -150 OFFCURVE",
"171 -140 CURVE",
"171 -213 LINE",
"198 -224 OFFCURVE",
"224 -228 OFFCURVE",
"256 -228 CURVE SMOOTH"
);
}
);
width = 541;
}
);
leftKerningGroup = dollar;
note = Scedilla;
rightKerningGroup = dollar;
unicode = 015E;
},
{
glyphname = Scircumflex;
lastChange = "2015-11-24 05:27:22 +0000";
layers = (
{
layerId = "5F179057-6D0F-420F-80EA-7F467AAFD28D";
name = Regular;
paths = (
{
closed = 1;
nodes = (
"432 -15 OFFCURVE",
"515 63 OFFCURVE",
"515 165 CURVE SMOOTH",
"515 283 OFFCURVE",
"438 317 OFFCURVE",
"304 371 CURVE SMOOTH",
"237 398 OFFCURVE",
"162 427 OFFCURVE",
"162 490 CURVE SMOOTH",
"162 551 OFFCURVE",
"207 573 OFFCURVE",
"269 573 CURVE SMOOTH",
"308 573 OFFCURVE",
"343 566 OFFCURVE",
"369 551 CURVE",
"369 487 LINE",
"503 487 LINE",
"503 586 LINE",
"452 627 OFFCURVE",
"379 662 OFFCURVE",
"276 662 CURVE SMOOTH",
"142 662 OFFCURVE",
"32 607 OFFCURVE",
"32 486 CURVE SMOOTH",
"32 380 OFFCURVE",
"111 332 OFFCURVE",
"244 278 CURVE SMOOTH",
"333 241 OFFCURVE",
"385 219 OFFCURVE",
"385 159 CURVE SMOOTH",
"385 102 OFFCURVE",
"348 74 OFFCURVE",
"279 74 CURVE SMOOTH",
"233 74 OFFCURVE",
"190 84 OFFCURVE",
"160 101 CURVE",
"160 170 LINE",
"27 170 LINE",
"27 63 LINE",
"87 16 OFFCURVE",
"175 -15 OFFCURVE",
"278 -15 CURVE SMOOTH"
);
},
{
closed = 1;
nodes = (
"198 700 LINE",
"268 820 LINE",
"338 700 LINE",
"459 700 LINE",
"329 893 LINE",
"209 893 LINE",
"78 700 LINE"
);
}
);
width = 542;
}
);
leftKerningGroup = dollar;
note = Scircumflex;
rightKerningGroup = dollar;
unicode = 015C;
},
{
glyphname = Scommaaccent;
lastChange = "2015-11-24 05:27:22 +0000";
layers = (
{
layerId = "5F179057-6D0F-420F-80EA-7F467AAFD28D";
name = Regular;
paths = (
{
closed = 1;
nodes = (
"432 -15 OFFCURVE",
"515 63 OFFCURVE",
"515 165 CURVE SMOOTH",
"515 283 OFFCURVE",
"438 317 OFFCURVE",
"304 371 CURVE SMOOTH",
"237 398 OFFCURVE",
"162 427 OFFCURVE",
"162 490 CURVE SMOOTH",
"162 551 OFFCURVE",
"207 573 OFFCURVE",
"269 573 CURVE SMOOTH",
"308 573 OFFCURVE",
"343 566 OFFCURVE",
"369 551 CURVE",
"369 487 LINE",
"503 487 LINE",
"503 586 LINE",
"452 627 OFFCURVE",
"379 662 OFFCURVE",
"276 662 CURVE SMOOTH",
"142 662 OFFCURVE",
"32 607 OFFCURVE",
"32 486 CURVE SMOOTH",
"32 380 OFFCURVE",
"111 332 OFFCURVE",
"244 278 CURVE SMOOTH",
"333 241 OFFCURVE",
"385 219 OFFCURVE",
"385 159 CURVE SMOOTH",
"385 102 OFFCURVE",
"348 74 OFFCURVE",
"279 74 CURVE SMOOTH",
"233 74 OFFCURVE",
"190 84 OFFCURVE",
"160 101 CURVE",
"160 170 LINE",
"27 170 LINE",
"27 63 LINE",
"87 16 OFFCURVE",
"175 -15 OFFCURVE",
"278 -15 CURVE SMOOTH"
);
},
{
closed = 1;
nodes = (
"264 -253 LINE",
"364 -49 LINE",
"204 -49 LINE",
"140 -253 LINE"
);
}
);
width = 542;
}
);
leftKerningGroup = dollar;
note = Scommaaccent;
rightKerningGroup = dollar;
unicode = 0218;
},
{
glyphname = Sdotaccent;
lastChange = "2015-11-24 05:27:21 +0000";
layers = (
{
layerId = "5F179057-6D0F-420F-80EA-7F467AAFD28D";
name = Regular;
paths = (
{
closed = 1;
nodes = (
"432 -15 OFFCURVE",
"515 63 OFFCURVE",
"515 165 CURVE SMOOTH",
"515 283 OFFCURVE",
"438 317 OFFCURVE",
"304 371 CURVE SMOOTH",
"237 398 OFFCURVE",
"162 427 OFFCURVE",
"162 490 CURVE SMOOTH",
"162 551 OFFCURVE",
"207 573 OFFCURVE",
"269 573 CURVE SMOOTH",
"308 573 OFFCURVE",
"343 566 OFFCURVE",
"369 551 CURVE",
"369 487 LINE",
"503 487 LINE",
"503 586 LINE",
"452 627 OFFCURVE",
"379 662 OFFCURVE",
"276 662 CURVE SMOOTH",
"142 662 OFFCURVE",
"32 607 OFFCURVE",
"32 486 CURVE SMOOTH",
"32 380 OFFCURVE",
"111 332 OFFCURVE",
"244 278 CURVE SMOOTH",
"333 241 OFFCURVE",
"385 219 OFFCURVE",
"385 159 CURVE SMOOTH",
"385 102 OFFCURVE",
"348 74 OFFCURVE",
"279 74 CURVE SMOOTH",
"233 74 OFFCURVE",
"190 84 OFFCURVE",
"160 101 CURVE",
"160 170 LINE",
"27 170 LINE",
"27 63 LINE",
"87 16 OFFCURVE",
"175 -15 OFFCURVE",
"278 -15 CURVE SMOOTH"
);
},
{
closed = 1;
nodes = (
"320 719 LINE",
"320 828 LINE",
"216 828 LINE",
"216 719 LINE"
);
}
);
width = 542;
}
);
leftKerningGroup = dollar;
note = Sdotaccent;
rightKerningGroup = dollar;
unicode = 1E60;
},
{
glyphname = Sdotbelow;
lastChange = "2015-11-24 05:27:17 +0000";
layers = (
{
layerId = "5F179057-6D0F-420F-80EA-7F467AAFD28D";
name = Regular;
paths = (
{
closed = 1;
nodes = (
"432 -15 OFFCURVE",
"515 63 OFFCURVE",
"515 165 CURVE SMOOTH",
"515 283 OFFCURVE",
"438 317 OFFCURVE",
"304 371 CURVE SMOOTH",
"237 398 OFFCURVE",
"162 427 OFFCURVE",
"162 490 CURVE SMOOTH",
"162 551 OFFCURVE",
"207 573 OFFCURVE",
"269 573 CURVE SMOOTH",
"308 573 OFFCURVE",
"343 566 OFFCURVE",
"369 551 CURVE",
"369 487 LINE",
"503 487 LINE",
"503 586 LINE",
"452 627 OFFCURVE",
"379 662 OFFCURVE",
"276 662 CURVE SMOOTH",
"142 662 OFFCURVE",
"32 607 OFFCURVE",
"32 486 CURVE SMOOTH",
"32 380 OFFCURVE",
"111 332 OFFCURVE",
"244 278 CURVE SMOOTH",
"333 241 OFFCURVE",
"385 219 OFFCURVE",
"385 159 CURVE SMOOTH",
"385 102 OFFCURVE",
"348 74 OFFCURVE",
"279 74 CURVE SMOOTH",
"233 74 OFFCURVE",
"190 84 OFFCURVE",
"160 101 CURVE",
"160 170 LINE",
"27 170 LINE",
"27 63 LINE",
"87 16 OFFCURVE",
"175 -15 OFFCURVE",
"278 -15 CURVE SMOOTH"
);
},
{
closed = 1;
nodes = (
"309 -171 LINE",
"309 -61 LINE",
"205 -61 LINE",
"205 -171 LINE"
);
}
);
width = 542;
}
);
leftKerningGroup = dollar;
note = Sdotbelow;
rightKerningGroup = dollar;
unicode = 1E62;
},
{
glyphname = Germandbls;
lastChange = "2015-11-24 05:27:12 +0000";
layers = (
{
layerId = "5F179057-6D0F-420F-80EA-7F467AAFD28D";
name = Regular;
paths = (
{
closed = 1;
nodes = (
"576 -15 OFFCURVE",
"640 71 OFFCURVE",
"640 188 CURVE SMOOTH",
"640 309 OFFCURVE",
"592 374 OFFCURVE",
"467 383 CURVE",
"580 518 LINE",
"580 605 OFFCURVE",
"502 690 OFFCURVE",
"344 690 CURVE SMOOTH",
"151 690 OFFCURVE",
"76 590 OFFCURVE",
"76 457 CURVE SMOOTH",
"76 145 LINE SMOOTH",
"76 107 OFFCURVE",
"74 87 OFFCURVE",
"42 87 CURVE SMOOTH",
"17 87 LINE",
"17 0 LINE",
"211 0 LINE",
"211 459 LINE SMOOTH",
"211 554 OFFCURVE",
"250 602 OFFCURVE",
"342 602 CURVE SMOOTH",
"410 602 OFFCURVE",
"448 570 OFFCURVE",
"448 538 CURVE",
"307 362 LINE",
"307 299 LINE",
"402 299 LINE SMOOTH",
"478 299 OFFCURVE",
"510 267 OFFCURVE",
"510 187 CURVE SMOOTH",
"510 109 OFFCURVE",
"481 70 OFFCURVE",
"420 70 CURVE SMOOTH",
"386 70 OFFCURVE",
"361 75 OFFCURVE",
"331 91 CURVE",
"289 19 LINE",
"331 -5 OFFCURVE",
"381 -15 OFFCURVE",
"430 -15 CURVE SMOOTH"
);
}
);
width = 667;
}
);
note = uni1E9E;
unicode = 1E9E;
},
{
glyphname = Schwa;
lastChange = "2015-11-24 05:27:21 +0000";
layers = (
{
layerId = "5F179057-6D0F-420F-80EA-7F467AAFD28D";
name = Regular;
paths = (
{
closed = 1;
nodes = (
"546 -15 OFFCURVE",
"652 106 OFFCURVE",
"652 335 CURVE SMOOTH",
"652 563 OFFCURVE",
"513 662 OFFCURVE",
"330 662 CURVE SMOOTH",
"216 662 OFFCURVE",
"124 638 OFFCURVE",
"48 581 CURVE",
"48 480 LINE",
"183 480 LINE",
"183 548 LINE",
"217 564 OFFCURVE",
"265 574 OFFCURVE",
"330 574 CURVE SMOOTH",
"458 574 OFFCURVE",
"522 506 OFFCURVE",
"522 372 CURVE",
"27 372 LINE",
"27 301 LINE SMOOTH",
"27 121 OFFCURVE",
"125 -15 OFFCURVE",
"338 -15 CURVE SMOOTH"
);
},
{
closed = 1;
nodes = (
"221 73 OFFCURVE",
"163 150 OFFCURVE",
"163 282 CURVE",
"522 282 LINE",
"522 167 OFFCURVE",
"473 73 OFFCURVE",
"338 73 CURVE SMOOTH"
);
}
);
width = 679;
}
);
note = uni018F;
unicode = 018F;
},
{
glyphname = T;
lastChange = "2015-11-24 05:27:12 +0000";
layers = (
{
layerId = "5F179057-6D0F-420F-80EA-7F467AAFD28D";
name = Regular;
paths = (
{
closed = 1;
nodes = (
"426 0 LINE",
"426 87 LINE",
"401 87 LINE SMOOTH",
"372 87 OFFCURVE",
"361 100 OFFCURVE",
"361 124 CURVE SMOOTH",
"361 560 LINE",
"439 560 LINE SMOOTH",
"467 560 OFFCURVE",
"478 549 OFFCURVE",
"478 523 CURVE SMOOTH",
"478 486 LINE",
"573 486 LINE",
"573 647 LINE",
"17 647 LINE",
"17 486 LINE",
"112 486 LINE",
"112 523 LINE SMOOTH",
"112 549 OFFCURVE",
"123 560 OFFCURVE",
"151 560 CURVE SMOOTH",
"229 560 LINE",
"229 124 LINE SMOOTH",
"229 100 OFFCURVE",
"219 87 OFFCURVE",
"190 87 CURVE SMOOTH",
"165 87 LINE",
"165 0 LINE"
);
}
);
width = 590;
}
);
leftKerningGroup = T;
note = T;
rightKerningGroup = T;
unicode = 0054;
},
{
glyphname = Tbar;
lastChange = "2015-11-24 05:27:20 +0000";
layers = (
{
layerId = "5F179057-6D0F-420F-80EA-7F467AAFD28D";
name = Regular;
paths = (
{
closed = 1;
nodes = (
"426 0 LINE",
"426 87 LINE",
"401 87 LINE SMOOTH",
"372 87 OFFCURVE",
"361 100 OFFCURVE",
"361 124 CURVE SMOOTH",
"361 560 LINE",
"439 560 LINE SMOOTH",
"467 560 OFFCURVE",
"478 549 OFFCURVE",
"478 523 CURVE SMOOTH",
"478 486 LINE",
"573 486 LINE",
"573 647 LINE",
"17 647 LINE",
"17 486 LINE",
"112 486 LINE",
"112 523 LINE SMOOTH",
"112 549 OFFCURVE",
"123 560 OFFCURVE",
"151 560 CURVE SMOOTH",
"229 560 LINE",
"229 124 LINE SMOOTH",
"229 100 OFFCURVE",
"219 87 OFFCURVE",
"190 87 CURVE SMOOTH",
"165 87 LINE",
"165 0 LINE"
);
},
{
closed = 1;
nodes = (
"471 279 LINE",
"471 360 LINE",
"119 360 LINE",
"119 279 LINE"
);
}
);
width = 590;
}
);
leftKerningGroup = T;
note = Tbar;
rightKerningGroup = T;
unicode = 0166;
},
{
glyphname = Tcaron;
lastChange = "2015-11-24 05:27:21 +0000";
layers = (
{
layerId = "5F179057-6D0F-420F-80EA-7F467AAFD28D";
name = Regular;
paths = (
{
closed = 1;
nodes = (
"426 0 LINE",
"426 87 LINE",
"401 87 LINE SMOOTH",
"372 87 OFFCURVE",
"361 100 OFFCURVE",
"361 124 CURVE SMOOTH",
"361 560 LINE",
"439 560 LINE SMOOTH",
"467 560 OFFCURVE",
"478 549 OFFCURVE",
"478 523 CURVE SMOOTH",
"478 486 LINE",
"573 486 LINE",
"573 647 LINE",
"17 647 LINE",
"17 486 LINE",
"112 486 LINE",
"112 523 LINE SMOOTH",
"112 549 OFFCURVE",
"123 560 OFFCURVE",
"151 560 CURVE SMOOTH",
"229 560 LINE",
"229 124 LINE SMOOTH",
"229 100 OFFCURVE",
"219 87 OFFCURVE",
"190 87 CURVE SMOOTH",
"165 87 LINE",
"165 0 LINE"
);
},
{
closed = 1;
nodes = (
"356 700 LINE",
"486 893 LINE",
"365 893 LINE",
"295 773 LINE",
"225 893 LINE",
"105 893 LINE",
"236 700 LINE"
);
}
);
width = 590;
}
);
leftKerningGroup = T;
note = Tcaron;
rightKerningGroup = T;
unicode = 0164;
},
{
glyphname = Tcedilla;
lastChange = "2015-11-24 05:27:20 +0000";
layers = (
{
layerId = "5F179057-6D0F-420F-80EA-7F467AAFD28D";
name = Regular;
paths = (
{
closed = 1;
nodes = (
"426 0 LINE",
"426 87 LINE",
"401 87 LINE SMOOTH",
"372 87 OFFCURVE",
"361 100 OFFCURVE",
"361 124 CURVE SMOOTH",
"361 560 LINE",
"439 560 LINE SMOOTH",
"467 560 OFFCURVE",
"478 549 OFFCURVE",
"478 523 CURVE SMOOTH",
"478 486 LINE",
"573 486 LINE",
"573 647 LINE",
"17 647 LINE",
"17 486 LINE",
"112 486 LINE",
"112 523 LINE SMOOTH",
"112 549 OFFCURVE",
"123 560 OFFCURVE",
"151 560 CURVE SMOOTH",
"229 560 LINE",
"229 124 LINE SMOOTH",
"229 100 OFFCURVE",
"219 87 OFFCURVE",
"190 87 CURVE SMOOTH",
"165 87 LINE",
"165 0 LINE"
);
},
{
closed = 1;
nodes = (
"383 -228 OFFCURVE",
"429 -192 OFFCURVE",
"429 -130 CURVE SMOOTH",
"429 -82 OFFCURVE",
"406 -53 OFFCURVE",
"350 -43 CURVE",
"357 0 LINE",
"237 0 LINE",
"225 -80 LINE",
"300 -80 OFFCURVE",
"317 -95 OFFCURVE",
"317 -125 CURVE SMOOTH",
"317 -144 OFFCURVE",
"302 -155 OFFCURVE",
"268 -155 CURVE SMOOTH",
"246 -155 OFFCURVE",
"219 -150 OFFCURVE",
"196 -140 CURVE",
"196 -213 LINE",
"224 -224 OFFCURVE",
"249 -228 OFFCURVE",
"283 -228 CURVE SMOOTH"
);
}
);
width = 590;
}
);
leftKerningGroup = T;
note = Tcedilla;
rightKerningGroup = T;
unicode = 0162;
},
{
glyphname = Tcommaaccent;
lastChange = "2015-11-24 05:27:20 +0000";
layers = (
{
layerId = "5F179057-6D0F-420F-80EA-7F467AAFD28D";
name = Regular;
paths = (
{
closed = 1;
nodes = (
"426 0 LINE",
"426 87 LINE",
"401 87 LINE SMOOTH",
"372 87 OFFCURVE",
"361 100 OFFCURVE",
"361 124 CURVE SMOOTH",
"361 560 LINE",
"439 560 LINE SMOOTH",
"467 560 OFFCURVE",
"478 549 OFFCURVE",
"478 523 CURVE SMOOTH",
"478 486 LINE",
"573 486 LINE",
"573 647 LINE",
"17 647 LINE",
"17 486 LINE",
"112 486 LINE",
"112 523 LINE SMOOTH",
"112 549 OFFCURVE",
"123 560 OFFCURVE",
"151 560 CURVE SMOOTH",
"229 560 LINE",
"229 124 LINE SMOOTH",
"229 100 OFFCURVE",
"219 87 OFFCURVE",
"190 87 CURVE SMOOTH",
"165 87 LINE",
"165 0 LINE"
);
},
{
closed = 1;
nodes = (
"305 -263 LINE",
"370 -49 LINE",
"229 -49 LINE",
"197 -263 LINE"
);
}
);
width = 590;
}
);
leftKerningGroup = T;
note = Tcommaaccent;
rightKerningGroup = T;
unicode = 021A;
},
{
glyphname = Tdotbelow;
lastChange = "2015-11-24 05:27:18 +0000";
layers = (
{
layerId = "5F179057-6D0F-420F-80EA-7F467AAFD28D";
name = Regular;
paths = (
{
closed = 1;
nodes = (
"426 0 LINE",
"426 87 LINE",
"401 87 LINE SMOOTH",
"372 87 OFFCURVE",
"361 100 OFFCURVE",
"361 124 CURVE SMOOTH",
"361 560 LINE",
"439 560 LINE SMOOTH",
"467 560 OFFCURVE",
"478 549 OFFCURVE",
"478 523 CURVE SMOOTH",
"478 486 LINE",
"573 486 LINE",
"573 647 LINE",
"17 647 LINE",
"17 486 LINE",
"112 486 LINE",
"112 523 LINE SMOOTH",
"112 549 OFFCURVE",
"123 560 OFFCURVE",
"151 560 CURVE SMOOTH",
"229 560 LINE",
"229 124 LINE SMOOTH",
"229 100 OFFCURVE",
"219 87 OFFCURVE",
"190 87 CURVE SMOOTH",
"165 87 LINE",
"165 0 LINE"
);
},
{
closed = 1;
nodes = (
"334 -171 LINE",
"334 -61 LINE",
"230 -61 LINE",
"230 -171 LINE"
);
}
);
width = 590;
}
);
leftKerningGroup = T;
note = Tdotbelow;
rightKerningGroup = T;
unicode = 1E6C;
},
{
glyphname = Tlinebelow;
lastChange = "2015-11-24 05:27:20 +0000";
layers = (
{
layerId = "5F179057-6D0F-420F-80EA-7F467AAFD28D";
name = Regular;
paths = (
{
closed = 1;
nodes = (
"426 0 LINE",
"426 87 LINE",
"401 87 LINE SMOOTH",
"372 87 OFFCURVE",
"361 100 OFFCURVE",
"361 124 CURVE SMOOTH",
"361 560 LINE",
"439 560 LINE SMOOTH",
"467 560 OFFCURVE",
"478 549 OFFCURVE",
"478 523 CURVE SMOOTH",
"478 486 LINE",
"573 486 LINE",
"573 647 LINE",
"17 647 LINE",
"17 486 LINE",
"112 486 LINE",
"112 523 LINE SMOOTH",
"112 549 OFFCURVE",
"123 560 OFFCURVE",
"151 560 CURVE SMOOTH",
"229 560 LINE",
"229 124 LINE SMOOTH",
"229 100 OFFCURVE",
"219 87 OFFCURVE",
"190 87 CURVE SMOOTH",
"165 87 LINE",
"165 0 LINE"
);
},
{
closed = 1;
nodes = (
"435 -138 LINE",
"435 -57 LINE",
"136 -57 LINE",
"136 -138 LINE"
);
}
);
width = 590;
}
);
leftKerningGroup = T;
note = Tlinebelow;
rightKerningGroup = T;
unicode = 1E6E;
},
{
glyphname = U;
lastChange = "2015-11-24 05:27:12 +0000";
layers = (
{
layerId = "5F179057-6D0F-420F-80EA-7F467AAFD28D";
name = Regular;
paths = (
{
closed = 1;
nodes = (
"508 -15 OFFCURVE",
"589 66 OFFCURVE",
"589 185 CURVE SMOOTH",
"589 524 LINE SMOOTH",
"589 548 OFFCURVE",
"599 560 OFFCURVE",
"627 560 CURVE SMOOTH",
"649 560 LINE",
"649 647 LINE",
"401 647 LINE",
"401 560 LINE",
"423 560 LINE SMOOTH",
"451 560 OFFCURVE",
"461 548 OFFCURVE",
"461 524 CURVE SMOOTH",
"461 179 LINE SMOOTH",
"461 105 OFFCURVE",
"414 74 OFFCURVE",
"333 74 CURVE SMOOTH",
"252 74 OFFCURVE",
"205 105 OFFCURVE",
"205 179 CURVE SMOOTH",
"205 524 LINE SMOOTH",
"205 548 OFFCURVE",
"215 560 OFFCURVE",
"243 560 CURVE SMOOTH",
"265 560 LINE",
"265 647 LINE",
"17 647 LINE",
"17 560 LINE",
"39 560 LINE SMOOTH",
"67 560 OFFCURVE",
"77 548 OFFCURVE",
"77 524 CURVE SMOOTH",
"77 185 LINE SMOOTH",
"77 66 OFFCURVE",
"157 -15 OFFCURVE",
"333 -15 CURVE SMOOTH"
);
}
);
width = 666;
}
);
leftKerningGroup = U;
note = U;
rightKerningGroup = U;
unicode = 0055;
},
{
glyphname = Uacute;
lastChange = "2015-11-24 05:27:21 +0000";
layers = (
{
layerId = "5F179057-6D0F-420F-80EA-7F467AAFD28D";
name = Regular;
paths = (
{
closed = 1;
nodes = (
"508 -15 OFFCURVE",
"589 66 OFFCURVE",
"589 185 CURVE SMOOTH",
"589 524 LINE SMOOTH",
"589 548 OFFCURVE",
"599 560 OFFCURVE",
"627 560 CURVE SMOOTH",
"649 560 LINE",
"649 647 LINE",
"401 647 LINE",
"401 560 LINE",
"423 560 LINE SMOOTH",
"451 560 OFFCURVE",
"461 548 OFFCURVE",
"461 524 CURVE SMOOTH",
"461 179 LINE SMOOTH",
"461 105 OFFCURVE",
"414 74 OFFCURVE",
"333 74 CURVE SMOOTH",
"252 74 OFFCURVE",
"205 105 OFFCURVE",
"205 179 CURVE SMOOTH",
"205 524 LINE SMOOTH",
"205 548 OFFCURVE",
"215 560 OFFCURVE",
"243 560 CURVE SMOOTH",
"265 560 LINE",
"265 647 LINE",
"17 647 LINE",
"17 560 LINE",
"39 560 LINE SMOOTH",
"67 560 OFFCURVE",
"77 548 OFFCURVE",
"77 524 CURVE SMOOTH",
"77 185 LINE SMOOTH",
"77 66 OFFCURVE",
"157 -15 OFFCURVE",
"333 -15 CURVE SMOOTH"
);
},
{
closed = 1;
nodes = (
"363 699 LINE",
"476 879 LINE",
"328 879 LINE",
"251 699 LINE"
);
}
);
width = 666;
}
);
leftKerningGroup = U;
note = Uacute;
rightKerningGroup = U;
unicode = 00DA;
},
{
glyphname = Ubreve;
lastChange = "2015-11-24 05:27:21 +0000";
layers = (
{
layerId = "5F179057-6D0F-420F-80EA-7F467AAFD28D";
name = Regular;
paths = (
{
closed = 1;
nodes = (
"508 -15 OFFCURVE",
"589 66 OFFCURVE",
"589 185 CURVE SMOOTH",
"589 524 LINE SMOOTH",
"589 548 OFFCURVE",
"599 560 OFFCURVE",
"627 560 CURVE SMOOTH",
"649 560 LINE",
"649 647 LINE",
"401 647 LINE",
"401 560 LINE",
"423 560 LINE SMOOTH",
"451 560 OFFCURVE",
"461 548 OFFCURVE",
"461 524 CURVE SMOOTH",
"461 179 LINE SMOOTH",
"461 105 OFFCURVE",
"414 74 OFFCURVE",
"333 74 CURVE SMOOTH",
"252 74 OFFCURVE",
"205 105 OFFCURVE",
"205 179 CURVE SMOOTH",
"205 524 LINE SMOOTH",
"205 548 OFFCURVE",
"215 560 OFFCURVE",
"243 560 CURVE SMOOTH",
"265 560 LINE",
"265 647 LINE",
"17 647 LINE",
"17 560 LINE",
"39 560 LINE SMOOTH",
"67 560 OFFCURVE",
"77 548 OFFCURVE",
"77 524 CURVE SMOOTH",
"77 185 LINE SMOOTH",
"77 66 OFFCURVE",
"157 -15 OFFCURVE",
"333 -15 CURVE SMOOTH"
);
},
{
closed = 1;
nodes = (
"439 699 OFFCURVE",
"502 759 OFFCURVE",
"502 849 CURVE",
"393 849 LINE",
"393 806 OFFCURVE",
"375 780 OFFCURVE",
"333 780 CURVE SMOOTH",
"294 780 OFFCURVE",
"273 806 OFFCURVE",
"273 849 CURVE",
"164 849 LINE",
"164 759 OFFCURVE",
"227 699 OFFCURVE",
"333 699 CURVE SMOOTH"
);
}
);
width = 666;
}
);
leftKerningGroup = U;
note = Ubreve;
rightKerningGroup = U;
unicode = 016C;
},
{
glyphname = Ucaron;
lastChange = "2015-11-24 05:27:20 +0000";
layers = (
{
layerId = "5F179057-6D0F-420F-80EA-7F467AAFD28D";
name = Regular;
paths = (
{
closed = 1;
nodes = (
"508 -15 OFFCURVE",
"589 66 OFFCURVE",
"589 185 CURVE SMOOTH",
"589 524 LINE SMOOTH",
"589 548 OFFCURVE",
"599 560 OFFCURVE",
"627 560 CURVE SMOOTH",
"649 560 LINE",
"649 647 LINE",
"401 647 LINE",
"401 560 LINE",
"423 560 LINE SMOOTH",
"451 560 OFFCURVE",
"461 548 OFFCURVE",
"461 524 CURVE SMOOTH",
"461 179 LINE SMOOTH",
"461 105 OFFCURVE",
"414 74 OFFCURVE",
"333 74 CURVE SMOOTH",
"252 74 OFFCURVE",
"205 105 OFFCURVE",
"205 179 CURVE SMOOTH",
"205 524 LINE SMOOTH",
"205 548 OFFCURVE",
"215 560 OFFCURVE",
"243 560 CURVE SMOOTH",
"265 560 LINE",
"265 647 LINE",
"17 647 LINE",
"17 560 LINE",
"39 560 LINE SMOOTH",
"67 560 OFFCURVE",
"77 548 OFFCURVE",
"77 524 CURVE SMOOTH",
"77 185 LINE SMOOTH",
"77 66 OFFCURVE",
"157 -15 OFFCURVE",
"333 -15 CURVE SMOOTH"
);
},
{
closed = 1;
nodes = (
"394 700 LINE",
"524 893 LINE",
"403 893 LINE",
"333 773 LINE",
"263 893 LINE",
"143 893 LINE",
"274 700 LINE"
);
}
);
width = 666;
}
);
leftKerningGroup = U;
note = Ucaron;
rightKerningGroup = U;
unicode = 01D3;
},
{
glyphname = Ucircumflex;
lastChange = "2015-11-24 05:27:19 +0000";
layers = (
{
layerId = "5F179057-6D0F-420F-80EA-7F467AAFD28D";
name = Regular;
paths = (
{
closed = 1;
nodes = (
"508 -15 OFFCURVE",
"589 66 OFFCURVE",
"589 185 CURVE SMOOTH",
"589 524 LINE SMOOTH",
"589 548 OFFCURVE",
"599 560 OFFCURVE",
"627 560 CURVE SMOOTH",
"649 560 LINE",
"649 647 LINE",
"401 647 LINE",
"401 560 LINE",
"423 560 LINE SMOOTH",
"451 560 OFFCURVE",
"461 548 OFFCURVE",
"461 524 CURVE SMOOTH",
"461 179 LINE SMOOTH",
"461 105 OFFCURVE",
"414 74 OFFCURVE",
"333 74 CURVE SMOOTH",
"252 74 OFFCURVE",
"205 105 OFFCURVE",
"205 179 CURVE SMOOTH",
"205 524 LINE SMOOTH",
"205 548 OFFCURVE",
"215 560 OFFCURVE",
"243 560 CURVE SMOOTH",
"265 560 LINE",
"265 647 LINE",
"17 647 LINE",
"17 560 LINE",
"39 560 LINE SMOOTH",
"67 560 OFFCURVE",
"77 548 OFFCURVE",
"77 524 CURVE SMOOTH",
"77 185 LINE SMOOTH",
"77 66 OFFCURVE",
"157 -15 OFFCURVE",
"333 -15 CURVE SMOOTH"
);
},
{
closed = 1;
nodes = (
"263 700 LINE",
"333 820 LINE",
"403 700 LINE",
"524 700 LINE",
"394 893 LINE",
"274 893 LINE",
"143 700 LINE"
);
}
);
width = 666;
}
);
leftKerningGroup = U;
note = Ucircumflex;
rightKerningGroup = U;
unicode = 00DB;
},
{
glyphname = Udieresis;
lastChange = "2015-11-24 05:27:17 +0000";
layers = (
{
layerId = "5F179057-6D0F-420F-80EA-7F467AAFD28D";
name = Regular;
paths = (
{
closed = 1;
nodes = (
"508 -15 OFFCURVE",
"589 66 OFFCURVE",
"589 185 CURVE SMOOTH",
"589 524 LINE SMOOTH",
"589 548 OFFCURVE",
"599 560 OFFCURVE",
"627 560 CURVE SMOOTH",
"649 560 LINE",
"649 647 LINE",
"401 647 LINE",
"401 560 LINE",
"423 560 LINE SMOOTH",
"451 560 OFFCURVE",
"461 548 OFFCURVE",
"461 524 CURVE SMOOTH",
"461 179 LINE SMOOTH",
"461 105 OFFCURVE",
"414 74 OFFCURVE",
"333 74 CURVE SMOOTH",
"252 74 OFFCURVE",
"205 105 OFFCURVE",
"205 179 CURVE SMOOTH",
"205 524 LINE SMOOTH",
"205 548 OFFCURVE",
"215 560 OFFCURVE",
"243 560 CURVE SMOOTH",
"265 560 LINE",
"265 647 LINE",
"17 647 LINE",
"17 560 LINE",
"39 560 LINE SMOOTH",
"67 560 OFFCURVE",
"77 548 OFFCURVE",
"77 524 CURVE SMOOTH",
"77 185 LINE SMOOTH",
"77 66 OFFCURVE",
"157 -15 OFFCURVE",
"333 -15 CURVE SMOOTH"
);
},
{
closed = 1;
nodes = (
"271 719 LINE",
"271 828 LINE",
"167 828 LINE",
"167 719 LINE"
);
},
{
closed = 1;
nodes = (
"497 719 LINE",
"497 828 LINE",
"392 828 LINE",
"392 719 LINE"
);
}
);
width = 666;
}
);
leftKerningGroup = U;
note = Udieresis;
rightKerningGroup = U;
unicode = 00DC;
},
{
glyphname = Udieresisacute;
lastChange = "2015-11-24 05:27:18 +0000";
layers = (
{
layerId = "5F179057-6D0F-420F-80EA-7F467AAFD28D";
name = Regular;
paths = (
{
closed = 1;
nodes = (
"508 -15 OFFCURVE",
"589 66 OFFCURVE",
"589 185 CURVE SMOOTH",
"589 524 LINE SMOOTH",
"589 548 OFFCURVE",
"599 560 OFFCURVE",
"627 560 CURVE SMOOTH",
"649 560 LINE",
"649 647 LINE",
"401 647 LINE",
"401 560 LINE",
"423 560 LINE SMOOTH",
"451 560 OFFCURVE",
"461 548 OFFCURVE",
"461 524 CURVE SMOOTH",
"461 179 LINE SMOOTH",
"461 105 OFFCURVE",
"414 74 OFFCURVE",
"333 74 CURVE SMOOTH",
"252 74 OFFCURVE",
"205 105 OFFCURVE",
"205 179 CURVE SMOOTH",
"205 524 LINE SMOOTH",
"205 548 OFFCURVE",
"215 560 OFFCURVE",
"243 560 CURVE SMOOTH",
"265 560 LINE",
"265 647 LINE",
"17 647 LINE",
"17 560 LINE",
"39 560 LINE SMOOTH",
"67 560 OFFCURVE",
"77 548 OFFCURVE",
"77 524 CURVE SMOOTH",
"77 185 LINE SMOOTH",
"77 66 OFFCURVE",
"157 -15 OFFCURVE",
"333 -15 CURVE SMOOTH"
);
},
{
closed = 1;
nodes = (
"263 716 LINE",
"263 825 LINE",
"162 825 LINE",
"162 716 LINE"
);
},
{
closed = 1;
nodes = (
"492 716 LINE",
"492 825 LINE",
"389 825 LINE",
"389 716 LINE"
);
},
{
closed = 1;
nodes = (
"371 873 LINE",
"471 1015 LINE",
"346 1015 LINE",
"284 873 LINE"
);
}
);
width = 666;
}
);
leftKerningGroup = U;
note = Udieresisacute;
rightKerningGroup = U;
unicode = 01D7;
},
{
glyphname = Udieresiscaron;
lastChange = "2015-11-24 05:27:20 +0000";
layers = (
{
layerId = "5F179057-6D0F-420F-80EA-7F467AAFD28D";
name = Regular;
paths = (
{
closed = 1;
nodes = (
"508 -15 OFFCURVE",
"589 66 OFFCURVE",
"589 185 CURVE SMOOTH",
"589 524 LINE SMOOTH",
"589 548 OFFCURVE",
"599 560 OFFCURVE",
"627 560 CURVE SMOOTH",
"649 560 LINE",
"649 647 LINE",
"401 647 LINE",
"401 560 LINE",
"423 560 LINE SMOOTH",
"451 560 OFFCURVE",
"461 548 OFFCURVE",
"461 524 CURVE SMOOTH",
"461 179 LINE SMOOTH",
"461 105 OFFCURVE",
"414 74 OFFCURVE",
"333 74 CURVE SMOOTH",
"252 74 OFFCURVE",
"205 105 OFFCURVE",
"205 179 CURVE SMOOTH",
"205 524 LINE SMOOTH",
"205 548 OFFCURVE",
"215 560 OFFCURVE",
"243 560 CURVE SMOOTH",
"265 560 LINE",
"265 647 LINE",
"17 647 LINE",
"17 560 LINE",
"39 560 LINE SMOOTH",
"67 560 OFFCURVE",
"77 548 OFFCURVE",
"77 524 CURVE SMOOTH",
"77 185 LINE SMOOTH",
"77 66 OFFCURVE",
"157 -15 OFFCURVE",
"333 -15 CURVE SMOOTH"
);
},
{
closed = 1;
nodes = (
"270 716 LINE",
"270 825 LINE",
"167 825 LINE",
"167 716 LINE"
);
},
{
closed = 1;
nodes = (
"497 716 LINE",
"497 825 LINE",
"396 825 LINE",
"396 716 LINE"
);
},
{
closed = 1;
nodes = (
"391 858 LINE",
"502 996 LINE",
"391 996 LINE",
"333 918 LINE",
"278 996 LINE",
"165 996 LINE",
"275 858 LINE"
);
}
);
width = 666;
}
);
leftKerningGroup = U;
note = Udieresiscaron;
rightKerningGroup = U;
unicode = 01D9;
},
{
glyphname = Udieresisgrave;
lastChange = "2015-11-24 05:27:22 +0000";
layers = (
{
layerId = "5F179057-6D0F-420F-80EA-7F467AAFD28D";
name = Regular;
paths = (
{
closed = 1;
nodes = (
"508 -15 OFFCURVE",
"589 66 OFFCURVE",
"589 185 CURVE SMOOTH",
"589 524 LINE SMOOTH",
"589 548 OFFCURVE",
"599 560 OFFCURVE",
"627 560 CURVE SMOOTH",
"649 560 LINE",
"649 647 LINE",
"401 647 LINE",
"401 560 LINE",
"423 560 LINE SMOOTH",
"451 560 OFFCURVE",
"461 548 OFFCURVE",
"461 524 CURVE SMOOTH",
"461 179 LINE SMOOTH",
"461 105 OFFCURVE",
"414 74 OFFCURVE",
"333 74 CURVE SMOOTH",
"252 74 OFFCURVE",
"205 105 OFFCURVE",
"205 179 CURVE SMOOTH",
"205 524 LINE SMOOTH",
"205 548 OFFCURVE",
"215 560 OFFCURVE",
"243 560 CURVE SMOOTH",
"265 560 LINE",
"265 647 LINE",
"17 647 LINE",
"17 560 LINE",
"39 560 LINE SMOOTH",
"67 560 OFFCURVE",
"77 548 OFFCURVE",
"77 524 CURVE SMOOTH",
"77 185 LINE SMOOTH",
"77 66 OFFCURVE",
"157 -15 OFFCURVE",
"333 -15 CURVE SMOOTH"
);
},
{
closed = 1;
nodes = (
"272 716 LINE",
"272 825 LINE",
"169 825 LINE",
"169 716 LINE"
);
},
{
closed = 1;
nodes = (
"499 716 LINE",
"499 825 LINE",
"398 825 LINE",
"398 716 LINE"
);
},
{
closed = 1;
nodes = (
"377 873 LINE",
"315 1015 LINE",
"190 1015 LINE",
"290 873 LINE"
);
}
);
width = 666;
}
);
leftKerningGroup = U;
note = Udieresisgrave;
rightKerningGroup = U;
unicode = 01DB;
},
{
glyphname = Udieresismacron;
lastChange = "2015-11-24 05:27:18 +0000";
layers = (
{
layerId = "5F179057-6D0F-420F-80EA-7F467AAFD28D";
name = Regular;
paths = (
{
closed = 1;
nodes = (
"508 -15 OFFCURVE",
"589 66 OFFCURVE",
"589 185 CURVE SMOOTH",
"589 524 LINE SMOOTH",
"589 548 OFFCURVE",
"599 560 OFFCURVE",
"627 560 CURVE SMOOTH",
"649 560 LINE",
"649 647 LINE",
"401 647 LINE",
"401 560 LINE",
"423 560 LINE SMOOTH",
"451 560 OFFCURVE",
"461 548 OFFCURVE",
"461 524 CURVE SMOOTH",
"461 179 LINE SMOOTH",
"461 105 OFFCURVE",
"414 74 OFFCURVE",
"333 74 CURVE SMOOTH",
"252 74 OFFCURVE",
"205 105 OFFCURVE",
"205 179 CURVE SMOOTH",
"205 524 LINE SMOOTH",
"205 548 OFFCURVE",
"215 560 OFFCURVE",
"243 560 CURVE SMOOTH",
"265 560 LINE",
"265 647 LINE",
"17 647 LINE",
"17 560 LINE",
"39 560 LINE SMOOTH",
"67 560 OFFCURVE",
"77 548 OFFCURVE",
"77 524 CURVE SMOOTH",
"77 185 LINE SMOOTH",
"77 66 OFFCURVE",
"157 -15 OFFCURVE",
"333 -15 CURVE SMOOTH"
);
},
{
closed = 1;
nodes = (
"272 712 LINE",
"272 821 LINE",
"168 821 LINE",
"168 712 LINE"
);
},
{
closed = 1;
nodes = (
"498 712 LINE",
"498 821 LINE",
"393 821 LINE",
"393 712 LINE"
);
},
{
closed = 1;
nodes = (
"483 876 LINE",
"483 957 LINE",
"184 957 LINE",
"184 876 LINE"
);
}
);
width = 666;
}
);
leftKerningGroup = U;
note = Udieresismacron;
rightKerningGroup = U;
unicode = 01D5;
},
{
glyphname = Udotbelow;
lastChange = "2015-11-24 05:27:19 +0000";
layers = (
{
layerId = "5F179057-6D0F-420F-80EA-7F467AAFD28D";
name = Regular;
paths = (
{
closed = 1;
nodes = (
"508 -15 OFFCURVE",
"589 66 OFFCURVE",
"589 185 CURVE SMOOTH",
"589 524 LINE SMOOTH",
"589 548 OFFCURVE",
"599 560 OFFCURVE",
"627 560 CURVE SMOOTH",
"649 560 LINE",
"649 647 LINE",
"401 647 LINE",
"401 560 LINE",
"423 560 LINE SMOOTH",
"451 560 OFFCURVE",
"461 548 OFFCURVE",
"461 524 CURVE SMOOTH",
"461 179 LINE SMOOTH",
"461 105 OFFCURVE",
"414 74 OFFCURVE",
"333 74 CURVE SMOOTH",
"252 74 OFFCURVE",
"205 105 OFFCURVE",
"205 179 CURVE SMOOTH",
"205 524 LINE SMOOTH",
"205 548 OFFCURVE",
"215 560 OFFCURVE",
"243 560 CURVE SMOOTH",
"265 560 LINE",
"265 647 LINE",
"17 647 LINE",
"17 560 LINE",
"39 560 LINE SMOOTH",
"67 560 OFFCURVE",
"77 548 OFFCURVE",
"77 524 CURVE SMOOTH",
"77 185 LINE SMOOTH",
"77 66 OFFCURVE",
"157 -15 OFFCURVE",
"333 -15 CURVE SMOOTH"
);
},
{
closed = 1;
nodes = (
"385 -171 LINE",
"385 -61 LINE",
"281 -61 LINE",
"281 -171 LINE"
);
}
);
width = 666;
}
);
leftKerningGroup = U;
note = Udotbelow;
rightKerningGroup = U;
unicode = 1EE4;
},
{
glyphname = Ugrave;
lastChange = "2015-11-24 05:27:17 +0000";
layers = (
{
layerId = "5F179057-6D0F-420F-80EA-7F467AAFD28D";
name = Regular;
paths = (
{
closed = 1;
nodes = (
"508 -15 OFFCURVE",
"589 66 OFFCURVE",
"589 185 CURVE SMOOTH",
"589 524 LINE SMOOTH",
"589 548 OFFCURVE",
"599 560 OFFCURVE",
"627 560 CURVE SMOOTH",
"649 560 LINE",
"649 647 LINE",
"401 647 LINE",
"401 560 LINE",
"423 560 LINE SMOOTH",
"451 560 OFFCURVE",
"461 548 OFFCURVE",
"461 524 CURVE SMOOTH",
"461 179 LINE SMOOTH",
"461 105 OFFCURVE",
"414 74 OFFCURVE",
"333 74 CURVE SMOOTH",
"252 74 OFFCURVE",
"205 105 OFFCURVE",
"205 179 CURVE SMOOTH",
"205 524 LINE SMOOTH",
"205 548 OFFCURVE",
"215 560 OFFCURVE",
"243 560 CURVE SMOOTH",
"265 560 LINE",
"265 647 LINE",
"17 647 LINE",
"17 560 LINE",
"39 560 LINE SMOOTH",
"67 560 OFFCURVE",
"77 548 OFFCURVE",
"77 524 CURVE SMOOTH",
"77 185 LINE SMOOTH",
"77 66 OFFCURVE",
"157 -15 OFFCURVE",
"333 -15 CURVE SMOOTH"
);
},
{
closed = 1;
nodes = (
"397 699 LINE",
"319 879 LINE",
"170 879 LINE",
"283 699 LINE"
);
}
);
width = 666;
}
);
leftKerningGroup = U;
note = Ugrave;
rightKerningGroup = U;
unicode = 00D9;
},
{
glyphname = Uhookabove;
lastChange = "2015-11-24 05:27:18 +0000";
layers = (
{
layerId = "5F179057-6D0F-420F-80EA-7F467AAFD28D";
name = Regular;
paths = (
{
closed = 1;
nodes = (
"508 -15 OFFCURVE",
"589 66 OFFCURVE",
"589 185 CURVE SMOOTH",
"589 524 LINE SMOOTH",
"589 548 OFFCURVE",
"599 560 OFFCURVE",
"627 560 CURVE SMOOTH",
"649 560 LINE",
"649 647 LINE",
"401 647 LINE",
"401 560 LINE",
"423 560 LINE SMOOTH",
"451 560 OFFCURVE",
"461 548 OFFCURVE",
"461 524 CURVE SMOOTH",
"461 179 LINE SMOOTH",
"461 105 OFFCURVE",
"414 74 OFFCURVE",
"333 74 CURVE SMOOTH",
"252 74 OFFCURVE",
"205 105 OFFCURVE",
"205 179 CURVE SMOOTH",
"205 524 LINE SMOOTH",
"205 548 OFFCURVE",
"215 560 OFFCURVE",
"243 560 CURVE SMOOTH",
"265 560 LINE",
"265 647 LINE",
"17 647 LINE",
"17 560 LINE",
"39 560 LINE SMOOTH",
"67 560 OFFCURVE",
"77 548 OFFCURVE",
"77 524 CURVE SMOOTH",
"77 185 LINE SMOOTH",
"77 66 OFFCURVE",
"157 -15 OFFCURVE",
"333 -15 CURVE SMOOTH"
);
},
{
closed = 1;
nodes = (
"373 700 LINE",
"373 741 LINE",
"415 754 OFFCURVE",
"435 780 OFFCURVE",
"435 822 CURVE SMOOTH",
"435 883 OFFCURVE",
"389 907 OFFCURVE",
"313 907 CURVE SMOOTH",
"279 907 OFFCURVE",
"250 902 OFFCURVE",
"232 895 CURVE",
"232 827 LINE",
"245 833 OFFCURVE",
"263 836 OFFCURVE",
"279 836 CURVE SMOOTH",
"311 836 OFFCURVE",
"323 827 OFFCURVE",
"323 804 CURVE SMOOTH",
"323 782 OFFCURVE",
"311 765 OFFCURVE",
"266 765 CURVE",
"266 700 LINE"
);
}
);
width = 666;
}
);
leftKerningGroup = U;
note = Uhookabove;
rightKerningGroup = U;
unicode = 1EE6;
},
{
glyphname = Uhorn;
lastChange = "2015-11-24 05:27:12 +0000";
layers = (
{
layerId = "5F179057-6D0F-420F-80EA-7F467AAFD28D";
name = Regular;
paths = (
{
closed = 1;
nodes = (
"508 -15 OFFCURVE",
"588 66 OFFCURVE",
"588 185 CURVE SMOOTH",
"588 493 LINE",
"718 501 OFFCURVE",
"763 561 OFFCURVE",
"763 650 CURVE SMOOTH",
"763 689 LINE",
"636 689 LINE",
"636 651 LINE SMOOTH",
"636 610 OFFCURVE",
"626 590 OFFCURVE",
"588 586 CURVE",
"588 647 LINE",
"400 647 LINE",
"400 560 LINE",
"422 560 LINE SMOOTH",
"450 560 OFFCURVE",
"460 548 OFFCURVE",
"460 524 CURVE SMOOTH",
"460 179 LINE SMOOTH",
"460 105 OFFCURVE",
"414 74 OFFCURVE",
"333 74 CURVE SMOOTH",
"252 74 OFFCURVE",
"205 105 OFFCURVE",
"205 179 CURVE SMOOTH",
"205 524 LINE SMOOTH",
"205 548 OFFCURVE",
"215 560 OFFCURVE",
"243 560 CURVE SMOOTH",
"265 560 LINE",
"265 647 LINE",
"17 647 LINE",
"17 560 LINE",
"39 560 LINE SMOOTH",
"67 560 OFFCURVE",
"77 548 OFFCURVE",
"77 524 CURVE SMOOTH",
"77 185 LINE SMOOTH",
"77 66 OFFCURVE",
"157 -15 OFFCURVE",
"333 -15 CURVE SMOOTH"
);
}
);
width = 755;
}
);
note = Uhorn;
unicode = 01AF;
},
{
glyphname = Uhornacute;
lastChange = "2015-11-24 05:27:21 +0000";
layers = (
{
layerId = "5F179057-6D0F-420F-80EA-7F467AAFD28D";
name = Regular;
paths = (
{
closed = 1;
nodes = (
"508 -15 OFFCURVE",
"588 66 OFFCURVE",
"588 185 CURVE SMOOTH",
"588 493 LINE",
"718 501 OFFCURVE",
"763 561 OFFCURVE",
"763 650 CURVE SMOOTH",
"763 689 LINE",
"636 689 LINE",
"636 651 LINE SMOOTH",
"636 610 OFFCURVE",
"626 590 OFFCURVE",
"588 586 CURVE",
"588 647 LINE",
"400 647 LINE",
"400 560 LINE",
"422 560 LINE SMOOTH",
"450 560 OFFCURVE",
"460 548 OFFCURVE",
"460 524 CURVE SMOOTH",
"460 179 LINE SMOOTH",
"460 105 OFFCURVE",
"414 74 OFFCURVE",
"333 74 CURVE SMOOTH",
"252 74 OFFCURVE",
"205 105 OFFCURVE",
"205 179 CURVE SMOOTH",
"205 524 LINE SMOOTH",
"205 548 OFFCURVE",
"215 560 OFFCURVE",
"243 560 CURVE SMOOTH",
"265 560 LINE",
"265 647 LINE",
"17 647 LINE",
"17 560 LINE",
"39 560 LINE SMOOTH",
"67 560 OFFCURVE",
"77 548 OFFCURVE",
"77 524 CURVE SMOOTH",
"77 185 LINE SMOOTH",
"77 66 OFFCURVE",
"157 -15 OFFCURVE",
"333 -15 CURVE SMOOTH"
);
},
{
closed = 1;
nodes = (
"374 699 LINE",
"487 879 LINE",
"339 879 LINE",
"262 699 LINE"
);
}
);
width = 755;
}
);
leftKerningGroup = U;
note = Uhornacute;
rightKerningGroup = U;
unicode = 1EE8;
},
{
glyphname = Uhorndotbelow;
lastChange = "2015-11-24 05:27:18 +0000";
layers = (
{
layerId = "5F179057-6D0F-420F-80EA-7F467AAFD28D";
name = Regular;
paths = (
{
closed = 1;
nodes = (
"508 -15 OFFCURVE",
"588 66 OFFCURVE",
"588 185 CURVE SMOOTH",
"588 493 LINE",
"718 501 OFFCURVE",
"763 561 OFFCURVE",
"763 650 CURVE SMOOTH",
"763 689 LINE",
"636 689 LINE",
"636 651 LINE SMOOTH",
"636 610 OFFCURVE",
"626 590 OFFCURVE",
"588 586 CURVE",
"588 647 LINE",
"400 647 LINE",
"400 560 LINE",
"422 560 LINE SMOOTH",
"450 560 OFFCURVE",
"460 548 OFFCURVE",
"460 524 CURVE SMOOTH",
"460 179 LINE SMOOTH",
"460 105 OFFCURVE",
"414 74 OFFCURVE",
"333 74 CURVE SMOOTH",
"252 74 OFFCURVE",
"205 105 OFFCURVE",
"205 179 CURVE SMOOTH",
"205 524 LINE SMOOTH",
"205 548 OFFCURVE",
"215 560 OFFCURVE",
"243 560 CURVE SMOOTH",
"265 560 LINE",
"265 647 LINE",
"17 647 LINE",
"17 560 LINE",
"39 560 LINE SMOOTH",
"67 560 OFFCURVE",
"77 548 OFFCURVE",
"77 524 CURVE SMOOTH",
"77 185 LINE SMOOTH",
"77 66 OFFCURVE",
"157 -15 OFFCURVE",
"333 -15 CURVE SMOOTH"
);
},
{
closed = 1;
nodes = (
"381 -171 LINE",
"381 -61 LINE",
"277 -61 LINE",
"277 -171 LINE"
);
}
);
width = 755;
}
);
leftKerningGroup = U;
note = Uhorndotbelow;
rightKerningGroup = U;
unicode = 1EF0;
},
{
glyphname = Uhorngrave;
lastChange = "2015-11-24 05:27:21 +0000";
layers = (
{
layerId = "5F179057-6D0F-420F-80EA-7F467AAFD28D";
name = Regular;
paths = (
{
closed = 1;
nodes = (
"508 -15 OFFCURVE",
"588 66 OFFCURVE",
"588 185 CURVE SMOOTH",
"588 493 LINE",
"718 501 OFFCURVE",
"763 561 OFFCURVE",
"763 650 CURVE SMOOTH",
"763 689 LINE",
"636 689 LINE",
"636 651 LINE SMOOTH",
"636 610 OFFCURVE",
"626 590 OFFCURVE",
"588 586 CURVE",
"588 647 LINE",
"400 647 LINE",
"400 560 LINE",
"422 560 LINE SMOOTH",
"450 560 OFFCURVE",
"460 548 OFFCURVE",
"460 524 CURVE SMOOTH",
"460 179 LINE SMOOTH",
"460 105 OFFCURVE",
"414 74 OFFCURVE",
"333 74 CURVE SMOOTH",
"252 74 OFFCURVE",
"205 105 OFFCURVE",
"205 179 CURVE SMOOTH",
"205 524 LINE SMOOTH",
"205 548 OFFCURVE",
"215 560 OFFCURVE",
"243 560 CURVE SMOOTH",
"265 560 LINE",
"265 647 LINE",
"17 647 LINE",
"17 560 LINE",
"39 560 LINE SMOOTH",
"67 560 OFFCURVE",
"77 548 OFFCURVE",
"77 524 CURVE SMOOTH",
"77 185 LINE SMOOTH",
"77 66 OFFCURVE",
"157 -15 OFFCURVE",
"333 -15 CURVE SMOOTH"
);
},
{
closed = 1;
nodes = (
"387 699 LINE",
"309 879 LINE",
"160 879 LINE",
"273 699 LINE"
);
}
);
width = 755;
}
);
leftKerningGroup = U;
note = Uhorngrave;
rightKerningGroup = U;
unicode = 1EEA;
},
{
glyphname = Uhornhookabove;
lastChange = "2015-11-24 05:27:18 +0000";
layers = (
{
layerId = "5F179057-6D0F-420F-80EA-7F467AAFD28D";
name = Regular;
paths = (
{
closed = 1;
nodes = (
"508 -15 OFFCURVE",
"588 66 OFFCURVE",
"588 185 CURVE SMOOTH",
"588 493 LINE",
"718 501 OFFCURVE",
"763 561 OFFCURVE",
"763 650 CURVE SMOOTH",
"763 689 LINE",
"636 689 LINE",
"636 651 LINE SMOOTH",
"636 610 OFFCURVE",
"626 590 OFFCURVE",
"588 586 CURVE",
"588 647 LINE",
"400 647 LINE",
"400 560 LINE",
"422 560 LINE SMOOTH",
"450 560 OFFCURVE",
"460 548 OFFCURVE",
"460 524 CURVE SMOOTH",
"460 179 LINE SMOOTH",
"460 105 OFFCURVE",
"414 74 OFFCURVE",
"333 74 CURVE SMOOTH",
"252 74 OFFCURVE",
"205 105 OFFCURVE",
"205 179 CURVE SMOOTH",
"205 524 LINE SMOOTH",
"205 548 OFFCURVE",
"215 560 OFFCURVE",
"243 560 CURVE SMOOTH",
"265 560 LINE",
"265 647 LINE",
"17 647 LINE",
"17 560 LINE",
"39 560 LINE SMOOTH",
"67 560 OFFCURVE",
"77 548 OFFCURVE",
"77 524 CURVE SMOOTH",
"77 185 LINE SMOOTH",
"77 66 OFFCURVE",
"157 -15 OFFCURVE",
"333 -15 CURVE SMOOTH"
);
},
{
closed = 1;
nodes = (
"381 700 LINE",
"381 741 LINE",
"423 754 OFFCURVE",
"443 780 OFFCURVE",
"443 822 CURVE SMOOTH",
"443 883 OFFCURVE",
"397 907 OFFCURVE",
"321 907 CURVE SMOOTH",
"287 907 OFFCURVE",
"258 902 OFFCURVE",
"240 895 CURVE",
"240 827 LINE",
"253 833 OFFCURVE",
"271 836 OFFCURVE",
"287 836 CURVE SMOOTH",
"319 836 OFFCURVE",
"331 827 OFFCURVE",
"331 804 CURVE SMOOTH",
"331 782 OFFCURVE",
"319 765 OFFCURVE",
"274 765 CURVE",
"274 700 LINE"
);
}
);
width = 755;
}
);
leftKerningGroup = U;
note = Uhornhookabove;
rightKerningGroup = U;
unicode = 1EEC;
},
{
glyphname = Uhorntilde;
lastChange = "2015-11-24 05:27:20 +0000";
layers = (
{
layerId = "5F179057-6D0F-420F-80EA-7F467AAFD28D";
name = Regular;
paths = (
{
closed = 1;
nodes = (
"508 -15 OFFCURVE",
"588 66 OFFCURVE",
"588 185 CURVE SMOOTH",
"588 493 LINE",
"718 501 OFFCURVE",
"763 561 OFFCURVE",
"763 650 CURVE SMOOTH",
"763 689 LINE",
"636 689 LINE",
"636 651 LINE SMOOTH",
"636 610 OFFCURVE",
"626 590 OFFCURVE",
"588 586 CURVE",
"588 647 LINE",
"400 647 LINE",
"400 560 LINE",
"422 560 LINE SMOOTH",
"450 560 OFFCURVE",
"460 548 OFFCURVE",
"460 524 CURVE SMOOTH",
"460 179 LINE SMOOTH",
"460 105 OFFCURVE",
"414 74 OFFCURVE",
"333 74 CURVE SMOOTH",
"252 74 OFFCURVE",
"205 105 OFFCURVE",
"205 179 CURVE SMOOTH",
"205 524 LINE SMOOTH",
"205 548 OFFCURVE",
"215 560 OFFCURVE",
"243 560 CURVE SMOOTH",
"265 560 LINE",
"265 647 LINE",
"17 647 LINE",
"17 560 LINE",
"39 560 LINE SMOOTH",
"67 560 OFFCURVE",
"77 548 OFFCURVE",
"77 524 CURVE SMOOTH",
"77 185 LINE SMOOTH",
"77 66 OFFCURVE",
"157 -15 OFFCURVE",
"333 -15 CURVE SMOOTH"
);
},
{
closed = 1;
nodes = (
"226 700 LINE",
"226 737 OFFCURVE",
"242 750 OFFCURVE",
"271 750 CURVE SMOOTH",
"319 750 OFFCURVE",
"354 700 OFFCURVE",
"428 700 CURVE SMOOTH",
"508 700 OFFCURVE",
"542 746 OFFCURVE",
"542 853 CURVE",
"449 853 LINE",
"449 816 OFFCURVE",
"434 801 OFFCURVE",
"405 801 CURVE SMOOTH",
"358 801 OFFCURVE",
"323 853 OFFCURVE",
"250 853 CURVE SMOOTH",
"168 853 OFFCURVE",
"132 804 OFFCURVE",
"132 700 CURVE"
);
}
);
width = 755;
}
);
leftKerningGroup = U;
note = Uhorntilde;
rightKerningGroup = U;
unicode = 1EEE;
},
{
glyphname = Uhungarumlaut;
lastChange = "2015-11-24 05:27:18 +0000";
layers = (
{
layerId = "5F179057-6D0F-420F-80EA-7F467AAFD28D";
name = Regular;
paths = (
{
closed = 1;
nodes = (
"508 -15 OFFCURVE",
"589 66 OFFCURVE",
"589 185 CURVE SMOOTH",
"589 524 LINE SMOOTH",
"589 548 OFFCURVE",
"599 560 OFFCURVE",
"627 560 CURVE SMOOTH",
"649 560 LINE",
"649 647 LINE",
"401 647 LINE",
"401 560 LINE",
"423 560 LINE SMOOTH",
"451 560 OFFCURVE",
"461 548 OFFCURVE",
"461 524 CURVE SMOOTH",
"461 179 LINE SMOOTH",
"461 105 OFFCURVE",
"414 74 OFFCURVE",
"333 74 CURVE SMOOTH",
"252 74 OFFCURVE",
"205 105 OFFCURVE",
"205 179 CURVE SMOOTH",
"205 524 LINE SMOOTH",
"205 548 OFFCURVE",
"215 560 OFFCURVE",
"243 560 CURVE SMOOTH",
"265 560 LINE",
"265 647 LINE",
"17 647 LINE",
"17 560 LINE",
"39 560 LINE SMOOTH",
"67 560 OFFCURVE",
"77 548 OFFCURVE",
"77 524 CURVE SMOOTH",
"77 185 LINE SMOOTH",
"77 66 OFFCURVE",
"157 -15 OFFCURVE",
"333 -15 CURVE SMOOTH"
);
},
{
closed = 1;
nodes = (
"259 699 LINE",
"381 892 LINE",
"229 892 LINE",
"141 699 LINE"
);
},
{
closed = 1;
nodes = (
"474 699 LINE",
"598 892 LINE",
"444 892 LINE",
"357 699 LINE"
);
}
);
width = 666;
}
);
leftKerningGroup = U;
note = Uhungarumlaut;
rightKerningGroup = U;
unicode = 0170;
},
{
glyphname = Umacron;
lastChange = "2015-11-24 05:27:19 +0000";
layers = (
{
layerId = "5F179057-6D0F-420F-80EA-7F467AAFD28D";
name = Regular;
paths = (
{
closed = 1;
nodes = (
"508 -15 OFFCURVE",
"589 66 OFFCURVE",
"589 185 CURVE SMOOTH",
"589 524 LINE SMOOTH",
"589 548 OFFCURVE",
"599 560 OFFCURVE",
"627 560 CURVE SMOOTH",
"649 560 LINE",
"649 647 LINE",
"401 647 LINE",
"401 560 LINE",
"423 560 LINE SMOOTH",
"451 560 OFFCURVE",
"461 548 OFFCURVE",
"461 524 CURVE SMOOTH",
"461 179 LINE SMOOTH",
"461 105 OFFCURVE",
"414 74 OFFCURVE",
"333 74 CURVE SMOOTH",
"252 74 OFFCURVE",
"205 105 OFFCURVE",
"205 179 CURVE SMOOTH",
"205 524 LINE SMOOTH",
"205 548 OFFCURVE",
"215 560 OFFCURVE",
"243 560 CURVE SMOOTH",
"265 560 LINE",
"265 647 LINE",
"17 647 LINE",
"17 560 LINE",
"39 560 LINE SMOOTH",
"67 560 OFFCURVE",
"77 548 OFFCURVE",
"77 524 CURVE SMOOTH",
"77 185 LINE SMOOTH",
"77 66 OFFCURVE",
"157 -15 OFFCURVE",
"333 -15 CURVE SMOOTH"
);
},
{
closed = 1;
nodes = (
"483 720 LINE",
"483 801 LINE",
"184 801 LINE",
"184 720 LINE"
);
}
);
width = 666;
}
);
leftKerningGroup = U;
note = Umacron;
rightKerningGroup = U;
unicode = 016A;
},
{
glyphname = Uogonek;
lastChange = "2015-11-24 05:27:13 +0000";
layers = (
{
layerId = "5F179057-6D0F-420F-80EA-7F467AAFD28D";
name = Regular;
paths = (
{
closed = 1;
nodes = (
"380 -212 OFFCURVE",
"404 -209 OFFCURVE",
"432 -191 CURVE",
"432 -117 LINE",
"419 -122 OFFCURVE",
"405 -125 OFFCURVE",
"392 -125 CURVE SMOOTH",
"369 -125 OFFCURVE",
"358 -110 OFFCURVE",
"358 -83 CURVE SMOOTH",
"358 -55.219 OFFCURVE",
"368.829 -33.344 OFFCURVE",
"392.44 -11.516 CURVE",
"526.422 5.166 OFFCURVE",
"589 80.404 OFFCURVE",
"589 185 CURVE SMOOTH",
"589 524 LINE SMOOTH",
"589 548 OFFCURVE",
"599 560 OFFCURVE",
"627 560 CURVE SMOOTH",
"649 560 LINE",
"649 647 LINE",
"401 647 LINE",
"401 560 LINE",
"423 560 LINE SMOOTH",
"451 560 OFFCURVE",
"461 548 OFFCURVE",
"461 524 CURVE SMOOTH",
"461 179 LINE SMOOTH",
"461 105 OFFCURVE",
"414 74 OFFCURVE",
"333 74 CURVE SMOOTH",
"252 74 OFFCURVE",
"205 105 OFFCURVE",
"205 179 CURVE SMOOTH",
"205 524 LINE SMOOTH",
"205 548 OFFCURVE",
"215 560 OFFCURVE",
"243 560 CURVE SMOOTH",
"265 560 LINE",
"265 647 LINE",
"17 647 LINE",
"17 560 LINE",
"39 560 LINE SMOOTH",
"67 560 OFFCURVE",
"77 548 OFFCURVE",
"77 524 CURVE SMOOTH",
"77 185 LINE SMOOTH",
"77 77.588 OFFCURVE",
"142.178 1.136 OFFCURVE",
"284.299 -12.735 CURVE",
"259.738 -38.695 OFFCURVE",
"246 -75.357 OFFCURVE",
"246 -113 CURVE SMOOTH",
"246 -179 OFFCURVE",
"290 -212 OFFCURVE",
"344 -212 CURVE SMOOTH"
);
}
);
width = 667;
}
);
leftKerningGroup = U;
note = Uogonek;
rightKerningGroup = U;
unicode = 0172;
},
